<?xml version="1.0" standalone="no"?>
<!DOCTYPE svg PUBLIC "-//W3C//DTD SVG 20010904//EN"
 "http://www.w3.org/TR/2001/REC-SVG-20010904/DTD/svg10.dtd">
<svg version="1.0" xmlns="http://www.w3.org/2000/svg"
 width="900.000000pt" height="900.000000pt" viewBox="0 0 900.000000 900.000000"
 preserveAspectRatio="xMidYMid meet">
<metadata>
Created by potrace 1.10, written by Peter Selinger 2001-2011
</metadata>
<g transform="translate(0.000000,900.000000) scale(0.100000,-0.100000)"
fill="#000000" stroke="none">
<path d="M8930 8987 c0 -7 -407 -419 -905 -917 l-906 -905 -34 40 c-39 45
-135 182 -135 193 -2 37 -119 109 -200 124 -156 28 -234 32 -326 15 -51 -9
-108 -17 -128 -17 -20 0 -62 -6 -94 -14 -31 -8 -91 -22 -132 -31 -41 -10 -87
-26 -101 -36 -15 -10 -45 -54 -67 -96 -22 -43 -51 -100 -66 -127 -14 -27 -26
-55 -26 -61 0 -7 -7 -18 -15 -25 -33 -27 -7 -66 105 -151 40 -30 51 -34 107
-34 35 0 67 -5 71 -11 12 -19 49 -34 82 -34 32 0 121 39 151 66 9 8 47 24 85
37 63 20 72 27 102 72 42 65 68 85 114 85 70 0 139 -53 246 -187 l31 -39 -350
-350 -349 -349 -68 37 c-37 20 -87 44 -112 53 -58 21 -191 45 -255 44 -89 0
-290 -40 -342 -67 -31 -17 -126 -24 -153 -12 -46 20 -202 123 -217 143 -5 6
-15 104 -22 217 -10 173 -9 221 3 305 14 96 20 121 54 210 14 40 18 49 65 155
31 70 94 223 114 275 8 22 21 53 29 68 8 16 14 35 14 44 0 8 6 27 14 41 35 67
49 128 49 212 -1 115 -20 151 -160 292 -136 139 -175 161 -378 212 -33 8 -87
22 -121 30 -83 22 -212 20 -302 -4 -40 -10 -78 -23 -85 -27 -15 -10 -72 -32
-112 -43 -16 -4 -55 -18 -85 -30 -30 -12 -64 -24 -75 -27 -11 -2 -29 -9 -40
-13 -76 -34 -146 -50 -216 -50 -53 0 -79 -4 -82 -12 -13 -37 24 -173 65 -236
32 -49 35 -89 11 -135 -25 -47 -25 -182 0 -219 11 -16 19 -45 19 -71 0 -36 -9
-56 -56 -124 -31 -45 -56 -89 -56 -100 0 -10 16 -31 35 -46 42 -33 45 -61 10
-101 -30 -34 -31 -48 -8 -87 14 -24 15 -34 5 -62 -17 -46 -15 -56 12 -92 17
-22 30 -59 40 -120 9 -48 23 -99 31 -112 25 -37 110 -73 175 -73 31 0 61 -5
68 -12 19 -19 14 -63 -11 -85 -41 -37 -204 -82 -299 -83 -90 0 -143 20 -278
104 -36 23 -74 47 -85 53 -32 20 -165 83 -175 83 -5 0 -24 6 -42 14 -56 24
-173 46 -244 46 -66 0 -198 -26 -239 -47 -11 -6 -36 -19 -55 -29 -45 -23 -163
-25 -206 -2 -61 34 -161 76 -215 92 -104 30 -271 16 -361 -30 -40 -22 -83 -18
-95 8 -10 23 -5 42 36 133 26 57 49 117 61 160 15 53 51 136 83 191 61 105
253 314 346 376 32 22 104 24 121 3 7 -8 16 -15 20 -15 15 0 112 -70 131 -94
11 -13 19 -31 19 -39 0 -24 138 -130 216 -166 12 -5 30 -21 42 -35 18 -23 27
-26 85 -26 36 0 69 -4 72 -10 13 -20 44 -8 133 51 110 73 136 102 129 144 -20
120 -47 141 -47 38 0 -65 -2 -71 -32 -99 -37 -33 -78 -58 -78 -47 0 4 12 24
26 45 l27 38 -18 72 c-9 40 -23 96 -31 124 -25 92 -12 165 23 119 11 -17 13
-17 13 -2 0 20 -35 84 -62 114 -22 23 -119 73 -143 73 -8 0 -29 6 -47 14 -18
7 -60 21 -93 31 -33 9 -76 23 -95 30 -19 7 -62 20 -95 30 -33 10 -80 24 -104
31 -25 8 -74 14 -109 14 -55 0 -74 -5 -126 -34 -34 -19 -82 -52 -106 -73 -25
-21 -65 -54 -90 -73 -43 -33 -82 -66 -119 -101 -27 -25 -98 -79 -106 -79 -5 0
-60 -40 -190 -137 -17 -13 -50 -37 -75 -55 -25 -17 -47 -34 -50 -38 -3 -3 -34
-28 -70 -55 -158 -119 -379 -344 -511 -520 -58 -77 -139 -176 -180 -220 -107
-115 -134 -153 -154 -217 -17 -54 -17 -59 -1 -102 16 -41 65 -96 126 -138 14
-10 43 -30 65 -46 22 -15 47 -31 55 -35 8 -4 29 -16 45 -27 75 -48 243 -134
341 -175 49 -21 103 -43 119 -50 49 -21 164 -62 210 -75 17 -5 46 -14 65 -21
19 -6 51 -17 70 -24 66 -23 125 -36 248 -52 107 -14 137 -15 220 -3 54 7 113
18 132 25 19 7 62 21 95 30 33 10 77 24 98 31 48 18 171 18 184 2 25 -33 43
-160 43 -304 0 -181 13 -231 134 -519 20 -48 37 -97 46 -135 5 -19 14 -55 20
-80 34 -133 58 -244 70 -335 7 -55 23 -142 46 -250 8 -38 14 -81 14 -95 0 -14
6 -61 14 -105 38 -214 49 -343 50 -607 l1 -268 -449 -449 c-247 -247 -446
-453 -443 -458 4 -6 44 -9 89 -8 46 1 89 0 96 -3 17 -6 16 -94 -3 -183 -9 -40
-17 -75 -20 -77 -2 -3 -84 -4 -183 -3 -102 1 -190 -2 -205 -8 -26 -10 -27 -14
-27 -76 l0 -65 163 -2 162 -3 3 -35 c1 -19 -6 -78 -16 -130 l-17 -95 -167 -5
c-91 -3 -170 -8 -174 -12 -4 -4 -10 -45 -15 -90 -4 -46 -12 -107 -18 -137 -6
-29 -11 -73 -11 -97 0 -23 -4 -54 -10 -68 l-10 -26 -144 0 c-80 0 -147 3 -149
8 -2 4 -1 34 4 67 5 33 15 114 24 180 9 66 21 153 26 193 6 41 8 77 4 80 -3 3
-370 -358 -815 -803 -594 -594 -810 -816 -810 -832 l0 -23 4500 0 4500 0 0
4500 0 4500 -35 0 c-22 0 -35 -5 -35 -13z m-4192 -557 c40 -11 84 -28 97 -38
l24 -19 -97 -7 c-53 -4 -112 -14 -130 -22 -19 -8 -43 -14 -53 -14 -10 0 -33
-6 -51 -14 -38 -16 -112 -37 -216 -61 -89 -21 -221 -17 -270 9 -41 21 -33 36
18 36 22 0 56 7 77 16 21 9 52 22 68 29 17 7 46 19 65 28 19 8 49 21 65 28
120 51 278 62 403 29z m418 -269 c104 -55 164 -137 164 -226 0 -47 -24 -150
-38 -169 -5 -6 -12 -23 -16 -38 -10 -43 -29 -35 -22 10 26 156 15 235 -43 301
-60 68 -174 96 -299 72 -24 -5 -49 -17 -56 -26 -17 -24 -146 -32 -241 -15 -39
7 -90 14 -115 17 -66 6 -90 12 -90 23 0 6 23 10 51 10 31 0 56 6 65 15 11 11
37 15 92 15 43 0 93 5 112 11 63 19 163 28 280 25 95 -3 122 -7 156 -25z
m-2608 -121 c43 -11 103 -30 133 -41 30 -11 68 -24 84 -29 39 -11 91 -29 133
-46 18 -8 39 -14 47 -14 15 0 45 -27 45 -41 0 -17 -79 -49 -122 -49 -24 0 -61
-9 -82 -19 -42 -22 -54 -20 -110 21 -21 15 -47 28 -56 28 -34 0 -126 35 -164
62 -21 15 -46 28 -55 28 -27 1 -126 55 -129 71 -4 21 72 47 141 48 32 1 93 -8
135 -19z m1705 -44 c-2 -29 -52 -110 -96 -158 -12 -13 -37 -42 -54 -65 -37
-46 -60 -53 -130 -42 -29 4 -65 3 -91 -4 -36 -10 -45 -9 -53 3 -25 38 28 184
80 219 33 21 120 51 151 51 14 0 48 7 75 15 28 7 66 13 85 12 32 -2 35 -4 33
-31z m181 -3 c11 -7 28 -15 36 -18 8 -4 30 -13 48 -21 23 -10 74 -14 176 -14
143 0 143 0 184 -30 41 -30 93 -98 85 -112 -2 -4 -24 7 -49 25 -40 28 -53 32
-108 31 -93 -1 -160 -51 -208 -154 -58 -126 -62 -135 -66 -116 -2 10 1 37 7
60 33 133 35 143 21 177 -17 44 -37 66 -84 96 -47 30 -96 82 -96 101 0 12 3
12 16 1 9 -7 26 -19 38 -26z m-2189 -83 c16 -25 25 -54 25 -79 0 -33 -7 -46
-47 -87 -27 -27 -81 -76 -122 -109 -81 -66 -134 -131 -176 -215 -45 -91 -57
-113 -94 -170 -19 -30 -42 -66 -49 -80 -22 -39 -52 -151 -52 -192 0 -68 -40
-168 -89 -222 -58 -64 -135 -94 -311 -121 -58 -9 -120 -23 -138 -31 -18 -8
-38 -14 -44 -14 -37 0 -120 -102 -142 -173 -4 -13 -12 -16 -31 -11 -14 3 -46
-1 -74 -12 -47 -17 -50 -17 -82 2 -19 11 -39 29 -44 41 -6 11 -17 29 -25 38
-9 10 -14 40 -15 75 0 60 11 79 101 175 53 57 171 200 226 275 30 42 63 82 73
90 17 14 18 13 11 -10 -27 -86 -48 -213 -39 -233 9 -20 12 -18 31 27 12 27 22
52 22 57 0 5 13 37 29 71 16 35 31 70 35 78 3 8 15 29 26 45 11 17 23 37 27
45 10 22 65 103 80 118 7 7 13 18 13 23 0 5 9 9 20 9 14 0 20 -7 20 -23 0 -13
5 -49 11 -80 13 -61 33 -76 42 -29 7 37 25 85 62 162 70 146 135 221 250 290
32 19 75 49 95 65 21 17 79 62 130 100 51 39 113 87 137 108 57 48 76 47 108
-3z m195 -63 c120 -60 150 -91 150 -157 0 -36 -23 -40 -61 -12 -13 10 -41 27
-62 37 -53 27 -97 74 -113 121 -8 21 -14 40 -14 42 -1 10 46 -4 100 -31z m494
-119 l30 -57 -17 -117 c-19 -133 -30 -154 -87 -154 -49 0 -53 7 -26 44 21 27
25 47 31 152 5 86 4 128 -5 144 -16 29 -5 52 22 48 16 -2 32 -20 52 -60z
m-191 -1 c39 -27 47 -55 51 -165 4 -110 -2 -117 -70 -83 -50 25 -52 31 -24 49
23 14 26 35 6 51 -8 6 -17 33 -20 59 -4 26 -12 62 -17 79 -19 59 1 62 74 10z
m298 20 c1 -3 18 -162 25 -239 10 -100 -18 -148 -84 -148 -40 1 -45 16 -18 56
25 37 26 43 26 190 0 83 3 154 6 157 5 5 42 -8 45 -16z m1759 -40 c101 -28
140 -65 140 -134 0 -122 -139 -324 -210 -306 -20 5 -83 71 -93 97 -3 8 1 20 9
26 11 10 20 9 41 -5 14 -10 43 -18 64 -19 45 -1 75 24 107 88 31 62 29 101 -8
138 -27 27 -36 30 -71 25 -22 -3 -55 -17 -74 -32 -28 -21 -35 -33 -35 -61 0
-42 -20 -45 -50 -7 -17 21 -20 35 -15 62 8 45 59 109 99 127 38 16 40 16 96 1z
m432 -62 c-12 -22 -27 -2 -18 22 5 12 10 13 17 6 7 -7 8 -17 1 -28z m-1342
-119 c0 -84 2 -94 19 -99 29 -7 43 -40 27 -62 -11 -15 -16 -16 -37 -5 -13 8
-51 13 -86 12 -54 -2 -62 1 -68 18 -4 14 3 32 22 58 41 52 93 140 93 155 0 8
3 17 6 20 17 17 24 -12 24 -97z m1310 52 c-1 -26 -3 -30 -10 -16 -6 9 -7 23
-4 32 9 25 14 19 14 -16z m-1026 -67 c95 -44 173 -52 276 -30 28 6 54 8 58 5
13 -13 -23 -83 -73 -144 -31 -37 -64 -93 -81 -135 -29 -72 -79 -134 -139 -172
-89 -57 -195 -101 -195 -80 0 2 32 56 71 119 64 105 71 121 71 167 -1 32 -7
58 -16 68 -9 10 -16 21 -16 25 0 5 -13 25 -30 46 -34 43 -49 112 -30 135 17
20 55 19 104 -4z m2465 -44 c38 -25 41 -31 41 -72 0 -37 -5 -49 -34 -77 -19
-18 -57 -42 -86 -53 -28 -11 -56 -26 -62 -32 -16 -19 -28 -16 -28 8 0 12 16
39 35 60 40 45 43 59 15 84 -19 17 -25 18 -63 6 -121 -35 -167 -35 -244 0 -41
20 -61 46 -46 59 10 9 127 39 173 44 19 2 85 3 147 2 102 -2 115 -4 152 -29z
m299 -147 c48 -73 138 -183 201 -245 40 -38 78 -81 85 -95 58 -110 86 -171 86
-183 0 -8 6 -20 14 -27 8 -6 16 -26 18 -43 2 -18 8 -30 13 -27 12 6 12 60 0
109 l-8 34 24 -16 c13 -10 65 -55 116 -102 94 -88 96 -90 138 -225 39 -129
118 -311 166 -385 10 -16 24 -43 30 -58 8 -20 15 -25 22 -18 7 7 6 23 -3 53
-15 52 -39 151 -47 196 -6 37 12 44 27 10 6 -13 14 -30 19 -38 13 -21 65 -137
86 -190 9 -25 23 -58 30 -75 7 -16 21 -50 31 -75 17 -41 31 -67 79 -153 9 -16
15 -31 12 -33 -7 -7 -79 26 -136 64 -31 20 -64 41 -73 47 -188 115 -407 301
-477 405 -41 60 -81 135 -81 150 0 19 -63 143 -100 199 -48 71 -228 303 -250
321 -8 6 -91 119 -107 145 -56 90 -63 118 -37 166 10 20 15 58 16 107 0 43 2
81 5 86 6 8 72 -60 101 -104z m-951 3 c-4 -43 -22 -103 -47 -158 -5 -11 -11
-41 -15 -67 -7 -52 -12 -55 -55 -33 -44 23 -45 78 -1 134 39 52 80 118 91 146
16 43 32 30 27 -22z m123 22 c16 -19 4 -141 -16 -170 -15 -21 -19 -125 -5
-125 13 0 21 26 21 68 1 20 7 48 15 62 8 14 14 42 15 63 0 70 70 103 98 45 10
-22 10 -36 -4 -85 -8 -32 -18 -95 -21 -141 -8 -114 -38 -140 -101 -87 -26 22
-32 23 -61 12 -70 -26 -112 39 -78 122 8 20 25 70 38 111 35 115 47 140 68
140 10 0 24 -7 31 -15z m-2252 -89 c73 -47 122 -114 122 -168 0 -33 -8 -45
-62 -98 -52 -52 -62 -66 -62 -96 0 -61 19 -69 151 -67 124 1 194 15 352 67 75
24 102 39 138 73 24 24 46 43 48 43 13 0 3 -56 -15 -85 -21 -34 -60 -54 -155
-78 -160 -42 -202 -47 -345 -46 -128 1 -147 3 -170 21 -38 30 -53 103 -35 175
7 29 4 34 -19 44 -47 22 -43 89 5 89 29 0 23 17 -10 28 -41 15 -48 45 -19 88
12 18 26 34 31 34 4 0 24 -11 45 -24z m2550 0 c2 -10 -5 -38 -17 -61 -25 -50
-19 -74 20 -82 39 -8 46 -21 22 -45 -18 -17 -37 -25 -118 -44 -36 -9 -59 19
-57 67 3 55 31 148 51 172 21 25 94 20 99 -7z m-1452 -284 c-21 -81 -21 -308
0 -421 9 -47 13 -102 10 -123 -12 -74 -62 -156 -82 -135 -3 2 2 27 11 54 17
53 17 154 0 160 -9 3 -120 -155 -138 -197 -4 -8 -11 -22 -16 -30 -5 -8 -12
-23 -15 -33 -3 -10 -10 -15 -16 -12 -13 8 -13 56 0 91 6 14 15 54 20 88 12 78
32 158 78 311 35 119 118 323 147 364 17 25 18 -51 1 -117z m-136 58 c0 -11
-6 -37 -13 -57 -8 -21 -21 -63 -31 -93 -17 -56 -37 -110 -61 -165 -24 -58 -65
-167 -85 -229 -23 -71 -50 -219 -50 -271 0 -28 -3 -55 -6 -58 -4 -3 -27 12
-52 33 -25 22 -52 40 -61 40 -21 0 -56 24 -130 90 -62 54 -125 88 -168 89 -34
1 -56 50 -41 93 6 18 16 40 23 48 23 29 37 78 33 121 -3 43 -2 44 34 53 53 13
122 -9 156 -50 15 -18 43 -63 61 -99 34 -67 53 -78 59 -35 4 26 19 52 74 126
21 28 48 82 61 120 12 38 29 81 37 95 17 31 141 168 153 168 4 1 7 -8 7 -19z
m-2619 -284 c37 -7 115 -37 175 -66 86 -42 123 -54 179 -60 90 -9 167 -46 233
-114 54 -54 112 -158 112 -200 0 -14 7 -44 16 -66 26 -64 13 -76 -40 -39 -40
28 -52 32 -113 32 -52 -1 -82 -7 -128 -28 -47 -21 -68 -25 -100 -20 -22 3
-128 10 -235 14 -152 5 -203 10 -232 24 -46 21 -109 82 -172 167 -51 68 -124
140 -141 140 -5 0 -23 10 -39 23 l-28 23 53 34 c30 19 57 36 60 38 4 2 20 -19
37 -46 37 -61 76 -89 154 -113 77 -24 113 -24 154 2 39 24 37 41 -4 30 -30 -8
-113 10 -140 30 -65 49 -112 108 -112 141 0 26 117 65 200 67 25 0 75 -5 111
-13z m925 -22 c76 -24 113 -44 199 -108 44 -33 82 -63 85 -66 3 -4 34 -27 70
-52 126 -88 210 -111 535 -148 161 -18 272 -65 355 -150 86 -87 114 -206 73
-311 -14 -36 -17 -86 -19 -279 -2 -281 -11 -328 -83 -429 -35 -48 -129 -114
-191 -133 -159 -49 -356 -61 -475 -29 -110 30 -145 49 -204 110 -51 52 -92
131 -69 131 5 0 31 -18 57 -40 46 -39 71 -50 71 -31 0 6 -5 13 -10 16 -6 3
-33 53 -60 110 -50 104 -50 104 -50 205 0 81 -4 108 -20 140 -28 54 -70 101
-148 162 -167 129 -216 215 -267 463 -22 104 -44 180 -67 232 -23 50 -91 121
-124 129 -34 9 -30 27 9 43 125 53 240 65 333 35z m-1521 -84 c8 -14 -100 -96
-172 -131 -56 -26 -251 -69 -314 -69 -31 0 -21 23 24 56 55 40 117 64 169 64
58 0 164 32 248 75 32 17 37 17 45 5z m5621 -216 c23 -43 62 -117 85 -163 36
-69 58 -97 132 -164 76 -71 197 -213 197 -233 0 -9 52 -73 113 -139 47 -51 53
-63 20 -47 -10 5 -35 18 -56 28 -20 10 -47 28 -60 39 -90 83 -252 227 -293
260 -66 54 -108 100 -127 138 -34 73 -47 109 -47 135 -1 15 -7 54 -15 87 -18
74 -20 148 -3 143 6 -2 30 -40 54 -84z m-5513 -14 c34 -16 76 -42 92 -58 63
-60 168 -144 192 -153 65 -24 -21 -53 -190 -65 l-99 -6 34 -21 c52 -32 218
-50 343 -36 55 6 130 17 166 25 81 19 267 14 320 -7 78 -31 90 -69 37 -114
-32 -27 -188 -105 -210 -105 -7 0 -30 -6 -53 -14 -113 -40 -342 -54 -460 -28
-117 25 -175 44 -265 84 -44 20 -300 147 -320 158 -8 5 -51 30 -95 56 -88 52
-215 144 -215 156 0 4 17 10 38 13 71 12 137 27 175 41 20 8 55 21 77 29 22 8
57 21 78 29 90 34 142 45 214 45 66 1 87 -3 141 -29z m4157 -166 c128 -27 275
-77 302 -101 17 -15 14 -20 -40 -82 -31 -36 -62 -70 -68 -76 -15 -14 -123
-160 -158 -214 -15 -24 -52 -89 -80 -145 -87 -168 -123 -214 -221 -279 -79
-52 -153 -127 -221 -223 -125 -177 -183 -229 -280 -254 -46 -12 -58 -11 -130
10 -52 15 -120 25 -199 29 -139 7 -172 21 -219 91 -50 74 -59 158 -38 365 11
116 10 139 -14 338 -8 66 10 179 38 243 23 53 87 125 129 145 103 51 105 51
338 60 243 10 283 15 376 48 33 12 92 29 130 37 39 9 72 18 74 20 11 11 215 2
281 -12z m910 -74 c70 -10 174 -50 235 -90 17 -11 37 -23 45 -27 35 -18 127
-82 139 -97 12 -15 10 -21 -20 -52 -36 -38 -134 -116 -159 -127 -8 -4 -22 -11
-30 -15 -101 -57 -166 -72 -325 -72 -84 1 -166 6 -205 15 -39 8 -122 14 -205
15 -118 0 -149 -3 -195 -21 -30 -11 -59 -25 -64 -30 -13 -12 -36 -11 -36 2 0
25 132 185 165 200 11 5 34 18 50 29 17 11 37 23 45 26 27 11 85 37 105 47 11
6 33 13 48 16 15 3 29 11 30 16 4 18 -55 17 -95 -1 -61 -27 -68 -4 -11 37 158
114 310 154 483 129z m-3720 -323 c26 -21 75 -90 93 -132 20 -46 23 -119 15
-390 -5 -198 -9 -213 -71 -285 -22 -25 -43 -55 -48 -67 -5 -13 -13 -23 -18
-23 -10 0 -41 61 -41 80 0 12 -26 64 -46 90 -61 80 -104 204 -104 297 0 62 5
84 31 137 17 35 41 74 52 87 55 60 97 140 97 184 0 37 13 44 40 22z m4342 -87
c31 -11 72 -29 90 -39 116 -69 213 -119 246 -126 32 -7 33 -8 17 -25 -10 -11
-31 -22 -48 -26 -18 -4 -48 -13 -67 -21 -77 -33 -106 -46 -132 -59 -36 -19
-53 -18 -138 12 -41 14 -84 28 -95 31 -11 4 -23 11 -26 16 -4 5 -12 8 -18 6
-15 -5 57 -79 75 -79 13 0 57 -41 51 -47 -2 -2 -37 -12 -78 -23 -100 -26 -249
-26 -344 0 -108 30 -150 46 -282 111 -135 67 -157 89 -90 89 58 1 252 27 307
41 72 19 122 38 245 95 149 69 195 77 287 44z m-1502 -296 c0 -3 -13 -26 -30
-51 -16 -24 -30 -48 -30 -53 0 -4 -6 -21 -14 -37 -8 -15 -22 -55 -31 -88 -9
-33 -21 -73 -27 -90 -5 -16 -13 -43 -18 -60 -19 -76 -76 -159 -294 -439 -56
-72 -126 -201 -126 -233 0 -10 -4 -24 -9 -32 -11 -16 -23 8 -98 189 -25 61
-26 200 0 227 9 11 17 24 17 29 0 6 21 30 46 54 56 55 121 139 153 200 57 105
81 130 178 176 50 24 96 44 101 44 10 0 45 35 122 123 39 42 60 57 60 41z
m-2585 -146 c18 -148 105 -309 230 -427 62 -58 63 -82 2 -56 -20 8 -57 15 -82
15 -82 0 -149 40 -185 110 -50 98 -35 410 20 410 5 0 11 -24 15 -52z m1152
-158 c24 -19 25 -22 26 -169 0 -124 -2 -154 -16 -175 -24 -36 -45 -33 -52 7
-5 23 -24 51 -61 86 -35 34 -54 61 -54 75 0 57 83 196 117 196 8 0 26 -9 40
-20z m-1280 -276 c15 -14 37 -30 48 -35 11 -5 27 -13 35 -18 17 -10 71 -30
149 -56 30 -9 67 -26 82 -37 32 -24 54 -86 45 -125 -4 -15 -10 -40 -13 -56 -3
-15 -9 -30 -14 -33 -6 -3 -44 28 -87 69 -86 83 -110 97 -200 123 -86 24 -122
58 -122 115 0 39 21 79 41 79 4 0 21 -12 36 -26z m1120 -50 c13 -8 32 -33 44
-56 23 -45 23 -66 -1 -227 -13 -85 -30 -113 -83 -137 -35 -16 -44 -16 -100 -3
-44 10 -126 14 -280 14 l-218 0 -40 42 c-36 39 -39 47 -39 98 0 94 46 136 195
179 33 9 74 22 90 28 17 5 46 14 65 18 19 4 49 13 65 18 122 41 178 52 240 44
22 -2 50 -11 62 -18z m508 -28 c13 -9 43 -16 66 -16 51 0 108 -26 121 -56 18
-39 1 -90 -41 -123 -22 -17 -45 -31 -52 -31 -20 0 -121 -30 -159 -48 -19 -9
-51 -28 -70 -42 -93 -69 -213 -65 -226 8 -8 44 3 90 55 232 18 48 57 78 120
91 55 12 158 3 186 -15z m-1688 -205 c31 -27 97 -71 147 -96 50 -26 111 -65
134 -88 77 -74 122 -197 72 -197 -21 0 -81 34 -115 67 -58 54 -156 113 -186
113 -22 0 -88 61 -108 100 -27 52 -29 150 -3 150 2 0 29 -22 59 -49z m1856
-199 c15 -16 15 -23 1 -82 -29 -122 -47 -169 -73 -193 -25 -23 -108 -51 -181
-61 -19 -3 -66 -12 -105 -21 -125 -29 -137 -29 -167 -5 -27 21 -28 25 -28 119
0 98 8 125 50 159 49 40 156 67 315 77 61 4 117 11 125 16 24 13 46 10 63 -9z
m238 -18 c15 -69 10 -115 -18 -154 -28 -39 -96 -90 -120 -90 -20 0 -15 28 12
68 14 20 25 43 25 50 0 8 6 26 14 40 7 15 24 49 36 75 24 53 42 56 51 11z
m-1970 -133 c55 -55 70 -64 174 -112 27 -13 69 -43 92 -67 l43 -44 0 -94 c0
-87 10 -156 46 -311 18 -80 18 -160 -1 -213 -45 -126 13 -288 146 -415 61 -57
61 -58 28 -49 -55 14 -287 11 -356 -5 -50 -12 -69 -12 -102 -2 -115 34 -122
73 -95 559 4 62 11 115 16 118 5 3 17 -1 27 -10 18 -17 41 -21 41 -8 0 4 -10
18 -23 32 -49 54 -57 73 -57 140 0 63 -15 124 -60 240 -65 169 -76 254 -39
291 28 28 53 18 120 -50z m984 40 c60 -32 79 -65 78 -135 0 -37 -7 -75 -17
-94 -9 -17 -16 -38 -16 -47 0 -18 -35 -70 -65 -97 -52 -47 -108 -61 -189 -48
-41 7 -75 5 -128 -6 -141 -29 -188 4 -213 150 -4 22 -13 49 -21 60 -20 29 -17
87 6 114 31 38 117 62 222 63 79 0 103 5 158 29 78 33 137 37 185 11z m1028
-323 c4 -88 2 -109 -14 -144 -11 -22 -30 -46 -42 -51 -15 -7 -28 -27 -36 -54
-7 -23 -26 -55 -42 -71 -23 -24 -36 -29 -66 -26 -38 3 -38 3 -34 43 4 48 40
123 84 173 30 34 41 55 85 167 15 37 37 65 53 65 3 0 9 -46 12 -102z m-219
-49 c-35 -89 -212 -299 -251 -299 -7 0 -50 -18 -97 -39 -109 -51 -146 -58
-196 -36 -21 9 -40 25 -43 35 -2 9 -2 60 1 113 4 83 8 99 28 117 19 18 31 21
76 17 29 -2 78 -10 108 -17 49 -12 62 -11 115 5 68 21 97 37 140 76 49 44 119
88 128 80 4 -4 0 -28 -9 -52z m-739 -141 c35 -16 39 -41 16 -128 -26 -99 -44
-140 -77 -173 -31 -31 -23 -29 -96 -31 -35 -1 -64 -8 -75 -18 -29 -25 -80 -48
-107 -48 -36 0 -78 40 -111 107 -16 32 -50 79 -77 104 -61 59 -73 90 -53 133
l16 33 157 8 c86 4 180 11 207 15 79 12 172 11 200 -2z m635 -212 c0 -26 -74
-109 -112 -126 -68 -30 -177 -96 -203 -124 -17 -17 -42 -50 -55 -73 -27 -49
-42 -54 -58 -18 -16 35 -15 66 4 103 18 36 48 59 119 91 108 48 161 78 219
123 69 53 86 58 86 24z m290 -116 c0 -5 -11 -34 -25 -64 -27 -59 -31 -99 -15
-141 14 -36 0 -58 -52 -85 -24 -12 -63 -41 -88 -64 -55 -52 -93 -76 -120 -76
-36 0 -23 40 40 121 33 42 60 82 60 88 0 37 70 144 129 198 35 32 71 43 71 23z
m-1483 -87 c37 -17 148 -95 168 -118 28 -32 209 -157 270 -186 62 -29 82 -34
170 -37 96 -4 101 -3 162 28 49 25 93 64 202 176 76 79 145 144 152 144 10 -1
9 -5 -3 -14 -10 -7 -18 -18 -18 -25 0 -6 -3 -11 -7 -11 -8 0 -22 -22 -67 -100
-11 -19 -30 -53 -43 -75 -12 -22 -27 -49 -32 -61 -16 -36 -120 -141 -159 -161
-77 -39 -284 -83 -391 -83 -44 0 -135 32 -165 58 -27 24 -88 110 -111 157 -34
69 -106 156 -151 183 -24 15 -51 41 -61 59 -17 32 -17 33 7 58 28 30 29 30 77
8z m473 -63 c22 -11 40 -24 40 -29 0 -10 -175 -20 -234 -14 -24 3 -54 16 -71
30 l-30 24 60 -5 c33 -3 78 -2 100 3 65 14 94 12 135 -9z m2278 -1047 c99 -25
170 -76 207 -149 26 -51 30 -72 33 -157 3 -67 0 -102 -8 -112 -10 -12 -42 -15
-156 -15 l-144 0 0 63 c0 53 -4 66 -25 90 -20 21 -35 27 -67 27 -78 0 -128
-53 -113 -120 6 -29 57 -60 98 -60 77 0 259 -68 302 -113 52 -55 60 -85 59
-212 -1 -102 -5 -128 -24 -170 -27 -59 -113 -147 -166 -170 -60 -26 -193 -54
-257 -55 -93 0 -236 41 -287 83 -67 54 -116 177 -108 270 7 87 9 88 167 85
l136 -3 5 -50 c10 -88 36 -115 112 -115 71 0 118 41 118 102 0 34 -4 40 -40
58 -21 11 -47 20 -57 20 -29 0 -165 31 -200 46 -17 8 -36 14 -42 14 -5 0 -32
22 -58 48 -34 34 -53 64 -66 103 -21 69 -21 101 -1 192 19 84 34 117 80 174
93 114 323 172 502 126z m992 -1 c121 -32 188 -86 224 -182 13 -34 16 -70 14
-145 l-3 -100 -150 0 -150 0 2 30 c6 92 -30 145 -98 145 -82 0 -141 -70 -109
-130 13 -25 61 -50 95 -50 80 0 243 -60 293 -108 62 -59 67 -75 67 -217 -1
-123 -2 -133 -28 -180 -63 -113 -141 -167 -287 -199 -127 -28 -258 -15 -367
36 -97 45 -159 159 -157 290 1 98 1 98 165 98 l139 0 6 -24 c3 -14 3 -29 0
-34 -3 -5 0 -26 6 -46 21 -68 111 -88 181 -41 33 23 37 30 37 69 0 53 -24 73
-103 86 -236 39 -327 97 -361 229 -17 64 -17 74 -2 152 21 104 47 161 100 214
104 103 320 151 486 107z m-4598 -20 c6 -6 4 -46 -6 -113 -9 -57 -22 -156 -31
-219 -8 -63 -21 -168 -30 -232 -8 -65 -22 -171 -31 -235 -26 -206 -35 -268
-40 -285 -5 -16 -21 -18 -149 -18 -85 0 -146 4 -150 10 -3 5 1 56 9 112 9 57
23 156 31 220 8 65 22 170 30 233 8 63 22 166 30 227 33 256 39 291 52 303 15
16 269 13 285 -3z m923 9 c24 -5 30 -11 28 -31 -21 -251 -8 -230 -136 -230
-133 0 -137 -3 -147 -106 -5 -43 -13 -115 -19 -159 -25 -176 -41 -292 -45
-330 -7 -66 -28 -229 -32 -243 -3 -10 -38 -12 -151 -10 l-148 3 3 70 c2 39 8
86 12 105 5 19 14 78 19 130 10 98 20 169 47 350 9 58 14 123 12 145 l-3 40
-114 3 -114 3 7 47 c4 26 9 74 12 107 8 92 12 103 37 108 36 7 699 5 732 -2z
m500 -16 c14 -13 25 -32 25 -42 0 -10 7 -31 15 -47 8 -15 15 -33 15 -38 0 -6
6 -24 14 -41 8 -18 16 -41 19 -52 3 -11 15 -45 27 -75 12 -30 25 -66 30 -80
18 -55 42 -102 48 -95 4 4 10 41 13 83 3 42 11 115 18 162 31 218 33 231 54
242 24 13 243 6 257 -8 9 -9 2 -107 -20 -254 -17 -122 -39 -292 -44 -335 -5
-56 -24 -193 -41 -301 -8 -49 -15 -109 -15 -133 0 -81 -1 -81 -170 -81 l-150
0 -20 42 c-11 23 -20 49 -20 58 0 8 -6 24 -14 35 -7 11 -16 31 -19 45 -5 24
-11 40 -57 160 -12 30 -26 70 -31 88 -7 23 -15 32 -27 30 -13 -3 -19 -20 -25
-83 -4 -44 -14 -121 -22 -171 -8 -49 -15 -109 -15 -131 0 -75 4 -73 -156 -73
l-144 0 0 33 c0 17 4 48 10 67 5 19 14 78 19 130 14 128 30 252 42 325 6 34
14 99 19 145 5 47 14 119 19 160 6 41 16 111 22 155 7 50 17 85 27 93 11 8 57
12 144 12 124 0 130 -1 153 -25z m1453 17 c7 -2 12 -21 12 -44 0 -62 -31 -218
-44 -219 -6 0 -92 0 -191 1 -134 1 -184 -2 -196 -12 -18 -14 -33 -106 -20
-126 5 -8 58 -12 166 -14 160 -3 160 -3 163 -27 3 -19 -12 -116 -34 -218 -4
-23 -6 -23 -168 -23 -119 0 -166 -3 -174 -12 -12 -15 -20 -133 -10 -143 3 -4
87 -6 185 -5 131 0 183 -3 195 -12 16 -12 16 -24 7 -117 -5 -57 -14 -112 -20
-122 -9 -18 -27 -19 -359 -19 -192 0 -351 4 -354 8 -5 8 0 54 29 262 8 58 17
123 19 145 6 69 26 218 37 276 5 31 14 99 20 150 5 52 15 132 22 179 11 76 15
85 37 92 26 7 655 8 678 0z"/>
<path d="M3840 7121 c0 -12 29 -23 41 -15 5 3 7 10 4 15 -8 12 -45 12 -45 0z"/>
<path d="M3916 6251 c-6 -10 6 -18 91 -59 63 -31 98 -46 153 -67 25 -9 66 -27
93 -40 26 -13 47 -21 47 -18 0 3 -9 20 -20 38 -37 60 -128 105 -260 130 -36 7
-72 15 -81 19 -10 4 -20 3 -23 -3z"/>
<path d="M3593 5360 c-63 -26 -10 -118 92 -156 36 -14 85 6 85 34 0 10 -21 42
-47 70 -50 55 -88 70 -130 52z"/>
<path d="M5080 6069 c-25 -5 -86 -13 -135 -18 -111 -11 -194 -35 -224 -62 -24
-22 -24 -57 0 -50 23 6 88 19 194 37 146 25 283 73 270 95 -7 11 -43 10 -105
-2z"/>
<path d="M5323 5271 c-40 -11 -85 -60 -81 -89 2 -22 9 -28 35 -30 26 -3 39 4
68 33 19 20 35 45 35 56 0 23 -28 38 -57 30z"/>
<path d="M6255 2215 c-131 -23 -222 -82 -269 -175 -28 -55 -42 -170 -31 -251
6 -45 14 -59 55 -98 45 -44 126 -81 176 -81 10 0 52 -8 93 -17 94 -22 141 -61
141 -118 0 -46 -23 -94 -56 -119 -34 -24 -160 -27 -194 -3 -32 22 -60 72 -60
107 0 17 -4 30 -10 31 -5 0 -48 0 -95 0 -47 0 -90 0 -95 0 -35 -3 -29 -138 8
-206 24 -42 70 -83 122 -107 39 -19 63 -22 195 -22 125 -1 158 2 200 18 145
56 215 163 215 329 0 168 -60 222 -305 272 -105 22 -140 40 -161 87 -16 35
-16 40 0 81 25 66 64 90 149 91 67 0 70 -1 103 -37 28 -30 34 -45 34 -81 0
-25 5 -48 11 -51 21 -13 201 -7 210 7 14 21 10 119 -6 172 -31 103 -94 150
-230 172 -93 16 -106 16 -200 -1z"/>
<path d="M7250 2216 c-139 -22 -233 -87 -282 -196 -15 -35 -20 -69 -21 -151
-2 -99 0 -108 25 -146 42 -63 112 -98 253 -122 134 -24 172 -46 181 -103 10
-62 -3 -103 -42 -133 -31 -24 -45 -27 -108 -28 -57 0 -79 4 -99 19 -30 22 -57
74 -57 109 0 14 -6 25 -12 26 -66 3 -189 0 -198 -6 -20 -12 -5 -159 20 -199
30 -50 68 -84 119 -108 40 -19 64 -22 196 -22 125 -1 159 2 202 18 82 31 143
83 178 151 26 53 30 72 33 161 3 88 1 107 -17 143 -39 76 -109 111 -296 148
-75 15 -94 23 -122 51 -24 24 -33 42 -33 66 0 77 45 129 120 139 105 15 167
-27 172 -118 l3 -50 93 -5 c130 -7 132 -6 132 76 0 84 -16 138 -53 187 -39 50
-95 77 -192 93 -92 16 -95 16 -195 0z"/>
<path d="M2635 2198 c-6 -20 -31 -205 -81 -588 -8 -63 -21 -162 -29 -220 -8
-58 -17 -131 -20 -162 -6 -69 -4 -70 125 -66 l84 3 19 125 c10 69 24 175 32
235 22 170 44 340 60 455 26 188 27 217 9 224 -31 12 -194 7 -199 -6z"/>
<path d="M3106 2197 c-13 -10 -17 -29 -19 -92 l-2 -80 110 -5 110 -5 -1 -40
c-1 -64 -34 -335 -55 -456 -5 -31 -14 -99 -19 -150 -6 -52 -14 -115 -19 -142
-6 -35 -4 -50 5 -58 14 -11 197 -9 208 2 4 3 11 46 16 95 5 49 14 123 20 164
5 41 17 127 26 190 8 63 21 160 30 215 8 55 14 114 14 130 0 49 14 55 126 55
78 0 106 4 117 15 16 16 33 134 23 160 -5 13 -50 15 -339 15 -254 0 -337 -3
-351 -13z"/>
<path d="M4046 2198 c-12 -41 -27 -135 -35 -213 -11 -107 -28 -239 -42 -316
-5 -31 -13 -100 -18 -152 -5 -53 -12 -100 -14 -104 -3 -4 -10 -59 -16 -122
-10 -92 -9 -116 1 -122 7 -5 48 -9 90 -9 95 0 104 8 112 97 3 38 11 94 17 127
5 32 14 106 19 165 17 196 31 229 69 168 12 -19 21 -43 21 -53 0 -11 7 -28 15
-38 8 -11 15 -27 15 -35 0 -9 6 -28 14 -43 8 -15 17 -40 21 -57 4 -17 11 -33
16 -36 5 -4 9 -16 9 -28 0 -13 6 -31 14 -42 7 -11 16 -31 19 -45 4 -22 15 -52
56 -152 l11 -28 109 0 c132 0 137 3 145 97 4 38 13 113 21 168 8 55 17 118 19
140 6 67 26 217 37 276 5 31 14 99 19 150 6 52 14 119 20 149 5 30 6 58 1 63
-4 4 -50 6 -102 5 l-93 -3 -13 -60 c-7 -33 -17 -103 -23 -155 -6 -52 -15 -120
-19 -150 -5 -30 -10 -85 -10 -121 -1 -46 -6 -70 -16 -79 -19 -16 -45 -6 -45
18 0 10 -7 27 -15 38 -8 10 -15 28 -15 40 0 11 -7 29 -15 40 -8 10 -15 28 -15
39 0 11 -6 29 -14 40 -7 11 -16 31 -19 45 -3 14 -15 50 -27 80 -12 30 -25 66
-30 80 -54 156 -47 150 -182 150 -78 0 -110 -3 -112 -12z"/>
<path d="M5111 2201 c-9 -6 -17 -37 -21 -83 -10 -97 -28 -239 -41 -313 -6 -34
-14 -99 -19 -145 -5 -47 -14 -119 -20 -160 -33 -224 -42 -298 -38 -316 3 -18
15 -19 307 -22 168 -1 308 1 313 6 12 12 37 152 31 168 -4 11 -46 14 -203 14
-165 0 -199 2 -204 15 -3 8 1 49 9 91 8 41 15 89 15 104 0 16 6 32 13 37 6 4
86 10 177 13 l165 5 6 65 c3 36 9 72 13 79 16 25 -18 31 -177 31 -123 0 -159
3 -163 14 -3 7 3 58 13 112 l18 99 205 5 205 5 3 25 c1 14 7 52 13 84 8 47 8
61 -3 67 -18 12 -599 11 -617 0z"/>
<path d="M3175 7660 c-8 -13 3 -50 16 -50 12 0 12 47 0 55 -5 3 -12 1 -16 -5z"/>
<path d="M2082 2128 c-49 -48 -81 -87 -78 -95 5 -11 40 -13 178 -11 l172 3 15
83 c12 72 12 85 0 93 -8 5 -57 9 -109 9 l-95 0 -83 -82z"/>
<path d="M1797 1842 l-127 -129 0 -49 c0 -27 -7 -94 -15 -149 -8 -55 -22 -150
-31 -212 -9 -61 -14 -119 -11 -127 5 -13 24 -16 101 -16 118 0 121 3 136 145
17 166 35 283 43 292 5 4 84 10 175 13 l167 5 8 65 c5 36 9 74 10 85 2 19 -5
20 -166 23 -121 2 -169 6 -172 15 -3 6 1 43 10 82 8 38 11 73 7 77 -5 5 -65
-50 -135 -120z"/>
</g>
</svg>
