<?xml version="1.0" standalone="no"?>
<!DOCTYPE svg PUBLIC "-//W3C//DTD SVG 20010904//EN"
 "http://www.w3.org/TR/2001/REC-SVG-20010904/DTD/svg10.dtd">
<svg version="1.0" xmlns="http://www.w3.org/2000/svg"
 width="900.000000pt" height="900.000000pt" viewBox="0 0 900.000000 900.000000"
 preserveAspectRatio="xMidYMid meet">
<metadata>
Created by potrace 1.10, written by Peter Selinger 2001-2011
</metadata>
<g transform="translate(0.000000,900.000000) scale(0.100000,-0.100000)"
fill="#000000" stroke="none">
<path d="M0 4500 l0 -4500 4500 0 4500 0 0 4500 0 4500 -24 0 c-14 0 -26 -6
-28 -14 -2 -8 -306 -320 -677 -693 l-674 -678 -21 30 c-70 100 -147 145 -247
145 -57 0 -71 3 -76 18 -24 64 -133 167 -216 205 -86 39 -217 16 -336 -60 -62
-39 -197 -171 -226 -221 -11 -18 -23 -32 -27 -32 -4 0 -8 -5 -8 -11 0 -6 -12
-28 -27 -48 -16 -20 -37 -52 -48 -71 -10 -19 -29 -53 -42 -75 -12 -22 -26 -47
-29 -55 -3 -8 -20 -44 -37 -80 -43 -91 -47 -102 -99 -245 -30 -80 -40 -111
-49 -149 -18 -74 -24 -79 -89 -73 -32 3 -71 11 -86 19 -27 12 -29 18 -34 88
-8 115 -43 168 -176 271 -55 43 -60 50 -77 115 -25 93 -53 162 -105 259 -21
39 -114 125 -162 149 -69 36 -166 50 -236 36 -33 -6 -76 -18 -97 -27 -33 -14
-39 -14 -55 -1 -63 56 -207 108 -297 108 -87 0 -210 -46 -257 -95 -27 -29 -57
-31 -101 -8 -25 13 -56 17 -137 17 -124 -1 -168 -17 -249 -90 l-52 -47 -60 13
c-121 26 -223 -4 -310 -90 -61 -61 -119 -183 -119 -252 0 -15 -6 -60 -14 -100
-8 -40 -23 -119 -33 -176 -10 -61 -24 -108 -33 -116 -8 -7 -60 -20 -115 -30
-55 -9 -134 -24 -175 -32 -137 -26 -148 -22 -169 62 -10 44 -30 100 -77 227
-43 114 -93 222 -149 322 -19 33 -37 67 -42 75 -4 8 -36 55 -71 105 -194 272
-425 391 -603 311 -30 -13 -67 -35 -83 -48 -32 -26 -109 -124 -119 -150 -5
-14 -18 -18 -64 -18 -86 0 -148 -26 -210 -88 -29 -29 -53 -59 -53 -67 0 -7 -4
-16 -9 -19 -12 -8 -1371 1351 -1371 1370 0 8 -4 14 -10 14 -7 0 -10 -1507 -10
-4500z m2173 3440 c55 -26 145 -96 135 -105 -2 -2 -23 1 -48 7 -76 17 -144
-24 -207 -127 -74 -118 -113 -322 -113 -585 0 -179 19 -410 46 -535 8 -38 14
-81 14 -94 0 -13 6 -47 14 -75 13 -47 26 -99 47 -186 15 -66 42 -151 77 -245
8 -22 20 -56 27 -75 51 -139 112 -275 164 -360 11 -19 24 -42 28 -50 25 -55
156 -202 218 -245 39 -27 128 -55 153 -48 11 2 23 -1 28 -8 9 -15 -51 -71
-108 -100 -65 -33 -204 -18 -259 28 -8 7 -20 13 -26 13 -6 0 -16 7 -23 15 -18
22 -43 18 -70 -10 -39 -42 -95 -65 -156 -65 -76 0 -127 30 -253 149 l-53 51
-31 -23 c-49 -35 -87 -45 -127 -34 -34 9 -79 36 -111 67 -17 16 -126 163 -146
195 -33 56 -124 255 -143 315 -5 14 -18 50 -30 80 -12 30 -26 71 -30 90 -4 19
-13 49 -18 65 -25 71 -62 240 -88 405 -25 156 -25 588 -1 685 55 217 86 255
215 265 69 5 67 4 114 110 48 106 61 129 90 157 56 53 92 65 175 62 l75 -4 24
45 c93 175 247 241 397 170z m4862 4 c52 -24 137 -105 156 -149 12 -27 32 -59
43 -66 4 -4 36 -4 70 -2 109 9 184 -42 242 -165 19 -40 34 -77 34 -84 0 -6 9
-26 21 -44 20 -32 23 -34 79 -34 117 0 162 -51 210 -240 33 -133 36 -526 4
-715 -35 -209 -45 -253 -91 -415 -24 -85 -68 -216 -89 -265 -7 -16 -22 -55
-35 -85 -48 -122 -83 -186 -148 -275 -100 -136 -194 -197 -265 -172 -19 7 -46
22 -61 35 -15 13 -30 22 -35 20 -5 -2 -30 -23 -57 -48 -126 -119 -181 -150
-265 -150 -61 0 -65 2 -115 45 -28 25 -55 45 -60 45 -4 0 -35 -13 -68 -29 -84
-40 -153 -61 -201 -61 -54 0 -126 32 -159 72 -25 30 -26 33 -9 45 10 7 31 13
47 13 73 0 199 94 288 215 59 81 59 80 134 235 95 193 104 215 151 360 88 275
126 449 168 775 18 138 21 459 5 550 -5 33 -14 87 -19 120 -13 86 -34 151 -69
220 -37 73 -81 117 -142 139 -41 16 -49 16 -89 2 -82 -28 -69 1 34 72 25 17
52 32 59 32 7 1 23 7 37 15 41 24 133 19 195 -11z m-2170 -174 c22 -10 55 -35
74 -54 l34 -35 -16 -53 c-21 -70 -37 -170 -47 -293 -5 -55 -13 -143 -19 -195
-32 -285 -34 -336 -16 -407 29 -113 21 -191 -27 -264 -24 -36 -116 -89 -154
-89 -22 0 -114 37 -114 46 0 2 11 9 25 14 30 11 32 26 5 33 -27 7 -25 27 3 24
21 -2 22 1 25 88 4 112 -2 135 -31 135 -16 0 -10 6 22 20 50 23 119 26 146 6
16 -12 19 -28 19 -135 1 -66 4 -121 8 -121 17 0 38 63 38 114 0 71 -18 156
-38 179 -12 14 -32 17 -109 17 -70 0 -94 3 -91 12 3 7 15 15 27 18 33 7 27 24
-11 30 l-33 5 -8 110 c-5 61 -6 231 -3 378 4 258 5 270 26 292 12 12 36 26 53
29 25 5 29 9 17 16 -8 5 -32 10 -52 10 -39 0 -54 22 -23 34 27 10 15 26 -20
26 -19 0 -35 -4 -35 -10 0 -5 -8 -10 -17 -10 -13 0 -12 5 8 26 20 21 30 25 59
19 48 -8 69 -8 115 3 53 11 111 5 160 -18z m-2525 -65 c54 -35 162 -161 206
-240 42 -76 98 -195 129 -275 33 -85 43 -115 61 -170 9 -30 23 -71 31 -91 8
-20 13 -45 11 -55 -4 -26 -46 -31 -54 -7 -3 10 -11 34 -19 53 -7 19 -20 62
-30 95 -84 290 -254 587 -380 665 -41 25 -61 25 -100 -1 -32 -22 -75 -87 -75
-112 0 -8 -7 -20 -15 -27 -10 -8 -15 -31 -16 -64 0 -28 -4 -60 -9 -71 -7 -18
-9 -18 -15 -3 -24 60 32 243 92 300 46 43 118 44 183 3z m4484 -8 c55 -56 96
-159 96 -240 -1 -57 -2 -60 -15 -43 -8 11 -15 32 -15 48 0 27 -4 38 -50 145
-25 56 -66 93 -103 93 -28 0 -86 -40 -139 -96 -38 -41 -128 -172 -128 -188 0
-5 -6 -17 -13 -25 -8 -9 -34 -65 -59 -126 -48 -117 -57 -142 -89 -245 -12 -36
-27 -81 -34 -100 -7 -19 -16 -43 -19 -53 -4 -12 -14 -17 -28 -15 -19 2 -23 9
-21 33 2 45 55 210 99 310 7 17 27 62 44 100 17 39 35 77 40 85 6 8 14 25 20
37 47 109 217 298 285 316 43 12 97 -3 129 -36z m-2516 13 c21 -11 50 -32 64
-48 24 -25 26 -36 31 -147 8 -156 24 -386 42 -605 9 -96 16 -226 17 -289 l1
-114 -38 -33 c-63 -52 -135 -67 -200 -40 -43 18 -45 44 -10 82 16 17 23 34 20
43 -4 9 -11 42 -16 74 -5 32 -15 67 -22 78 -35 56 98 94 146 41 18 -20 47 -94
54 -140 7 -42 21 -50 29 -17 16 66 -27 182 -81 215 -48 30 -86 25 -177 -21
-28 -14 -30 -11 -12 16 9 14 23 25 30 25 21 0 17 20 -9 44 -17 15 -26 42 -36
96 -7 41 -19 116 -27 165 -9 50 -22 126 -29 170 -8 44 -17 100 -20 125 -4 30
-13 51 -28 62 l-22 17 28 10 c15 6 39 18 54 28 l27 18 -48 5 c-50 5 -73 25
-39 36 10 3 32 11 48 19 17 8 39 15 49 17 11 2 19 8 18 13 -2 17 -42 17 -67 1
-27 -18 -61 -21 -69 -7 -6 10 30 36 84 63 51 24 159 23 208 -2z m1006 0 c55
-25 155 -115 177 -162 40 -80 49 -109 49 -152 0 -47 -7 -54 -39 -37 -15 8 -30
36 -55 101 -3 8 -10 22 -15 30 -5 8 -12 23 -15 33 -11 36 -27 6 -20 -39 8 -54
-8 -59 -52 -13 -37 39 -98 79 -122 79 -10 0 -23 5 -30 12 -6 6 -38 12 -69 13
-47 0 -58 4 -61 19 -2 9 2 25 10 34 14 17 32 53 42 85 8 26 137 24 200 -3z
m-1496 -116 c32 -22 66 -96 86 -189 10 -44 24 -103 32 -131 8 -28 14 -60 14
-71 0 -11 7 -40 15 -63 10 -27 12 -48 6 -58 -8 -14 -11 -12 -16 10 -9 33 -52
53 -100 44 -19 -4 -35 -11 -35 -16 0 -6 -8 -10 -17 -10 -13 0 -14 3 -5 12 16
16 15 43 -1 60 -14 15 -40 57 -87 142 -26 48 -31 66 -26 97 5 30 3 39 -8 39
-23 0 -29 19 -9 27 10 4 23 12 28 19 6 6 24 15 40 19 29 7 29 8 8 17 -26 12
-89 -9 -140 -48 -37 -28 -43 -29 -43 -10 0 19 56 77 100 103 43 26 126 30 158
7z m1495 -146 c57 -51 76 -76 91 -117 17 -47 17 -53 2 -76 -35 -53 -69 -54
-144 -4 -24 16 -47 29 -51 29 -16 0 -81 71 -81 88 0 17 13 53 45 128 16 40 18
41 42 29 13 -7 57 -42 96 -77z m-173 68 c0 -7 -11 -34 -25 -60 -49 -92 -20
-191 70 -243 95 -55 172 -68 210 -35 27 24 55 75 55 101 0 47 64 32 140 -34
19 -16 63 -50 97 -75 65 -48 93 -84 93 -121 0 -12 7 -30 15 -39 14 -15 14 -42
0 -261 -15 -231 -27 -310 -62 -404 -34 -90 -81 -171 -137 -232 -79 -86 -241
-209 -346 -261 -25 -13 -52 -27 -60 -32 -32 -19 -128 -59 -185 -78 -134 -43
-204 -55 -338 -55 -148 0 -194 14 -272 80 -37 31 -40 33 -43 14 -2 -11 9 -45
24 -75 30 -61 28 -77 -8 -52 -14 10 -44 16 -83 16 -74 1 -216 23 -270 43 -92
35 -153 75 -230 152 -70 70 -165 206 -165 235 0 5 -6 21 -14 37 -61 124 -62
168 -1 186 20 6 53 18 155 57 30 12 66 25 80 30 14 5 50 18 80 30 97 39 113
38 169 -12 62 -56 128 -78 232 -78 71 0 96 -9 70 -24 -22 -14 -82 -179 -73
-204 6 -18 22 -4 22 19 0 10 4 19 9 19 5 0 19 19 30 43 24 50 95 127 117 127
8 0 40 -9 71 -20 32 -11 72 -20 89 -20 74 0 166 66 267 193 l38 47 82 0 c57 0
89 -5 104 -15 20 -14 22 -13 32 17 14 39 28 28 33 -26 5 -64 28 -58 28 8 0 67
13 78 36 31 27 -57 101 -125 135 -125 8 0 6 7 -4 18 -10 10 -17 23 -17 29 0 6
-6 16 -14 22 -7 6 -19 31 -26 55 -13 46 -6 85 26 149 8 16 14 34 14 40 0 27
44 57 83 57 30 0 45 7 65 28 15 16 37 34 50 41 42 22 23 31 -70 31 -84 0 -99
3 -158 32 -155 76 -262 198 -311 353 -10 33 -19 80 -19 105 0 52 29 123 57
139 25 15 53 14 53 -3z m1801 -173 c2 -21 2 -54 -1 -73 -6 -35 -6 -34 -13 14
-9 65 -9 96 2 96 5 0 10 -17 12 -37z m-4894 -80 c-3 -10 -5 -2 -5 17 0 19 2
27 5 18 2 -10 2 -26 0 -35z m2992 -175 c11 -24 21 -49 23 -56 3 -14 -79 -48
-90 -37 -3 3 0 20 6 38 7 19 12 48 12 65 0 46 24 41 49 -10z m-1132 0 c18 -25
42 -94 49 -143 3 -27 8 -45 10 -40 2 6 8 30 15 55 10 37 13 42 20 25 9 -25 11
-78 3 -100 -10 -24 -78 -55 -124 -55 -26 0 -54 9 -78 24 -41 27 -92 79 -92 94
0 5 -7 15 -15 22 -8 7 -15 19 -15 26 0 8 7 14 15 14 8 0 15 -6 15 -14 0 -8 24
-35 52 -60 46 -40 58 -46 99 -46 25 0 48 3 52 6 3 3 0 20 -7 38 -22 51 -46
130 -46 149 0 20 33 23 47 5z m-1388 -132 c13 -14 18 -26 12 -30 -5 -4 -12 -2
-16 4 -11 18 -44 11 -57 -12 -18 -33 -13 -273 7 -363 32 -136 57 -215 94 -295
45 -95 77 -112 125 -64 19 20 26 23 26 11 0 -9 -4 -19 -10 -22 -5 -3 -10 -13
-10 -21 0 -19 -39 -53 -61 -54 -9 0 -39 20 -66 45 -99 88 -193 345 -193 525 0
24 5 73 10 109 6 36 13 80 16 98 6 42 49 93 78 93 12 0 33 -11 45 -24z m4045
-19 l31 -39 0 -191 c0 -156 -3 -204 -18 -257 -41 -145 -119 -281 -185 -322
-33 -20 -36 -21 -67 -4 -21 12 -36 30 -43 52 -12 39 -2 44 28 14 27 -27 42
-25 71 8 92 103 182 501 151 666 -11 55 -24 67 -64 59 -35 -7 -38 17 -5 41 34
24 66 15 101 -27z m-1467 11 c15 -14 23 -33 24 -57 0 -20 4 -45 9 -56 7 -19 8
-18 13 5 4 14 8 34 9 44 4 28 21 29 52 5 29 -23 29 -27 9 -106 -14 -55 -76
-119 -133 -138 -57 -19 -80 -10 -80 29 0 11 -5 28 -10 36 -6 10 -4 20 7 32 13
14 15 35 11 110 -3 51 -3 99 -1 106 7 20 65 14 90 -10z m-1413 -94 c42 -37 76
-70 76 -74 0 -8 -226 -40 -281 -40 -36 0 -164 -22 -266 -46 -34 -8 -72 -14
-85 -14 -12 0 -52 -6 -88 -14 -36 -8 -99 -22 -140 -30 -41 -8 -109 -22 -150
-30 -41 -9 -94 -16 -117 -16 -44 0 -63 -14 -44 -33 6 -6 11 -19 11 -29 0 -10
13 -32 28 -49 l28 -32 55 13 c157 35 425 87 589 114 177 29 554 77 598 76 15
0 22 -6 22 -19 0 -22 -21 -29 -115 -36 -158 -12 -415 -46 -575 -77 -30 -6 -79
-14 -108 -18 -29 -5 -74 -13 -100 -19 -26 -5 -85 -17 -132 -26 -47 -9 -114
-22 -150 -30 -97 -22 -115 -20 -142 17 -36 52 -57 126 -58 206 0 71 1 73 33
92 17 11 48 22 67 25 19 3 67 12 105 20 39 8 104 21 145 29 94 19 215 40 345
60 398 60 355 62 449 -20z m2316 -24 c30 -5 75 -13 100 -18 25 -6 77 -18 115
-26 39 -9 79 -16 91 -16 37 0 114 -32 125 -52 14 -26 6 -164 -13 -211 -8 -21
-27 -52 -42 -69 -22 -25 -32 -29 -59 -25 -57 9 -151 28 -203 43 -28 8 -62 14
-75 14 -13 1 -52 8 -85 18 -115 32 -70 56 53 28 40 -9 108 -23 150 -32 43 -9
96 -20 117 -24 57 -13 89 7 109 67 9 26 13 51 11 55 -3 4 -24 8 -47 8 -23 0
-73 7 -112 16 -105 23 -195 42 -240 49 -21 4 -52 13 -67 21 -26 14 -28 19 -28
78 0 78 7 99 29 91 9 -4 41 -10 71 -15z m-2692 -520 c21 -256 72 -449 159
-605 13 -22 27 -50 32 -62 5 -11 15 -24 20 -28 14 -8 15 -135 1 -135 -5 0
-117 108 -249 240 l-239 240 -6 138 c-3 75 -12 173 -20 217 -14 77 -14 81 5
97 11 9 41 20 67 23 26 3 76 12 112 20 111 23 103 33 118 -145z m-2277 95 c4
-16 9 -54 13 -83 5 -49 3 -53 -19 -62 -23 -9 -24 -13 -18 -62 4 -29 12 -59 20
-66 7 -7 13 -19 13 -27 0 -7 14 -25 30 -38 37 -31 38 -47 5 -47 -18 0 -28 7
-35 24 -5 13 -14 27 -19 31 -6 3 -11 17 -11 29 0 13 -6 29 -14 35 -23 19 -44
230 -27 274 15 39 52 34 62 -8z m4933 13 c16 -9 18 -17 12 -62 -7 -54 -25
-297 -26 -355 0 -32 -29 -64 -377 -412 -207 -208 -380 -376 -385 -373 -4 3 -8
74 -8 157 1 129 3 155 18 172 9 12 73 63 142 114 206 154 380 340 441 471 24
51 51 126 58 160 7 30 20 79 37 138 4 14 51 9 88 -10z m2046 1 c19 -34 -6
-269 -28 -277 -7 -2 -12 -17 -12 -32 0 -16 -5 -32 -11 -35 -5 -4 -14 -18 -19
-31 -6 -14 -18 -24 -29 -24 -33 0 -33 17 -1 43 16 14 30 31 30 38 0 7 6 20 14
28 7 9 16 40 18 69 5 49 3 54 -19 63 -20 7 -23 14 -19 41 3 18 8 53 11 77 3
24 8 48 11 53 10 16 43 8 54 -13z m-5123 -41 c4 -7 11 -47 14 -88 34 -439 34
-420 15 -556 -27 -198 -77 -332 -143 -384 -37 -29 -112 -27 -161 4 -57 37
-162 159 -162 189 0 8 -7 17 -15 21 -17 6 -21 36 -5 36 6 0 14 -8 17 -17 4
-10 12 -22 20 -26 7 -4 13 -12 13 -18 0 -12 123 -138 158 -161 44 -29 80 -23
122 21 44 46 65 101 90 241 22 118 27 347 9 465 -5 39 -14 113 -18 165 -9 96
-4 120 25 120 7 0 16 -6 21 -12z m3251 0 c10 -13 3 -147 -18 -318 -29 -245 3
-516 75 -637 23 -37 63 -63 98 -63 24 0 102 50 124 79 6 9 27 34 47 56 20 22
36 45 36 52 0 7 6 16 13 20 8 4 16 16 20 26 3 9 11 17 17 17 12 0 13 -27 1
-34 -5 -4 -19 -25 -30 -49 -27 -55 -104 -142 -152 -173 -58 -36 -127 -34 -173
6 -59 52 -94 143 -121 310 -24 151 -28 255 -15 395 6 72 15 170 20 219 4 57
12 91 21 97 19 12 25 11 37 -3z m445 -744 c-4 -10 -9 -12 -15 -6 -12 12 -1 35
12 27 5 -3 6 -13 3 -21z m-1501 -573 c-1 -271 -7 -481 -12 -491 -23 -42 -300
-80 -580 -80 -188 0 -474 21 -488 35 -8 8 -4 910 4 938 4 14 17 17 69 17 85 0
102 -17 109 -109 3 -36 13 -118 21 -181 8 -63 15 -134 15 -157 0 -23 7 -75 15
-115 8 -40 17 -90 20 -112 4 -21 9 -36 12 -33 3 3 8 156 12 339 l6 333 60 0
c81 0 85 -8 85 -200 1 -129 12 -252 20 -220 2 6 6 102 9 215 l6 205 130 6
c172 8 339 38 420 74 17 8 39 13 50 12 20 -2 20 -8 17 -476z m-2741 -926 c60
-22 104 -67 123 -128 14 -46 16 -125 14 -682 l-3 -630 -115 0 -115 0 -3 298
c-2 258 -4 297 -17 297 -19 0 -147 -69 -157 -84 -4 -6 -8 -125 -8 -264 l0
-253 -112 3 -113 3 -3 630 c-2 542 0 637 13 682 18 62 64 111 121 129 60 18
322 18 375 -1z m940 -6 c16 -32 8 -187 -11 -199 -8 -5 -61 -10 -117 -10 l-103
0 0 -615 0 -616 -112 3 -113 3 -5 610 -5 610 -99 3 c-55 1 -106 8 -113 14 -17
14 -18 189 -1 206 9 9 98 12 340 12 323 0 327 0 339 -21z m754 -1 c3 -13 5
-63 3 -113 l-3 -90 -112 -3 c-81 -2 -113 -6 -113 -15 0 -7 -1 -282 -3 -612
l-2 -600 -110 0 -110 0 -5 610 -5 610 -110 5 -110 5 -3 99 c-1 55 0 106 2 113
4 10 72 13 340 13 l336 0 5 -22z m616 10 c50 -17 87 -45 115 -89 l24 -39 0
-298 0 -298 -67 -34 c-38 -19 -70 -36 -72 -38 -6 -3 15 -62 51 -142 44 -97 55
-121 76 -170 31 -70 75 -168 122 -272 12 -26 19 -52 15 -58 -4 -6 -53 -10
-121 -10 l-114 0 -36 78 c-19 42 -42 93 -51 112 -8 19 -19 42 -23 51 -5 9 -27
61 -50 115 -23 54 -46 104 -50 109 -4 6 -10 22 -14 38 -8 34 -51 39 -61 7 -4
-12 -7 -130 -8 -263 l-2 -242 -112 -3 -113 -3 0 724 c0 398 3 727 7 730 12 12
447 8 484 -5z m810 0 c50 -17 98 -56 120 -99 18 -37 19 -65 19 -694 l0 -656
-112 3 -113 3 -3 293 c-2 240 -5 294 -16 298 -14 6 -118 -46 -146 -73 -12 -11
-16 -59 -20 -266 l-5 -252 -104 -3 c-77 -2 -107 1 -113 10 -9 15 -11 1161 -1
1261 5 62 10 72 50 117 28 32 56 51 81 58 53 14 322 15 363 0z m810 0 c52 -17
96 -56 119 -102 17 -34 20 -56 18 -130 l-3 -90 -50 -24 c-27 -13 -57 -28 -65
-33 -29 -17 -83 -39 -96 -39 -10 0 -14 24 -16 98 l-3 97 -85 0 -85 0 -3 -495
c-3 -567 -11 -520 95 -520 76 0 83 9 83 108 0 48 4 73 14 81 24 20 205 108
211 103 3 -3 5 -84 5 -179 0 -157 -2 -178 -21 -215 -23 -46 -42 -66 -81 -91
-23 -14 -56 -17 -216 -17 l-189 0 -40 29 c-22 16 -51 46 -64 68 l-24 38 0 595
0 595 26 37 c32 47 66 74 110 86 49 14 319 15 360 0z m919 -7 c14 -28 13 -173
-2 -194 -10 -13 -34 -17 -113 -19 l-100 -3 -5 -610 -5 -610 -112 -3 -113 -3
-2 613 -3 613 -104 3 c-58 1 -111 8 -118 14 -17 14 -18 189 -1 206 9 9 98 12
340 12 313 0 328 -1 338 -19z m-4579 -2092 c45 -14 102 -71 118 -119 6 -19 14
-66 18 -105 7 -85 8 -84 -130 -154 -65 -33 -99 -46 -102 -38 -3 7 -6 55 -7
107 l-3 95 -65 3 c-35 2 -75 0 -87 -3 l-23 -5 2 -503 3 -502 85 0 85 0 5 87
c3 47 7 88 10 91 27 22 210 103 220 97 10 -6 11 -46 7 -171 -6 -210 -16 -238
-101 -300 l-39 -29 -179 0 c-157 0 -183 2 -217 19 -43 22 -82 70 -99 120 -17
48 -17 1134 -1 1182 17 51 73 114 111 126 45 15 341 16 389 2z m501 9 c2 -2 5
-280 8 -618 l5 -615 154 -3 c96 -1 160 -7 168 -14 10 -8 13 -36 11 -107 l-3
-96 -280 0 -280 0 -3 705 c-1 388 0 715 3 728 5 21 10 22 110 22 58 0 106 -1
107 -2z m686 -731 l2 -728 -112 3 -113 3 -3 715 c-1 393 0 721 3 728 3 9 32
12 112 10 l108 -3 3 -728z m722 623 c0 -81 -3 -110 -12 -111 -7 0 -70 0 -140
1 -75 1 -136 -4 -148 -10 -20 -10 -20 -18 -18 -188 3 -171 4 -177 23 -174 19
3 86 35 215 103 30 16 61 29 68 29 9 0 12 -31 12 -124 l0 -124 -72 -37 c-142
-72 -218 -113 -233 -125 -13 -11 -15 -42 -13 -189 l3 -176 150 -3 c82 -1 153
-6 158 -11 7 -7 11 -113 7 -199 0 -10 -58 -12 -272 -10 l-273 3 0 662 0 661
30 44 c18 26 48 52 75 65 42 21 59 22 243 23 l197 0 0 -110z m386 83 c12 -56
13 -57 41 -28 38 38 86 55 153 55 98 0 178 -51 200 -128 10 -39 15 -1305 5
-1322 -10 -16 -215 -13 -215 3 0 6 0 281 0 609 0 688 12 621 -108 616 l-67 -3
-5 -615 -5 -615 -115 0 -115 0 -3 715 c-1 393 0 721 3 728 3 8 36 12 114 12
l111 0 6 -27z m1209 -83 l0 -105 -100 -3 c-55 -1 -103 -6 -108 -11 -4 -4 -8
-277 -7 -607 0 -329 -4 -605 -8 -612 -6 -9 -37 -12 -118 -10 l-109 3 -5 615
-5 615 -110 5 -110 5 -3 94 c-1 52 0 101 2 108 5 11 69 13 343 11 l338 -3 0
-105z m641 94 c49 -20 98 -75 113 -124 15 -49 14 -108 -1 -124 -14 -14 -196
-106 -210 -106 -4 0 -8 31 -8 70 0 81 -2 83 -110 78 l-65 -3 -3 -179 c-1 -99
1 -183 6 -188 5 -5 73 25 153 66 224 116 228 118 239 111 15 -9 14 -861 -2
-906 -17 -51 -54 -95 -99 -118 -36 -19 -57 -21 -218 -21 l-178 0 -39 29 c-59
42 -72 61 -89 126 -21 82 -20 157 3 178 34 31 213 117 217 104 3 -7 6 -57 7
-112 l3 -100 85 0 85 0 3 214 c1 123 -2 219 -7 224 -6 6 -65 -19 -155 -64 -81
-41 -167 -84 -193 -97 -27 -14 -49 -20 -55 -14 -5 5 -8 176 -5 408 3 438 5
450 63 507 50 48 82 55 260 56 127 1 170 -2 200 -15z"/>
<path d="M1965 7909 c-45 -22 -99 -72 -120 -109 -33 -60 -73 -158 -85 -210
-27 -115 -61 -350 -53 -363 3 -4 12 -2 22 7 32 29 68 36 105 21 32 -14 36 -13
44 3 5 9 15 62 22 117 7 55 18 123 26 152 8 28 14 58 14 67 0 26 61 148 99
198 22 28 57 57 89 73 28 15 52 29 52 31 0 2 -16 11 -36 19 -51 21 -131 18
-179 -6z"/>
<path d="M1588 7646 c-26 -11 -58 -45 -71 -76 -4 -8 -11 -22 -16 -30 -18 -30
-40 -96 -55 -165 -23 -106 -38 -197 -33 -201 2 -2 20 3 40 11 51 21 74 19 102
-11 24 -26 25 -31 25 -183 0 -220 52 -598 106 -772 8 -26 14 -55 14 -65 0 -10
6 -36 14 -59 7 -22 21 -67 31 -100 36 -124 48 -161 61 -193 28 -67 14 -97 -58
-123 -30 -10 -42 -10 -64 0 -55 25 -50 -11 17 -114 10 -16 23 -39 29 -50 62
-116 174 -252 256 -311 80 -57 134 -75 183 -61 38 11 91 53 91 71 0 6 -21 34
-46 61 -105 115 -135 152 -187 229 -83 125 -155 266 -177 351 -5 17 -13 44
-18 60 -30 89 -81 296 -116 465 -8 41 -22 109 -31 150 -8 41 -15 89 -15 106 0
17 -7 75 -15 130 -22 145 -20 393 5 551 20 132 40 216 59 252 19 35 13 67 -14
79 -32 15 -82 14 -117 -2z"/>
<path d="M1260 7348 c-19 -5 -45 -19 -57 -30 -35 -32 -73 -123 -73 -173 0 -49
4 -53 32 -29 18 17 86 23 107 10 8 -5 11 -82 11 -253 0 -276 16 -418 76 -683
23 -98 70 -259 90 -308 8 -18 14 -41 14 -52 0 -10 4 -21 9 -24 11 -7 41 -98
41 -123 0 -40 -24 -56 -83 -56 -32 0 -57 -4 -57 -9 0 -9 25 -50 82 -130 13
-18 25 -35 28 -38 3 -3 27 -32 52 -66 90 -118 160 -144 226 -85 17 17 32 32
32 35 0 3 -13 24 -29 48 -50 76 -151 267 -197 376 -14 31 -28 66 -54 127 -7
17 -16 44 -20 60 -5 17 -13 44 -18 60 -43 123 -96 367 -107 480 -3 33 -10 92
-15 130 -14 107 -12 425 5 550 17 123 19 172 8 178 -20 12 -71 14 -103 5z"/>
<path d="M2108 5773 c-24 -23 -34 -26 -88 -25 -33 1 -60 -2 -60 -7 0 -10 41
-90 71 -136 10 -16 22 -37 26 -45 12 -27 150 -204 194 -250 110 -114 224 -179
312 -180 38 0 97 23 97 38 0 5 -31 22 -68 40 -132 61 -234 189 -381 477 -39
76 -63 115 -72 115 -3 0 -17 -12 -31 -27z"/>
<path d="M6843 7917 c-18 -7 -33 -16 -33 -20 0 -5 22 -20 49 -35 112 -61 191
-233 221 -482 17 -139 13 -133 71 -125 35 5 57 2 80 -9 18 -9 34 -16 36 -16
18 0 -31 328 -63 413 -48 128 -73 174 -120 221 -59 59 -162 81 -241 53z"/>
<path d="M7278 7644 c-32 -17 -33 -22 -13 -71 8 -19 15 -45 15 -56 0 -11 7
-43 15 -71 46 -160 59 -474 30 -701 -23 -177 -66 -412 -91 -501 -8 -28 -14
-59 -14 -70 0 -10 -6 -39 -14 -64 -8 -25 -21 -70 -30 -100 -17 -58 -45 -145
-71 -220 -58 -162 -165 -326 -334 -510 -28 -30 -51 -60 -51 -66 0 -22 56 -63
95 -69 54 -9 108 7 175 53 78 53 197 198 260 317 6 11 19 34 29 50 36 56 62
107 57 112 -3 3 -37 6 -77 7 -57 1 -74 5 -85 21 -18 24 -18 55 0 97 13 32 25
69 61 193 10 33 24 78 31 100 8 23 14 49 14 59 0 10 6 39 14 65 55 175 106
552 106 774 0 154 1 158 25 182 28 29 66 32 109 10 16 -9 30 -14 32 -12 5 5
-17 151 -33 212 -26 102 -70 203 -103 235 -39 40 -105 50 -152 24z"/>
<path d="M7633 7350 c-28 -11 -29 -28 -7 -193 12 -92 15 -176 11 -337 -4 -199
-11 -279 -38 -435 -6 -33 -14 -80 -18 -105 -13 -74 -75 -292 -110 -382 -5 -12
-17 -43 -26 -68 -51 -133 -161 -350 -226 -448 -16 -23 -26 -49 -23 -57 10 -25
69 -55 108 -55 33 0 46 9 120 83 74 73 186 235 186 268 0 6 -18 7 -47 3 -40
-5 -53 -2 -76 16 -32 25 -32 32 2 120 12 30 38 105 57 165 20 61 42 128 50
150 8 23 14 49 14 59 0 11 6 42 14 70 8 28 22 87 30 131 39 207 46 286 46 529
0 209 2 247 16 260 22 22 66 20 98 -5 14 -11 30 -18 36 -14 15 10 -1 96 -27
145 -36 65 -59 87 -108 99 -51 13 -53 13 -82 1z"/>
<path d="M6767 5673 c-103 -202 -129 -244 -206 -327 -52 -55 -146 -130 -176
-140 -11 -3 -31 -15 -45 -25 l-24 -19 47 -23 47 -23 58 19 c129 42 241 136
375 312 40 54 76 105 80 113 4 8 16 29 26 45 26 39 59 106 63 125 2 12 -9 15
-55 16 -48 1 -62 5 -85 27 -16 15 -31 27 -34 27 -3 0 -35 -57 -71 -127z"/>
<path d="M2067 3913 c-11 -10 -8 -421 2 -427 5 -4 46 13 90 36 l81 42 0 178 0
178 -83 0 c-46 0 -87 -3 -90 -7z"/>
<path d="M4390 3910 c-5 -159 1 -425 10 -428 11 -4 35 7 115 51 l40 22 0 180
0 180 -82 3 c-53 2 -83 -1 -83 -8z"/>
<path d="M5197 3914 c-4 -4 -7 -101 -7 -216 0 -241 -4 -233 98 -177 89 48 83
32 80 223 l-3 171 -80 3 c-45 1 -84 0 -88 -4z"/>
</g>
</svg>
