<?xml version="1.0" standalone="no"?>
<!DOCTYPE svg PUBLIC "-//W3C//DTD SVG 20010904//EN"
 "http://www.w3.org/TR/2001/REC-SVG-20010904/DTD/svg10.dtd">
<svg version="1.0" xmlns="http://www.w3.org/2000/svg"
 width="900.000000pt" height="900.000000pt" viewBox="0 0 900.000000 900.000000"
 preserveAspectRatio="xMidYMid meet">
<metadata>
Created by potrace 1.10, written by Peter Selinger 2001-2011
</metadata>
<g transform="translate(0.000000,900.000000) scale(0.100000,-0.100000)"
fill="#000000" stroke="none">
<path d="M4692 6748 l3 -2253 1229 -3 c1187 -2 1230 -1 1290 17 120 38 158 61
241 146 66 67 113 151 140 250 14 53 16 137 13 750 l-3 690 -94 3 c-60 2 -98
-1 -107 -9 -11 -9 -14 -71 -14 -340 l0 -329 -22 -5 c-13 -3 -570 -4 -1238 -3
l-1215 3 -3 1553 c-2 1238 0 1552 10 1552 336 3 2463 -2 2467 -6 3 -3 8 -299
11 -657 l5 -652 100 0 100 0 3 773 2 772 -1460 0 -1460 0 2 -2252z m1507
-1538 c60 -17 121 -95 121 -155 0 -30 -36 -104 -59 -123 -61 -48 -139 -54
-198 -16 -55 37 -73 70 -73 141 0 118 93 186 209 153z"/>
<path d="M892 8958 c-16 -16 -16 -180 0 -196 9 -9 92 -12 311 -12 234 0 298
-3 295 -12 -2 -7 -339 -346 -749 -753 -410 -407 -747 -746 -747 -753 -3 -19
117 -142 137 -142 9 0 354 338 766 750 412 413 753 750 757 750 5 0 8 -139 8
-309 l0 -310 96 -3 c53 -2 100 0 105 3 6 3 10 196 10 474 l0 469 -26 26 -25
25 -463 3 c-357 2 -465 0 -475 -10z"/>
<path d="M6077 8474 c-4 -4 -7 -23 -7 -43 0 -53 -12 -64 -77 -72 -73 -9 -119
-26 -169 -64 -93 -70 -125 -128 -131 -242 -3 -54 0 -79 13 -105 64 -124 165
-185 364 -217 178 -29 291 -58 318 -83 45 -43 13 -110 -67 -137 -52 -17 -300
-14 -345 4 -43 18 -76 45 -76 62 0 22 -38 33 -117 33 -101 0 -108 -5 -98 -65
11 -76 84 -171 162 -212 43 -23 142 -53 174 -53 27 0 28 -2 31 -57 l3 -58 105
0 105 0 5 55 c4 45 9 55 25 58 42 7 137 43 175 67 48 30 109 102 128 152 52
133 5 256 -131 346 -52 34 -103 50 -277 82 -200 38 -240 50 -270 77 -36 32
-37 46 -9 82 43 55 84 66 244 66 163 0 203 -12 247 -70 22 -30 23 -30 119 -30
71 0 98 4 102 13 7 19 -8 86 -26 122 -41 78 -168 164 -257 175 l-45 5 -5 55
-5 55 -101 3 c-55 1 -103 0 -107 -4z"/>
<path d="M8037 8343 c-4 -3 -7 -53 -7 -110 l0 -103 280 0 c239 0 281 -2 286
-15 5 -12 -63 -94 -201 -241 -18 -20 -78 -86 -185 -204 -142 -157 -172 -190
-190 -209 -9 -9 -54 -59 -100 -111 -47 -52 -89 -100 -95 -106 -5 -6 -53 -58
-106 -115 -53 -57 -115 -126 -137 -152 -71 -81 -126 -138 -146 -149 -15 -8
-22 -6 -33 8 -7 11 -24 30 -36 44 -12 14 -38 45 -57 70 -19 25 -44 56 -57 70
-19 23 -97 117 -238 289 -27 33 -55 61 -62 61 -11 0 -43 -39 -68 -82 -5 -9
-34 -51 -62 -92 -125 -180 -159 -228 -168 -244 -5 -9 -29 -42 -52 -74 -24 -31
-43 -60 -43 -63 0 -4 -13 -24 -29 -44 -15 -20 -62 -85 -103 -146 -41 -60 -96
-141 -123 -180 -27 -38 -71 -103 -98 -142 -27 -40 -53 -73 -57 -73 -12 0 -35
33 -75 110 -58 113 -120 232 -190 365 -35 66 -89 170 -120 230 -107 207 -120
230 -136 233 -10 2 -29 -18 -50 -50 -20 -29 -100 -149 -180 -266 -79 -117
-149 -221 -154 -231 -6 -11 -17 -26 -24 -35 -20 -24 -9 -38 74 -95 l77 -52 24
22 c13 12 24 27 24 32 0 5 14 26 30 47 17 21 30 40 30 43 0 15 109 162 122
165 15 3 20 -5 116 -188 24 -47 66 -125 92 -175 27 -49 67 -126 90 -170 22
-44 70 -134 105 -200 35 -66 70 -133 78 -150 28 -60 41 -60 79 -3 19 29 59 88
89 131 30 43 59 86 64 95 6 9 28 42 50 72 22 30 45 63 50 72 11 18 138 204
226 331 30 43 61 89 69 102 8 13 38 56 66 97 28 40 76 111 108 158 86 125 75
121 137 48 78 -93 130 -157 159 -193 46 -59 144 -180 150 -185 3 -3 20 -24 39
-47 18 -24 39 -43 46 -43 7 0 29 19 50 43 20 23 58 65 84 92 26 28 94 102 151
165 57 63 109 120 114 126 16 17 71 77 186 204 115 127 170 187 186 204 5 6
57 63 114 126 107 118 167 184 185 204 26 27 126 138 184 204 35 39 70 72 77
72 11 0 14 -54 16 -267 l3 -268 85 -3 c47 -2 100 0 118 3 l32 6 0 430 c0 271
-4 428 -10 424 -5 -3 -16 8 -25 25 -30 59 -42 60 -503 60 -230 0 -422 -3 -425
-7z"/>
<path d="M2095 7969 l-35 -31 -2 -301 -3 -302 -152 -5 c-150 -5 -153 -5 -180
-33 l-28 -27 -3 -220 c-3 -247 6 -224 -88 -220 -91 3 -283 -34 -399 -77 -42
-16 -167 -76 -200 -96 -59 -36 -178 -133 -231 -189 -94 -98 -153 -180 -207
-293 -82 -170 -117 -317 -117 -497 0 -102 22 -275 39 -307 6 -11 11 -30 11
-43 0 -13 7 -33 15 -44 8 -10 15 -24 15 -31 0 -12 60 -140 83 -178 7 -11 39
-56 71 -100 109 -147 261 -274 421 -349 22 -10 52 -25 67 -32 14 -8 33 -14 42
-14 8 0 30 -6 48 -14 18 -8 67 -22 108 -32 105 -26 397 -26 485 0 33 10 85 25
115 34 243 71 483 262 629 500 l33 52 727 0 728 0 20 23 c42 46 43 54 43 412
0 363 -2 379 -46 416 -9 8 -42 16 -73 19 l-56 5 -5 290 c-3 160 -9 299 -14
310 -18 39 -48 50 -146 55 l-95 5 -3 238 -2 237 135 0 c139 0 160 5 203 43
l22 20 0 373 0 372 -35 31 -36 31 -934 0 -934 0 -36 -31z m713 -398 c2 -160
-1 -227 -9 -238 -9 -10 -30 -13 -73 -11 l-61 3 -3 229 c-1 132 2 233 7 240 6
7 32 9 73 6 l63 -5 3 -224z m-340 -5 c2 -177 -1 -231 -10 -238 -21 -13 -182
-10 -196 4 -13 13 -18 449 -5 462 4 4 52 5 107 4 l101 -3 3 -229z m1110 0 c2
-177 -1 -231 -10 -238 -17 -10 -539 -10 -556 1 -10 6 -13 58 -13 229 0 122 3
226 6 232 4 7 104 9 288 8 l282 -3 3 -229z m297 224 c4 -6 6 -110 5 -232 0
-163 -4 -224 -13 -230 -19 -12 -72 -9 -85 4 -13 13 -18 449 -5 461 10 11 91 8
98 -3z m-1740 -870 l0 -205 -25 1 c-14 1 -50 11 -80 24 -30 12 -71 26 -90 30
-56 14 -60 28 -60 186 0 78 3 150 6 158 5 14 24 16 128 14 l121 -3 0 -205z
m340 -30 l0 -235 -70 0 -70 0 -3 238 -2 238 72 -3 73 -3 0 -235z m773 9 c2
-183 0 -228 -12 -238 -9 -8 -93 -11 -292 -9 l-279 3 -3 225 c-1 123 0 230 3
237 3 11 65 13 292 11 l288 -3 3 -226z m270 -6 l2 -233 -25 -6 c-52 -13 -55
-1 -55 241 0 122 3 225 7 229 4 4 21 6 38 4 l30 -3 3 -232z m-884 -429 c13 -5
16 -26 16 -130 0 -68 -4 -124 -9 -124 -13 0 -45 42 -67 90 -4 8 -20 31 -35 51
-30 38 -44 80 -35 104 4 11 21 15 60 15 30 0 61 -3 70 -6z m772 -8 c19 -7 20
-446 2 -464 -9 -9 -84 -12 -274 -12 -144 0 -269 3 -278 6 -14 5 -16 36 -16
239 0 147 4 235 10 237 16 5 542 0 556 -6z m369 -226 l0 -235 -77 -3 -78 -3 0
234 c0 128 3 237 7 241 4 4 39 5 78 4 l70 -3 0 -235z m-2047 30 l3 -56 72 -18
c145 -37 263 -155 255 -254 l-3 -37 -82 -3 -82 -3 -22 33 c-43 66 -60 72 -212
76 -196 6 -236 -1 -281 -45 -20 -20 -36 -45 -36 -56 0 -11 16 -34 36 -53 38
-34 50 -37 264 -80 255 -50 329 -89 398 -207 29 -50 30 -146 2 -209 -43 -98
-171 -186 -290 -200 -23 -3 -25 -8 -28 -58 -2 -30 -8 -60 -14 -67 -14 -17
-159 -18 -176 -1 -7 7 -12 38 -12 70 l0 58 -45 0 c-76 0 -166 40 -233 104 -56
54 -78 98 -86 177 -9 85 -3 91 101 87 l78 -3 3 -41 c4 -52 44 -101 97 -120 50
-17 296 -18 340 -1 58 22 95 62 95 101 0 20 -69 86 -89 86 -9 0 -45 6 -81 15
-36 8 -103 22 -150 30 -118 23 -202 46 -221 62 -8 7 -20 13 -26 13 -17 0 -103
91 -124 131 -28 57 -26 153 5 216 24 47 89 116 134 141 35 19 112 44 162 51
l45 6 3 45 c4 73 2 71 104 68 l93 -3 3 -55z m1106 -482 c12 -45 7 -433 -6
-446 -7 -7 -31 -12 -55 -12 -53 0 -62 15 -44 74 20 67 41 267 34 323 -7 67 -1
83 36 83 21 0 30 -6 35 -22z m764 -215 l2 -233 -22 -5 c-13 -3 -142 -4 -288
-3 l-265 3 -3 225 c-1 123 0 230 3 237 3 11 64 13 287 11 l283 -3 3 -232z
m347 -3 l0 -235 -63 -3 c-38 -2 -69 2 -78 9 -11 9 -14 52 -14 218 0 113 3 216
6 229 6 21 11 23 78 20 l71 -3 0 -235z"/>
<path d="M6645 4125 c-11 -2 -74 -9 -140 -15 -174 -17 -310 -49 -530 -127 -36
-13 -250 -117 -300 -147 -82 -47 -249 -170 -314 -230 -258 -239 -432 -491
-556 -806 -9 -25 -22 -56 -27 -70 -13 -32 -37 -114 -48 -165 -5 -22 -13 -60
-19 -85 -34 -150 -41 -223 -41 -429 0 -214 11 -324 46 -447 23 -82 82 -117
146 -86 61 31 67 76 31 232 -23 96 -23 510 0 598 10 35 17 74 17 86 0 12 7 45
15 72 9 27 23 72 31 99 132 428 433 811 826 1050 9 5 65 34 125 63 59 30 121
60 136 68 16 8 35 14 42 14 8 0 29 6 47 14 126 54 404 101 593 101 225 0 507
-56 710 -140 60 -25 216 -103 250 -125 17 -11 36 -23 44 -26 56 -28 225 -161
325 -257 54 -52 64 -66 53 -75 -9 -8 -86 -13 -223 -14 l-209 -3 0 -95 0 -95
328 -3 328 -2 30 29 29 29 0 325 c0 251 -3 326 -12 329 -7 2 -53 1 -103 -2
l-90 -5 -3 -110 c-1 -60 -4 -116 -7 -123 -3 -8 -38 16 -94 66 -78 69 -201 159
-251 185 -8 4 -28 16 -45 27 -16 11 -52 31 -80 45 -27 14 -57 30 -65 34 -8 5
-33 17 -55 26 -22 10 -48 22 -57 26 -24 12 -97 39 -133 49 -16 4 -43 13 -60
18 -98 34 -250 66 -380 81 -104 12 -281 21 -310 16z"/>
<path d="M1052 3474 c-28 -19 -29 -67 -2 -94 20 -20 33 -20 1223 -20 l1204 0
21 23 c27 29 28 61 2 87 -20 20 -33 20 -1223 20 -1072 0 -1205 -2 -1225 -16z"/>
<path d="M6605 3230 c-60 -3 -116 -9 -123 -13 -6 -5 -33 -12 -60 -17 -104 -18
-256 -86 -391 -175 -101 -66 -248 -215 -313 -316 -146 -227 -208 -428 -208
-674 0 -261 87 -521 243 -730 82 -109 246 -252 362 -314 22 -12 47 -26 55 -30
15 -9 59 -28 122 -55 237 -101 579 -100 843 2 45 17 170 77 200 95 151 94 337
282 411 417 10 19 24 42 30 50 30 41 91 214 119 332 18 79 21 371 4 432 -6 21
-14 59 -19 85 -12 71 -34 130 -94 251 -58 118 -113 196 -211 299 -55 58 -189
168 -225 184 -8 4 -28 16 -45 27 -16 11 -37 23 -45 26 -8 4 -38 17 -66 30
-173 79 -345 106 -589 94z m233 -548 c3 -57 5 -64 28 -72 14 -6 39 -10 55 -10
33 0 142 -50 179 -83 43 -38 85 -100 103 -153 27 -78 21 -84 -89 -84 -89 0
-95 1 -103 23 -5 12 -23 37 -41 54 -41 40 -85 46 -294 42 l-154 -4 -39 -31
c-48 -39 -58 -94 -21 -128 34 -32 85 -56 118 -56 17 0 56 -6 88 -14 66 -17
153 -34 233 -46 167 -25 319 -173 319 -311 0 -39 -25 -120 -49 -159 -27 -45
-126 -130 -149 -130 -6 0 -23 -7 -38 -15 -16 -8 -47 -15 -70 -15 -22 0 -45 -5
-52 -12 -7 -7 -12 -37 -12 -68 0 -31 -5 -61 -12 -68 -16 -16 -170 -16 -186 0
-7 7 -12 36 -12 65 0 62 -5 65 -104 78 -128 15 -253 116 -290 233 -10 33 -16
65 -12 71 5 7 42 11 100 11 l93 0 24 -37 c41 -65 82 -78 253 -81 97 -2 166 1
195 9 57 15 111 63 111 99 0 42 -92 120 -142 120 -16 0 -54 6 -86 14 -31 8
-93 22 -137 31 -146 30 -210 48 -226 61 -8 8 -20 14 -25 14 -20 0 -114 92
-138 136 -36 64 -37 171 -2 239 55 109 161 180 296 199 l75 11 3 55 c4 84 -1
81 109 78 l98 -3 3 -63z"/>
<path d="M664 3202 c-13 -9 -34 -46 -34 -62 0 -6 11 -22 25 -35 l24 -25 1564
0 1564 0 21 23 c27 29 28 61 2 87 -20 20 -33 20 -1587 20 -863 0 -1573 -4
-1579 -8z"/>
<path d="M405 2878 c-44 -25 -48 -76 -9 -107 l27 -21 1816 0 c1967 0 1842 -3
1871 50 13 25 -5 64 -37 79 -35 16 -3640 15 -3668 -1z"/>
<path d="M8589 2574 c-20 -22 -24 -35 -22 -83 1 -31 8 -91 17 -133 22 -106 22
-439 0 -563 -23 -135 -66 -300 -90 -348 -8 -16 -14 -35 -14 -42 0 -7 -6 -26
-14 -42 -8 -15 -38 -75 -66 -133 -28 -58 -57 -114 -63 -125 -153 -256 -394
-500 -637 -647 -83 -50 -262 -138 -280 -138 -7 0 -24 -6 -38 -14 -43 -23 -207
-67 -336 -91 -123 -23 -476 -23 -602 0 -96 17 -191 40 -239 56 -16 6 -43 15
-60 19 -93 26 -236 90 -335 149 -19 11 -41 24 -49 28 -27 12 -148 97 -197 138
-87 71 -224 209 -216 217 4 4 84 9 177 10 l170 3 0 100 0 100 -326 3 -325 2
-23 -24 c-12 -13 -27 -41 -31 -63 -5 -21 -8 -168 -7 -328 l2 -290 95 0 95 0 7
55 c3 30 6 103 7 163 1 66 5 107 11 107 6 0 56 -43 111 -95 88 -83 210 -182
274 -222 93 -59 192 -114 250 -142 39 -18 78 -37 87 -42 27 -14 142 -54 268
-93 47 -15 160 -38 271 -55 86 -14 478 -14 571 0 88 13 212 38 253 51 17 6 46
14 65 18 133 30 329 123 555 263 57 35 216 170 301 256 83 83 257 297 277 341
4 8 16 29 27 45 51 80 118 216 164 335 10 25 24 60 32 78 8 18 14 43 14 55 1
12 7 33 15 47 8 14 14 36 15 49 0 13 6 47 14 75 64 223 63 662 -1 885 -19 69
-44 90 -104 91 -36 0 -50 -5 -70 -26z"/>
<path d="M22 2504 l-22 -15 0 -1230 c0 -1053 2 -1232 14 -1245 13 -12 323 -14
2229 -14 2132 0 2215 1 2230 18 16 17 17 118 17 1240 0 1209 0 1222 -20 1242
-20 20 -33 20 -2223 20 -1977 0 -2205 -2 -2225 -16z m2432 -520 c137 -46 245
-114 337 -212 57 -60 139 -179 139 -202 0 -5 6 -21 14 -37 35 -70 48 -145 48
-283 -1 -102 -5 -147 -16 -175 -9 -21 -16 -44 -16 -51 0 -20 -58 -140 -94
-193 -43 -66 -102 -126 -176 -181 -67 -49 -207 -120 -238 -120 -9 0 -39 -7
-66 -15 -95 -29 -300 -13 -403 31 -122 52 -190 95 -261 162 -102 97 -176 223
-217 367 -13 48 -16 88 -12 200 5 172 22 230 112 395 18 33 150 170 195 203
79 57 229 118 320 130 74 10 282 -2 334 -19z m-1219 -309 c25 -24 32 -59 17
-81 -20 -31 -54 -34 -394 -34 -388 0 -388 0 -388 68 0 30 6 41 28 54 24 16 64
17 370 18 l343 0 24 -25z m2745 10 c49 -25 51 -92 4 -114 -35 -15 -693 -15
-728 0 -45 21 -44 89 3 114 39 21 679 22 721 0z m-2740 -385 c11 -11 20 -31
20 -45 0 -14 -9 -34 -20 -45 -19 -19 -33 -20 -492 -20 -471 0 -472 0 -495 22
-30 28 -29 62 3 87 26 21 36 21 495 21 456 0 470 -1 489 -20z m2990 0 c27 -27
25 -62 -3 -88 l-23 -22 -474 2 -473 3 -19 26 c-24 31 -16 76 16 89 11 5 231 9
489 9 454 1 468 0 487 -19z m-2986 -372 c20 -28 20 -58 2 -84 -14 -18 -31 -19
-369 -22 -221 -2 -364 1 -380 7 -23 9 -27 17 -27 47 0 76 -12 74 396 74 l363
0 15 -22z m2751 8 c22 -16 26 -79 7 -98 -19 -19 -745 -19 -763 0 -20 19 -16
82 6 98 28 21 722 21 750 0z"/>
<path d="M2219 1908 c-8 -7 -23 -25 -32 -40 -10 -16 -26 -28 -37 -28 -83 0
-194 -87 -218 -170 -18 -64 -17 -227 1 -270 35 -83 108 -139 230 -177 15 -5
17 -24 17 -205 l0 -201 -37 6 c-60 10 -83 41 -92 126 -8 81 -23 101 -73 101
-57 0 -77 -87 -45 -199 22 -80 138 -171 218 -171 22 0 30 -6 35 -24 3 -13 16
-34 29 -46 33 -31 69 -21 94 28 16 31 29 40 77 57 76 26 144 92 167 165 22 68
22 195 1 252 -29 75 -118 152 -196 172 -17 4 -30 15 -33 29 -3 12 -4 103 -3
202 3 171 4 180 23 182 11 2 32 -8 48 -20 23 -19 28 -34 36 -96 15 -115 63
-152 116 -89 24 29 27 38 23 93 -8 119 -77 210 -186 245 -38 12 -74 42 -84 70
-5 17 -62 22 -79 8z m-39 -218 c0 -5 1 -75 1 -155 0 -80 -1 -149 -1 -155 0
-23 -52 -8 -88 24 l-37 35 0 100 c0 97 1 101 29 130 22 22 39 31 63 31 18 0
33 -4 33 -10z m215 -575 l37 -34 -4 -101 c-3 -101 -3 -102 -36 -131 -62 -55
-67 -45 -70 139 -2 155 -2 162 17 162 11 0 36 -16 56 -35z"/>
</g>
</svg>
