<?xml version="1.0" standalone="no"?>
<!DOCTYPE svg PUBLIC "-//W3C//DTD SVG 20010904//EN"
 "http://www.w3.org/TR/2001/REC-SVG-20010904/DTD/svg10.dtd">
<svg version="1.0" xmlns="http://www.w3.org/2000/svg"
 width="900.000000pt" height="900.000000pt" viewBox="0 0 900.000000 900.000000"
 preserveAspectRatio="xMidYMid meet">
<metadata>
Created by potrace 1.10, written by Peter Selinger 2001-2011
</metadata>
<g transform="translate(0.000000,900.000000) scale(0.100000,-0.100000)"
fill="#000000" stroke="none">
<path d="M6460 8842 c-39 -19 -80 -83 -80 -125 0 -39 34 -101 69 -126 26 -19
43 -21 154 -21 69 0 128 -4 131 -9 3 -4 -11 -23 -32 -42 -42 -37 -130 -120
-377 -354 -286 -271 -347 -328 -430 -405 -44 -41 -124 -117 -179 -170 -54 -52
-104 -99 -110 -105 -27 -24 -499 -471 -555 -525 -14 -14 -62 -59 -106 -100
-44 -41 -147 -137 -229 -215 -81 -77 -155 -144 -163 -149 -9 -5 -36 0 -72 13
-102 37 -235 27 -333 -25 -14 -8 -33 -14 -42 -14 -13 0 -330 230 -434 315 -47
38 -112 88 -152 117 -25 17 -47 35 -50 38 -3 4 -104 81 -225 172 l-221 165 1
114 c0 111 -10 159 -46 219 -5 8 -13 24 -18 35 -15 32 -102 110 -156 140 -286
158 -642 -52 -645 -380 0 -27 7 -83 17 -122 l17 -73 -666 -667 c-717 -720
-689 -688 -673 -775 11 -57 64 -104 120 -109 83 -6 49 -37 759 677 l672 677
34 -19 c29 -15 57 -19 155 -19 115 0 122 2 184 33 64 33 91 39 91 23 0 -5 16
-19 35 -31 20 -12 41 -27 48 -34 6 -7 184 -142 395 -302 474 -357 473 -356
546 -416 19 -15 21 -27 21 -145 0 -125 1 -130 33 -193 54 -107 152 -192 264
-231 70 -24 196 -25 263 -2 104 36 199 115 250 208 55 101 67 201 39 322 l-16
68 79 73 c43 40 114 108 158 151 44 42 152 144 240 226 88 82 172 161 186 175
113 108 217 207 354 335 137 128 229 216 354 335 14 14 98 93 186 175 88 82
172 161 186 175 47 45 343 325 395 373 79 73 81 71 86 -93 l3 -140 33 -32 c30
-31 37 -33 103 -33 69 0 71 1 105 37 l34 38 0 352 c-1 477 37 438 -432 438
-283 -1 -327 -3 -358 -18z m-3791 -1317 c94 -59 94 -187 -1 -245 -65 -39 -148
-18 -193 48 -47 68 -21 162 54 202 49 26 94 25 140 -5z m1761 -1317 c69 -55
80 -130 27 -199 -67 -88 -194 -74 -246 28 -24 48 -6 127 38 167 43 39 133 41
181 4z"/>
<path d="M7355 7103 c-31 -8 -68 -41 -85 -76 -13 -28 -16 -261 -20 -2017 l-5
-1985 -62 -7 c-35 -4 -67 -10 -73 -13 -6 -3 -31 -10 -58 -15 -26 -4 -63 -14
-82 -20 -86 -31 -117 -43 -142 -56 -14 -8 -31 -14 -37 -14 -6 0 -29 -11 -51
-25 -22 -14 -44 -25 -50 -25 -7 0 -10 482 -10 1483 0 1417 -1 1484 -19 1522
-22 47 -44 68 -90 84 -48 16 -914 14 -956 -2 -40 -16 -67 -36 -88 -67 -16 -23
-17 -127 -17 -1482 0 -930 -4 -1459 -10 -1463 -5 -3 -31 3 -57 13 -117 47
-257 79 -383 87 -58 4 -111 12 -117 17 -10 8 -13 154 -14 662 -1 665 -1 681
-39 732 -42 56 -24 54 -545 54 -531 0 -503 3 -557 -65 l-23 -30 -2 -968 c-3
-1037 0 -982 -51 -1046 -24 -30 -32 -25 -84 52 -60 89 -198 228 -305 308 -51
38 -96 69 -101 69 -5 0 -16 8 -25 18 -16 17 -17 136 -19 1449 l-3 1432 -21 28
c-46 63 -41 62 -565 63 l-476 0 -34 -23 c-69 -46 -64 55 -67 -1401 -1 -950 -5
-1323 -13 -1333 -9 -10 -68 -13 -284 -13 -240 0 -274 2 -279 16 -3 9 -6 313
-6 676 0 649 0 661 -21 694 -11 18 -35 42 -53 53 -32 20 -47 21 -509 21 -457
0 -477 -1 -510 -20 -18 -11 -43 -37 -55 -59 l-22 -39 0 -728 0 -728 -29 -31
c-39 -41 -81 -119 -97 -183 -18 -69 -19 -418 -2 -494 7 -29 23 -71 35 -93 12
-22 27 -50 33 -62 5 -13 14 -23 20 -23 16 0 12 -19 -14 -53 -34 -46 -56 -92
-72 -154 -19 -74 -19 -421 0 -495 13 -53 55 -138 83 -170 13 -14 11 -21 -14
-60 -76 -118 -83 -153 -83 -393 0 -240 15 -308 85 -400 73 -97 144 -144 255
-171 85 -21 2008 -20 2170 1 116 15 206 33 270 55 88 31 231 96 285 131 17 10
37 22 45 26 8 3 50 33 92 65 98 74 222 198 298 298 33 43 64 81 68 84 5 3 27
-23 49 -57 84 -127 249 -284 403 -384 124 -81 315 -164 420 -183 25 -5 56 -13
70 -18 14 -5 89 -15 168 -22 201 -19 358 -3 557 56 102 30 268 107 349 161 26
18 51 33 55 33 3 0 17 10 31 23 14 12 54 47 90 77 102 86 260 268 260 299 0 6
9 11 20 11 12 0 33 -20 58 -57 66 -97 203 -241 302 -316 49 -37 170 -113 204
-128 12 -5 28 -13 36 -17 51 -29 80 -41 200 -81 124 -41 314 -71 450 -71 124
0 345 35 418 66 18 8 39 14 46 14 23 0 202 83 261 120 17 11 37 23 45 27 36
16 175 129 248 201 70 69 187 212 205 252 4 8 17 31 28 50 35 58 55 101 103
213 12 29 22 60 56 182 16 57 40 258 40 335 0 77 -24 279 -40 335 -51 179
-116 332 -187 439 -18 26 -33 52 -33 57 0 5 -4 9 -8 9 -4 0 -15 12 -24 28 -19
29 -48 64 -109 129 l-39 41 0 2197 c0 2415 5 2223 -58 2270 -26 19 -44 20
-507 21 -264 1 -489 0 -500 -3z m761 -287 c12 -5 14 -330 14 -1980 0 -1096 -4
-1977 -9 -1980 -4 -3 -39 10 -77 28 -129 64 -347 130 -454 138 l-35 3 -3 1894
c-1 1126 2 1897 7 1900 11 7 539 4 557 -3z m-1738 -2681 l2 -1520 -43 -45
c-24 -25 -71 -82 -106 -127 -34 -46 -66 -83 -71 -83 -4 0 -22 21 -38 48 -51
81 -169 210 -272 296 l-45 37 -3 1446 c-2 1075 1 1449 9 1460 10 11 63 13 288
11 l276 -3 3 -1520z m-3490 112 c2 -1125 0 -1258 -13 -1264 -9 -3 -57 4 -108
16 -69 17 -138 24 -272 28 -114 4 -183 10 -187 17 -10 14 -10 2450 -1 2459 4
4 135 6 292 5 l286 -3 3 -1258z m-1760 -59 c18 -18 17 -1117 -1 -1141 -11 -16
-37 -17 -287 -15 l-275 3 -3 570 c-1 314 0 576 3 583 6 17 545 18 563 0z
m3500 0 c9 -9 12 -153 12 -585 0 -560 0 -573 -20 -593 -11 -11 -30 -20 -42
-20 -13 0 -54 -12 -93 -26 -38 -14 -83 -30 -100 -35 -45 -13 -195 -92 -255
-133 -29 -20 -58 -36 -66 -36 -12 0 -14 111 -14 710 0 665 1 710 18 719 26 16
545 14 560 -1z m-3083 -1448 c3 -5 -37 -51 -90 -102 -86 -82 -235 -264 -235
-286 0 -4 -6 -14 -12 -20 -7 -7 -31 -47 -53 -90 l-41 -77 -284 -3 c-326 -3
-347 0 -391 62 l-29 39 0 187 0 187 30 41 c17 23 31 42 33 42 1 0 20 7 42 15
33 11 130 14 532 15 310 0 494 -4 498 -10z m1065 -11 c129 -18 284 -65 360
-110 8 -5 26 -14 40 -20 14 -6 38 -21 55 -33 16 -12 37 -25 45 -28 27 -10 164
-134 215 -194 54 -63 130 -171 145 -207 6 -12 14 -29 19 -37 18 -30 47 -104
80 -200 18 -54 51 -258 51 -320 0 -60 -31 -254 -54 -335 -32 -113 -118 -284
-191 -375 -26 -32 -182 -189 -215 -215 -181 -144 -475 -245 -715 -245 -116 0
-307 36 -403 76 -61 25 -107 46 -122 55 -8 5 -24 13 -35 18 -11 5 -37 21 -58
35 -21 14 -41 26 -44 26 -9 0 -152 129 -191 172 -33 37 -115 145 -139 183 -19
31 -78 155 -95 200 -29 77 -47 151 -64 264 -18 117 -17 148 15 366 17 120 89
291 180 430 77 118 250 283 356 341 193 104 301 137 550 168 37 4 115 -1 215
-15z m2485 0 c131 -19 215 -45 340 -106 87 -42 91 -45 190 -117 154 -114 266
-249 345 -416 12 -25 26 -53 31 -62 9 -19 34 -96 66 -208 26 -93 25 -382 -1
-490 -68 -278 -224 -521 -436 -679 -93 -69 -98 -72 -185 -114 -393 -190 -819
-162 -1173 76 -132 90 -276 242 -342 363 -12 22 -33 59 -47 84 -31 53 -35 138
-10 216 28 90 41 298 27 436 -6 67 -18 143 -25 168 -32 105 -31 134 11 218 61
123 140 232 228 315 40 38 172 140 211 164 33 20 165 83 174 83 5 0 22 7 37
15 16 8 37 15 47 15 10 0 27 5 39 11 11 6 50 15 87 21 182 28 235 29 386 7z
m2475 0 c114 -15 277 -66 350 -110 8 -5 25 -13 37 -19 126 -54 346 -263 440
-415 19 -30 78 -155 95 -200 47 -121 78 -282 78 -403 0 -121 -35 -312 -75
-407 -7 -16 -21 -50 -31 -75 -96 -236 -348 -488 -584 -584 -25 -10 -58 -24
-75 -31 -94 -40 -286 -75 -405 -75 -121 0 -308 35 -407 76 -68 29 -108 46
-123 55 -8 4 -32 17 -54 29 -120 65 -294 228 -378 355 -50 76 -118 206 -118
226 0 7 6 35 14 63 63 219 62 552 0 731 -20 58 -19 66 30 158 57 108 97 168
167 248 54 61 184 177 212 189 7 3 30 17 52 31 22 14 47 28 55 32 8 4 22 11
30 16 75 44 229 92 360 111 144 20 172 20 330 -1z m-6563 -876 c4 -9 1 -75 -6
-147 -9 -105 -9 -158 2 -266 9 -86 10 -140 4 -147 -7 -10 -66 -13 -236 -13
-215 0 -229 1 -271 23 -25 12 -55 37 -67 56 -22 32 -23 44 -23 218 0 192 3
207 50 254 32 32 75 37 308 38 208 1 233 -1 239 -16z m142 -926 c17 -35 47
-87 66 -116 19 -29 35 -55 35 -58 0 -14 149 -180 224 -249 47 -43 82 -82 80
-86 -3 -4 -235 -8 -515 -8 -491 0 -511 1 -549 20 -70 36 -80 70 -80 275 0 188
7 221 54 255 38 28 50 29 352 29 l302 1 31 -63z"/>
<path d="M2369 2426 c-23 -16 -44 -43 -57 -74 -21 -49 -22 -50 -74 -54 -124
-11 -264 -115 -328 -245 -33 -65 -34 -72 -34 -183 0 -110 2 -118 33 -183 38
-79 125 -171 192 -203 55 -27 144 -54 175 -54 l25 0 -3 -142 -3 -143 -170 -5
c-193 -6 -215 -13 -242 -78 -24 -59 -12 -128 32 -172 l35 -35 168 -2 c92 -2
169 -3 172 -3 3 0 13 -20 24 -45 27 -66 69 -95 139 -95 53 0 60 3 96 39 21 21
42 53 46 70 7 33 14 36 91 44 109 12 245 121 305 243 32 66 33 74 33 184 0
109 -2 118 -33 180 -70 141 -188 226 -353 256 l-38 6 0 139 c0 104 3 139 13
140 6 0 68 0 137 -1 145 -2 208 11 243 48 58 63 56 144 -6 210 l-31 32 -173 0
-173 0 -24 53 c-41 94 -138 126 -217 73z m-71 -559 l3 -137 -28 0 c-53 1 -113
75 -113 139 0 56 35 111 82 131 51 20 53 15 56 -133z m379 -463 c39 -30 63
-72 63 -112 0 -38 -23 -93 -47 -113 -25 -21 -73 -40 -84 -34 -5 4 -9 69 -9
146 0 136 1 139 22 139 11 0 36 -11 55 -26z"/>
<path d="M4835 2433 c-202 -62 -367 -208 -470 -418 l-37 -75 -53 0 c-97 0
-148 -48 -148 -140 0 -71 25 -111 89 -139 l44 -20 0 -59 c0 -64 -5 -73 -57
-90 -44 -15 -67 -39 -82 -88 -17 -52 -2 -105 42 -152 29 -30 35 -32 98 -32
l67 0 38 -77 c102 -208 257 -346 469 -416 68 -23 260 -23 330 -1 54 17 111 41
135 55 8 5 22 12 30 16 20 9 129 91 156 117 11 12 35 41 52 65 38 53 43 119
13 164 -24 38 -88 76 -126 77 -37 0 -62 -16 -145 -95 -36 -34 -90 -75 -120
-91 -49 -25 -66 -28 -150 -28 -106 -1 -151 13 -227 70 -51 38 -115 113 -110
128 2 7 49 13 125 16 110 5 123 7 146 29 14 13 33 44 42 68 16 40 16 46 0 86
-34 90 -77 107 -270 107 -97 0 -146 4 -154 12 -16 16 -16 100 0 116 8 8 59 12
165 12 174 0 214 10 251 63 16 25 22 48 22 89 0 51 -3 59 -40 97 l-40 41 -125
0 c-107 0 -125 2 -125 16 0 27 102 124 170 162 62 35 69 37 162 37 92 0 100
-2 163 -35 39 -20 88 -58 119 -91 70 -75 93 -89 142 -89 30 0 52 8 82 30 52
38 62 57 62 123 0 51 -3 56 -56 115 -100 110 -217 185 -355 226 -72 21 -254
20 -324 -1z"/>
<path d="M6867 2264 c-39 -39 -53 -84 -43 -134 3 -17 66 -110 140 -209 97
-128 132 -182 123 -188 -7 -5 -25 -15 -42 -23 -99 -49 -111 -187 -22 -251 37
-27 46 -29 133 -29 52 0 94 -4 96 -10 2 -5 1 -38 -2 -72 l-5 -63 -101 -3 c-99
-3 -101 -3 -132 -35 -56 -59 -58 -153 -5 -209 29 -30 104 -51 176 -48 23 1 48
1 55 1 8 -1 12 -24 13 -78 0 -91 21 -151 63 -184 40 -32 132 -32 172 0 53 42
64 68 64 161 0 48 5 91 10 96 6 6 32 9 60 6 62 -6 149 15 176 42 58 56 52 174
-10 221 -28 21 -44 25 -131 27 l-100 3 -3 73 -3 72 86 0 c120 0 161 23 192
109 10 26 10 44 2 75 -13 50 -32 72 -81 97 -35 18 -49 43 -30 51 20 7 243 318
256 355 33 94 -32 183 -134 183 -37 0 -61 -6 -82 -21 -16 -12 -97 -112 -180
-223 -83 -110 -154 -205 -158 -209 -15 -17 -46 4 -80 54 -19 28 -43 61 -54 73
-10 11 -32 41 -49 66 -17 25 -33 47 -37 50 -3 3 -35 43 -70 90 -87 115 -93
119 -166 120 -57 0 -63 -2 -97 -36z"/>
</g>
</svg>
