<?xml version="1.0" standalone="no"?>
<!DOCTYPE svg PUBLIC "-//W3C//DTD SVG 20010904//EN"
 "http://www.w3.org/TR/2001/REC-SVG-20010904/DTD/svg10.dtd">
<svg version="1.0" xmlns="http://www.w3.org/2000/svg"
 width="300.000000pt" height="300.000000pt" viewBox="0 0 300.000000 300.000000"
 preserveAspectRatio="xMidYMid meet">
<metadata>
Created by potrace 1.10, written by Peter Selinger 2001-2011
</metadata>
<g transform="translate(0.000000,300.000000) scale(0.050000,-0.050000)"
fill="#000000" stroke="none">
<path d="M3200 4987 c-269 -170 -539 -333 -600 -361 -60 -29 -123 -63 -140
-76 -103 -85 -747 -189 -666 -108 13 13 18 36 12 52 -6 15 8 46 31 68 24 22
43 49 43 60 0 11 9 15 20 8 11 -7 20 -43 20 -80 0 -37 -9 -73 -20 -80 -11 -7
-20 -23 -20 -36 0 -12 15 -2 32 23 74 106 -12 322 -118 296 -121 -30 -165
-228 -71 -316 l63 -59 -33 -70 c-51 -106 -43 -281 17 -400 27 -54 50 -100 50
-103 0 -3 -189 -5 -420 -5 l-420 0 -1 -565 -1 -565 -59 183 c-109 335 -347
372 -337 53 3 -73 3 -72 19 22 18 106 96 209 139 182 16 -10 8 -30 -28 -68
-28 -29 -65 -98 -81 -153 -36 -116 -39 -151 -9 -109 15 22 17 12 8 -40 -8 -45
-6 -61 6 -43 13 19 25 -1 42 -70 13 -54 28 -110 33 -127 5 -18 -16 -44 -52
-65 -80 -45 -126 -157 -114 -279 11 -114 3 -120 -36 -27 -59 141 -9 316 104
364 42 17 66 41 65 62 -3 33 -3 33 -12 0 -5 -19 -22 -35 -39 -35 -59 0 -143
-110 -157 -205 -19 -128 14 -212 130 -327 l99 -98 -1 -138 c-1 -109 7 -149 40
-194 23 -31 42 -59 42 -62 0 -21 -206 6 -259 33 -36 19 -70 29 -76 22 -7 -6 1
-12 17 -13 15 -1 1 -9 -31 -19 -66 -20 -157 -5 -140 23 6 10 -3 18 -20 18 -17
0 -31 -7 -31 -15 0 -17 -142 -65 -194 -65 -58 0 5 47 100 75 l84 24 -80 -11
c-193 -27 -203 -209 -15 -269 41 -13 122 -45 179 -71 117 -54 201 -61 256 -20
28 20 52 22 94 8 31 -11 103 -15 161 -8 204 23 335 31 335 22 0 -5 -49 -57
-110 -116 -127 -123 -131 -141 -49 -235 l61 -69 -11 72 c-11 69 -7 75 108 156
66 46 134 104 152 128 29 41 30 35 18 -100 -8 -79 -8 -176 -1 -215 l14 -71
120 0 c125 0 144 27 36 50 -45 10 -58 22 -49 45 7 18 21 73 33 123 11 51 29
126 40 167 l20 75 189 0 c155 0 189 5 189 30 0 17 9 30 20 30 11 0 20 -40 20
-90 l0 -90 -125 0 -126 0 8 -154 c6 -125 2 -157 -25 -177 -62 -45 21 -51 757
-51 l721 -1 0 117 0 116 125 -7 125 -7 0 202 0 202 -730 0 c-473 0 -730 -7
-730 -20 0 -11 -13 -20 -30 -20 -16 0 -30 -13 -30 -30 0 -24 -33 -30 -175 -30
l-175 0 -3 100 -3 100 137 0 c124 0 142 5 189 55 100 108 69 134 -176 145
-209 10 -216 9 -205 -30 6 -22 11 -58 11 -80 0 -37 11 -40 172 -33 119 4 168
-1 159 -15 -8 -13 -78 -22 -164 -22 l-151 0 8 -72 c14 -120 -90 -537 -136
-544 -36 -5 -38 11 -38 300 0 206 -8 320 -25 349 -45 79 51 254 174 316 75 39
97 59 87 84 -10 27 -3 31 36 22 207 -49 522 -69 383 -25 -25 8 -45 23 -45 32
0 10 -20 16 -45 14 -49 -4 -254 59 -284 86 -11 11 157 18 395 18 l414 0 0 46
0 46 -456 -8 c-397 -8 -458 -5 -481 23 -56 66 -9 73 529 73 l530 0 -6 105 c-4
69 -15 104 -31 103 -14 -1 -260 -3 -547 -5 l-522 -3 12 -50 c10 -37 5 -50 -18
-50 -48 0 -62 62 -21 92 65 48 23 95 -74 82 -111 -15 -141 -58 -124 -179 21
-158 -154 -109 -226 63 -16 40 -38 77 -48 84 -10 6 -12 27 -5 46 11 28 17 30
30 9 10 -15 18 168 18 418 l0 445 630 0 631 0 114 -79 115 -79 66 64 c68 66
59 94 -17 53 -35 -18 -48 -17 -61 4 -19 30 204 44 547 33 l182 -6 -224 -186
c-122 -103 -223 -195 -223 -205 0 -11 -31 -19 -70 -19 -49 0 -70 -9 -70 -30 0
-26 -89 -31 -665 -35 l-665 -4 669 -11 669 -10 75 -510 c42 -280 82 -557 89
-615 7 -58 24 -105 36 -105 12 0 261 36 553 79 291 44 548 75 570 69 21 -5
119 4 217 21 219 38 212 38 212 -4 0 -22 33 -51 85 -76 119 -57 210 -225 171
-318 -18 -41 -25 -155 -24 -356 2 -270 -1 -295 -34 -295 -40 0 -40 -2 -100
277 -45 206 -45 208 -10 416 20 116 32 214 26 219 -5 6 -24 -74 -43 -176 -18
-102 -38 -202 -43 -221 -10 -32 -52 -35 -484 -37 -314 -2 -447 -8 -394 -20 44
-9 260 -16 480 -16 l400 1 44 -186 c25 -103 50 -207 56 -232 8 -34 2 -45 -26
-45 -20 0 -54 -13 -75 -29 -36 -27 -29 -30 84 -30 145 -1 145 0 148 249 1 88
7 149 12 136 5 -14 68 -66 139 -117 125 -89 129 -94 116 -160 -17 -93 11 -87
76 16 l55 85 -152 153 c-83 83 -143 157 -134 162 39 24 283 21 367 -3 73 -21
109 -22 187 -2 71 18 102 19 119 2 49 -49 334 9 302 62 -6 9 -4 15 6 12 80
-22 166 29 178 105 13 81 58 108 74 44 6 -22 10 -15 12 19 2 63 -62 117 -137
114 -43 -2 -41 -5 16 -18 85 -20 119 -51 69 -64 -42 -11 -193 51 -173 71 8 7
-2 13 -21 13 -21 0 -29 -9 -20 -23 10 -17 3 -19 -24 -7 -80 34 -164 33 -230
-2 -38 -20 -110 -37 -161 -37 l-92 -1 37 48 c21 26 38 77 38 113 0 49 11 70
40 79 33 11 39 29 37 106 l-3 94 -12 -88 c-15 -111 -62 -136 -62 -34 0 59 19
92 105 183 58 62 111 127 119 146 60 149 -63 408 -180 377 -25 -7 -23 -10 9
-12 133 -7 225 -332 119 -420 -21 -18 -24 -4 -17 74 14 147 -39 245 -170 314
-2 2 19 82 48 179 59 200 50 277 -45 390 -47 56 -48 61 -13 61 61 0 108 -69
125 -184 13 -96 15 -98 18 -29 5 167 -100 272 -204 204 -92 -60 -200 -389
-199 -606 0 -69 -7 -125 -15 -125 -29 0 -40 220 -40 815 l0 605 -519 0 c-324
0 -523 7 -531 20 -7 11 -21 20 -32 20 -11 0 -15 -9 -8 -20 7 -12 -17 -20 -61
-20 -64 0 -71 4 -48 31 14 17 38 26 54 20 38 -15 105 23 105 60 0 16 -9 29
-20 29 -11 0 -20 -9 -20 -20 0 -11 -18 -20 -40 -20 -61 0 -17 134 65 196 47
35 44 98 -5 129 -38 24 -40 46 -40 517 0 693 30 682 -660 245z m603 260 c48
-43 47 -92 -2 -136 -90 -82 -212 40 -130 130 43 48 84 50 132 6z m-148 -152
c36 -40 126 -46 161 -11 19 19 24 -71 24 -405 0 -408 -2 -431 -40 -454 -51
-32 -51 -95 0 -131 40 -28 40 -28 -2 -82 -28 -36 -38 -69 -30 -101 25 -98 -32
-111 -497 -111 -469 0 -549 13 -651 109 -149 139 -246 165 -361 97 -64 -38
-98 -19 -182 99 l-39 54 58 -11 c85 -17 176 38 226 137 24 47 57 103 75 125
31 37 31 38 -2 12 -23 -18 -35 -19 -35 -4 0 12 9 23 20 25 42 5 52 8 125 43
41 20 75 47 76 60 2 50 1028 668 1036 624 4 -22 21 -56 38 -75z m-1316 -720
c0 -27 -160 -115 -209 -115 -54 0 -32 29 65 84 105 60 145 69 144 31z m209
-439 c136 -100 125 -150 -17 -81 l-90 44 -129 -58 c-111 -50 -131 -54 -141
-27 -7 18 -17 27 -24 20 -12 -13 170 -298 271 -422 170 -212 -70 -80 -359 197
-174 166 -178 171 -118 171 57 0 116 33 199 110 164 153 251 163 408 46z m-28
-106 c47 -27 41 -29 -90 -28 -135 1 -138 2 -80 29 76 35 108 34 170 -1z m-610
-110 l57 -60 -483 0 -484 0 0 60 0 60 426 0 427 0 57 -60z m1690 0 l-70 -59
-634 0 c-677 -1 -676 -1 -676 95 0 12 280 20 725 21 l725 2 -70 -59z m400 7
c107 -70 115 -67 -183 -67 l-263 0 76 60 c103 82 253 85 370 7z m940 -7 l0
-60 -404 0 c-404 0 -404 0 -480 53 -42 29 -76 56 -76 60 0 4 216 7 480 7 l480
0 0 -60z m-2837 -190 l78 -71 -355 6 c-325 5 -356 8 -362 41 -17 88 1 94 288
94 l273 0 78 -70z m1269 -1 l-79 -69 -443 0 -442 0 -44 59 c-24 33 -44 64 -44
70 0 6 254 11 565 10 l565 -1 -78 -69z m900 8 c48 -35 88 -67 88 -70 0 -4
-232 -7 -515 -6 l-515 1 78 69 79 69 348 0 348 0 89 -63z m228 -7 c0 -59 -7
-70 -45 -70 -25 0 -89 32 -144 70 l-98 70 143 0 144 0 0 -70z m280 -10 c0 -11
-40 -20 -90 -20 -49 0 -90 9 -90 20 0 11 41 20 90 20 50 0 90 -9 90 -20z
m-227 -182 c49 -34 87 -65 83 -68 -11 -12 -1817 -273 -1838 -266 -11 4 23 40
76 80 53 40 159 128 236 194 l140 122 606 0 607 0 90 -62z m387 -159 c0 -244
-28 -279 -50 -63 -17 177 -21 182 -130 166 -82 -13 -98 -8 -177 52 l-86 66
221 0 222 0 0 -221z m-140 -23 c0 -36 -4 -38 -35 -14 -19 15 -15 4 10 -24 25
-28 45 -68 46 -89 0 -22 30 -185 66 -364 58 -285 64 -372 24 -306 -13 20 -507
381 -540 393 -12 5 -34 -12 -49 -37 -15 -25 -140 -195 -276 -379 l-248 -334
-230 170 c-126 93 -242 174 -256 180 -16 6 -105 -96 -234 -270 -114 -154 -213
-281 -218 -281 -6 -1 -40 213 -76 474 -37 261 -74 506 -84 544 -10 38 -16 71
-13 74 12 13 2020 305 2034 296 9 -5 22 0 29 11 19 31 50 4 50 -44z m351 -876
c45 0 49 -8 49 -97 0 -110 -70 -205 -116 -159 -45 45 -27 -68 20 -123 24 -28
12 -19 -27 19 -40 39 -65 75 -57 80 18 13 0 160 -20 160 -27 0 -80 -97 -69
-126 8 -21 -4 -25 -50 -18 -44 6 -81 -7 -144 -54 -83 -60 -150 -74 -223 -45
-35 14 -34 16 5 52 57 52 51 101 -19 151 -33 23 -60 56 -60 71 0 36 15 37 50
2 41 -41 116 -18 161 48 59 89 96 95 81 13 -13 -70 40 -154 97 -154 15 0 41
-5 57 -11 20 -8 45 21 82 94 41 83 52 95 53 56 1 -34 12 -18 35 51 30 88 35
93 40 45 5 -43 17 -55 55 -55z m-594 54 c16 -20 16 -33 -1 -50 -37 -37 -56
-28 -56 26 0 55 23 64 57 24z m-197 -138 c47 -107 40 -116 -88 -116 -137 0
-143 9 -68 113 78 109 108 109 156 3z m-3329 -10 c17 -24 19 -47 4 -79 -32
-70 -3 -133 84 -187 90 -55 101 -96 41 -150 -47 -42 -51 -84 -12 -128 26 -30
72 -246 72 -339 0 -39 -11 -43 -107 -43 l-107 0 -13 195 c-17 252 -17 765 0
765 7 0 24 -15 38 -34z m380 -109 c49 -95 -46 -140 -121 -57 -35 39 -35 41 0
80 51 56 84 50 121 -23z m3541 -189 c-7 -17 -12 -166 -12 -330 l0 -298 -93 0
-93 0 11 125 c14 158 -21 82 -38 -84 l-12 -112 130 -122 c118 -110 164 -210
71 -154 -227 137 -304 249 -276 400 35 189 43 207 86 207 98 0 145 106 74 170
-60 54 -49 95 40 150 44 27 80 56 80 65 0 8 10 15 22 15 12 0 17 -14 10 -32z
m-3657 -363 c70 -245 50 -312 -136 -456 -185 -142 -215 -89 -42 74 l126 119
-9 114 c-5 63 -16 139 -24 169 -25 94 58 75 85 -20z m4375 15 c15 -24 -64 -24
-120 0 -32 14 -26 17 34 19 40 0 79 -8 86 -19z m-5586 -140 c10 -68 -12 -79
-43 -21 -29 53 -26 81 7 81 15 0 31 -26 36 -60z m3056 -275 c-1 -25 -5 -28
-16 -10 -12 18 -147 26 -515 30 l-499 6 515 4 c479 5 515 3 515 -30z m-133
-34 c15 -40 -14 -55 -77 -39 l-53 13 47 26 c62 34 70 34 83 0z m-1007 -131 c0
-87 -26 -104 -61 -38 -18 33 -15 49 13 80 46 51 48 50 48 -42z m974 47 c-7 -6
-200 -13 -428 -14 l-416 -1 359 -6 c503 -10 508 -46 7 -46 -375 0 -392 2 -402
40 -10 39 0 40 441 40 249 0 446 -6 439 -13z m-230 -102 c-124 -3 -322 -3
-440 0 -118 4 -16 6 226 6 242 0 338 -2 214 -6z"/>
<path d="M1510 3560 c-19 -30 7 -60 52 -60 33 0 36 6 18 40 -23 44 -51 51 -70
20z"/>
<path d="M3606 2896 c-58 -28 -112 -144 -95 -202 38 -123 182 -175 286 -102
179 125 6 399 -191 304z"/>
<path d="M1369 3271 c-99 -99 -39 -259 97 -259 99 0 154 54 154 150 0 139
-154 206 -251 109z"/>
<path d="M1745 3246 c40 -10 48 -46 10 -46 -17 -1 -15 -7 5 -20 27 -17 27 -19
0 -20 -27 -1 -27 -3 0 -20 25 -16 25 -23 3 -37 -47 -31 28 -43 269 -43 215 0
228 2 228 40 0 22 -11 41 -25 41 -14 1 -112 0 -218 -1 -133 -1 -198 5 -208 22
-12 19 61 22 328 12 325 -12 343 -10 343 25 0 56 -36 61 -417 59 -194 -2 -337
-7 -318 -12z"/>
<path d="M1302 2752 c-17 -20 -20 -60 -11 -122 l14 -92 48 45 c28 26 43 58 37
75 -7 17 -6 24 2 16 8 -8 38 6 66 31 44 38 47 39 17 3 -46 -55 -44 -72 16
-129 l51 -48 -6 119 -6 120 -102 6 c-71 4 -109 -3 -126 -24z"/>
<path d="M1644 2756 c-31 -31 -31 -181 0 -212 13 -13 61 -24 106 -24 103 0
130 27 130 130 0 103 -27 130 -130 130 -45 0 -93 -11 -106 -24z m169 -53 c-41
-45 -41 -60 1 -111 31 -38 30 -38 -13 2 l-47 43 -39 -43 -38 -44 31 49 c25 39
26 55 6 80 -21 27 -20 28 8 6 26 -20 38 -18 68 15 20 22 41 40 46 40 6 0 -5
-16 -23 -37z"/>
<path d="M1985 2767 c-32 -13 -33 -191 -1 -223 13 -13 61 -24 106 -24 103 0
130 27 130 130 0 117 -105 169 -235 117z m131 -87 c17 14 18 13 4 -4 -13 -16
-8 -37 15 -65 34 -40 34 -40 -6 -6 -28 23 -49 28 -65 15 -17 -14 -18 -13 -4 4
13 16 8 37 -15 65 -34 40 -34 40 6 6 28 -23 49 -28 65 -15z"/>
<path d="M1372 2583 c-32 -36 -30 -38 41 -50 92 -15 104 -5 57 47 -45 49 -55
50 -98 3z"/>
<path d="M620 1787 c0 -96 10 -151 31 -178 31 -38 31 -38 12 1 -10 22 -20 98
-20 168 -1 70 -7 133 -13 138 -5 6 -10 -52 -10 -129z"/>
<path d="M2005 1636 c-70 -88 1 -117 270 -112 l255 6 0 60 0 60 -252 6 c-186
4 -258 -2 -273 -20z"/>
<path d="M1941 1527 c-2 -55 58 -68 282 -62 l227 6 -234 5 c-199 3 -237 9
-254 39 -12 19 -21 25 -21 12z"/>
</g>
</svg>
