<?xml version="1.0" standalone="no"?>
<!DOCTYPE svg PUBLIC "-//W3C//DTD SVG 20010904//EN"
 "http://www.w3.org/TR/2001/REC-SVG-20010904/DTD/svg10.dtd">
<svg version="1.0" xmlns="http://www.w3.org/2000/svg"
 width="6000.000000pt" height="6000.000000pt" viewBox="0 0 6000.000000 6000.000000"
 preserveAspectRatio="xMidYMid meet">
<metadata>
Created by potrace 1.10, written by Peter Selinger 2001-2011
</metadata>
<g transform="translate(0.000000,6000.000000) scale(0.100000,-0.100000)"
fill="#000000" stroke="none">
<path d="M12310 59986 c0 -8 -10 -17 -22 -21 -25 -7 -84 -29 -135 -52 -18 -7
-50 -21 -70 -30 -21 -9 -45 -19 -54 -23 -8 -4 -107 -47 -219 -95 -112 -48
-211 -91 -219 -95 -9 -4 -32 -14 -51 -23 -120 -53 -179 -80 -212 -95 -47 -21
-49 -42 -5 -42 17 -1 61 -7 97 -15 36 -8 88 -15 115 -15 53 -1 230 -32 230
-40 0 -3 -34 -74 -75 -157 -77 -158 -99 -183 -126 -145 -23 33 -185 147 -264
187 -41 20 -83 41 -92 46 -25 13 -132 45 -210 63 -92 22 -368 22 -452 1 -133
-34 -293 -93 -327 -122 -8 -7 -18 -13 -22 -13 -19 0 -163 -111 -235 -181 -134
-133 -223 -278 -291 -479 -22 -65 -51 -255 -51 -335 0 -83 32 -292 50 -325 5
-10 10 -26 10 -34 0 -15 51 -134 71 -166 5 -8 13 -24 18 -36 23 -52 85 -136
162 -218 256 -273 593 -400 960 -362 70 7 131 16 137 20 6 3 30 10 54 15 96
21 217 77 350 163 63 41 229 202 268 261 29 43 39 43 114 1 56 -31 65 -48 41
-74 -16 -18 -17 -23 -5 -46 12 -21 81 -70 140 -97 8 -4 29 -16 45 -27 17 -11
37 -23 45 -27 8 -4 47 -25 85 -48 39 -22 77 -44 85 -48 8 -4 29 -16 45 -27 17
-11 37 -23 45 -27 8 -4 47 -26 85 -48 39 -23 77 -44 85 -48 8 -4 29 -16 45
-26 17 -11 53 -32 80 -47 89 -49 100 -55 130 -74 17 -11 37 -23 45 -27 8 -4
59 -33 113 -65 54 -32 101 -58 103 -58 2 0 23 -12 47 -27 23 -15 60 -37 82
-49 62 -33 89 -48 105 -60 49 -36 97 -22 128 37 13 24 32 58 42 74 38 61 60
106 60 124 0 18 -22 42 -50 55 -8 3 -28 15 -45 26 -16 11 -37 23 -45 27 -8 4
-44 24 -79 46 -35 21 -74 43 -85 48 -12 5 -34 18 -51 29 -16 11 -37 23 -45 27
-8 4 -58 32 -110 63 -52 31 -102 59 -110 63 -8 4 -28 16 -45 27 -16 11 -43 26
-60 34 -16 8 -52 29 -80 45 -27 17 -59 35 -70 41 -11 6 -29 16 -40 23 -11 7
-51 30 -90 52 -38 22 -79 45 -90 52 -11 7 -29 17 -40 23 -11 6 -42 24 -70 41
-27 16 -63 37 -80 45 -16 8 -43 23 -60 34 -109 69 -151 76 -183 33 -21 -29
-12 -31 -115 24 -37 19 -43 37 -24 76 60 124 97 299 97 454 0 130 -36 340 -69
402 -13 24 -14 98 -2 106 6 3 21 29 36 58 14 28 30 59 35 67 20 32 100 172
100 176 0 14 64 104 74 104 16 0 54 -42 136 -150 35 -47 73 -94 83 -105 10
-11 30 -39 45 -62 47 -74 52 -61 52 125 0 92 -7 289 -15 437 -8 149 -15 332
-15 408 l0 137 -35 0 c-24 0 -35 -5 -35 -14z m-1430 -836 c189 -23 361 -108
498 -247 69 -70 83 -98 62 -119 -11 -11 -57 -99 -166 -314 -37 -74 -76 -145
-87 -157 l-19 -21 -135 91 c-74 51 -142 97 -151 102 -9 6 -42 29 -74 53 -31
23 -59 42 -63 42 -4 0 -32 19 -63 43 -32 23 -65 47 -74 52 -9 6 -49 33 -90 61
-168 116 -210 144 -216 144 -8 0 -29 -22 -86 -95 -49 -60 -76 -93 -97 -114 -8
-9 -36 -43 -62 -76 -75 -96 -92 -115 -106 -115 -33 0 35 178 116 302 77 118
210 233 338 292 22 11 48 23 59 28 88 45 270 65 416 48z m-513 -652 c32 -28
129 -122 217 -207 193 -190 247 -242 362 -351 251 -238 246 -235 280 -231 7 0
14 9 18 19 3 9 15 31 25 47 11 17 31 50 44 75 14 25 34 61 46 80 11 19 24 42
28 50 4 8 25 47 48 85 22 39 44 77 48 85 4 8 16 29 26 46 10 17 30 51 43 75
37 69 59 99 69 93 23 -14 -3 -220 -41 -334 -58 -170 -185 -334 -337 -436 -64
-42 -166 -94 -187 -94 -8 0 -30 -6 -48 -14 -18 -8 -66 -19 -106 -25 -247 -38
-499 36 -695 203 -41 35 -135 149 -175 211 -28 45 -71 156 -84 218 -12 53 -3
70 73 154 18 21 61 70 94 108 33 39 74 86 92 105 17 19 42 47 55 62 13 15 29
27 35 27 7 1 39 -22 70 -51z"/>
<path d="M7305 59260 c-22 -6 -56 -13 -75 -16 -40 -7 -131 -36 -175 -56 -209
-94 -328 -303 -312 -552 6 -88 12 -115 45 -201 15 -38 58 -101 92 -135 97 -96
238 -153 535 -215 263 -55 343 -93 380 -182 42 -100 -9 -211 -123 -265 -44
-21 -60 -22 -242 -22 -131 0 -208 4 -235 13 -22 7 -56 16 -75 21 -69 16 -213
70 -282 106 -14 8 -36 14 -47 14 -21 0 -21 -4 -21 -174 0 -96 3 -182 6 -191 7
-17 56 -40 114 -55 19 -4 80 -19 135 -33 174 -44 327 -60 503 -54 284 10 447
60 577 179 65 60 135 175 135 223 0 23 23 55 40 55 4 0 10 -87 12 -194 1 -107
7 -198 11 -203 9 -9 1084 -6 1244 4 91 5 102 8 107 26 3 11 2 89 -1 173 l-6
154 -436 2 -436 3 -9 213 c-8 202 -7 215 10 232 17 16 50 18 319 24 165 3 337
6 383 6 l82 0 -2 177 -3 177 -295 -2 c-162 -1 -334 -5 -381 -8 -79 -6 -88 -5
-108 15 -20 20 -21 31 -21 186 0 164 0 166 23 174 13 5 201 13 418 18 217 4
400 12 408 17 11 7 13 37 7 162 -3 84 -9 160 -13 169 -5 16 -39 16 -412 10
-223 -4 -518 -10 -656 -14 l-250 -6 0 -580 c0 -625 -1 -640 -48 -529 -43 101
-116 174 -232 232 -100 51 -179 73 -415 117 -47 9 -105 21 -130 27 -25 6 -61
14 -80 18 -100 22 -168 75 -181 143 -14 76 2 136 49 177 72 64 121 75 332 74
141 -1 196 -6 230 -18 25 -9 54 -16 65 -16 27 0 160 -44 223 -73 37 -17 42 4
41 168 -2 200 -3 205 -59 220 -53 14 -200 40 -320 55 -115 16 -396 21 -445 10z"/>
<path d="M4074 57935 c-10 -8 -36 -15 -56 -15 -20 0 -43 -7 -52 -15 -8 -8 -26
-15 -39 -15 -14 0 -30 -7 -37 -15 -7 -8 -20 -15 -30 -15 -10 0 -23 -7 -30 -15
-7 -8 -21 -15 -32 -15 -10 0 -21 -7 -24 -15 -4 -8 -10 -15 -15 -15 -23 0 -229
-205 -229 -228 0 -5 -7 -12 -15 -16 -8 -3 -15 -14 -15 -24 0 -11 -7 -25 -15
-32 -8 -7 -15 -19 -15 -27 0 -8 -7 -21 -15 -29 -16 -17 -21 -64 -6 -64 11 0
21 25 21 50 0 9 7 23 15 30 8 7 15 21 15 31 0 11 5 19 10 19 6 0 15 11 20 25
5 14 14 25 20 25 5 0 10 5 10 11 0 34 165 199 199 199 6 0 11 5 11 11 0 5 14
15 30 20 17 6 30 15 30 20 0 5 8 9 19 9 10 0 24 7 31 15 7 8 23 15 36 15 12 0
29 7 38 15 8 8 30 15 48 15 18 0 44 7 57 17 20 13 54 16 222 16 172 0 201 -2
217 -16 10 -9 33 -17 50 -17 18 0 32 -4 32 -10 0 -5 12 -13 28 -16 15 -4 33
-12 41 -17 17 -14 50 -33 78 -46 47 -22 243 -231 243 -260 0 -6 7 -11 15 -11
15 0 21 -21 9 -33 -3 -3 -40 23 -82 58 -150 126 -316 185 -523 185 -296 0
-555 -124 -721 -345 -45 -60 -121 -206 -133 -257 -7 -26 -10 -28 -64 -28 -102
0 -371 -57 -386 -81 -4 -5 -14 -9 -24 -9 -10 0 -24 -7 -31 -15 -16 -20 -259
-22 -278 -3 -10 10 -15 10 -22 -2 -18 -29 -3 -35 96 -38 54 -1 105 -4 112 -7
10 -4 3 -17 -22 -46 -38 -45 -61 -101 -52 -124 8 -23 3961 -23 3969 0 7 16
-55 99 -97 133 -31 24 -33 38 -6 45 11 3 20 9 20 15 0 20 -102 142 -145 173
-25 18 -45 36 -45 41 0 4 -9 8 -19 8 -10 0 -21 7 -25 15 -3 8 -16 15 -29 15
-14 0 -30 7 -37 15 -13 16 -80 21 -80 6 0 -12 26 -21 60 -21 16 0 30 -7 34
-15 3 -8 16 -15 30 -15 13 0 26 -7 30 -15 3 -8 10 -15 15 -15 28 0 176 -153
165 -171 -8 -14 -62 -11 -92 5 -109 57 -213 74 -334 56 -46 -6 -97 -18 -114
-25 -18 -8 -47 -17 -66 -20 -32 -6 -36 -3 -63 34 -33 49 -157 168 -188 182
-12 5 -29 13 -37 18 -109 65 -313 92 -415 56 -22 -8 -48 -15 -57 -15 -17 0
-69 -20 -120 -46 -41 -22 -54 -17 -78 29 -12 23 -34 60 -50 83 -26 39 -26 41
-9 62 9 12 26 22 37 22 11 0 25 7 32 15 7 8 24 15 39 15 15 0 37 7 49 16 18
12 53 15 182 15 146 0 186 7 144 23 -9 3 -77 6 -153 6 -105 0 -142 -3 -157
-15 -10 -8 -33 -15 -50 -15 -17 0 -37 -7 -44 -15 -7 -8 -23 -15 -36 -15 -13 0
-27 -8 -33 -17 -9 -17 -12 -16 -35 6 -14 14 -26 32 -26 42 0 10 -6 22 -12 26
-15 9 -33 37 -48 71 -5 12 -14 22 -20 22 -5 0 -10 4 -10 9 0 22 -194 201 -218
201 -5 0 -15 7 -22 15 -7 8 -20 15 -30 15 -10 0 -20 7 -24 15 -3 9 -18 15 -35
15 -16 0 -31 6 -35 15 -3 10 -19 15 -43 15 -21 0 -47 7 -57 15 -16 12 -57 15
-201 15 -144 0 -185 -3 -201 -15z"/>
<path d="M5592 57488 c3 -7 17 -14 33 -16 15 -2 34 -10 42 -18 8 -8 23 -14 33
-14 10 0 20 -7 24 -15 3 -8 12 -15 20 -15 20 0 174 -153 186 -185 8 -20 16
-25 44 -25 18 0 39 7 46 15 7 8 29 15 49 15 21 0 46 7 57 15 14 10 47 14 122
15 106 0 136 14 56 26 -54 8 -143 -1 -158 -16 -5 -5 -31 -10 -57 -10 -29 0
-51 -6 -59 -15 -24 -29 -66 -18 -102 27 -34 44 -96 108 -103 108 -2 0 -19 14
-37 30 -18 17 -38 30 -44 30 -6 0 -17 7 -24 15 -7 8 -23 15 -35 15 -13 0 -25
7 -29 15 -7 19 -70 21 -64 3z"/>
<path d="M3417 57363 c-4 -3 -7 -15 -7 -25 0 -16 -10 -18 -92 -18 -98 0 -138
-6 -138 -21 0 -5 51 -9 113 -9 98 0 116 3 130 18 26 29 20 81 -6 55z"/>
<path d="M3063 57283 c-26 -10 -12 -23 26 -23 44 0 71 8 71 21 0 9 -76 11 -97
2z"/>
<path d="M2970 57245 c-7 -8 -20 -15 -30 -15 -10 0 -23 -7 -30 -15 -7 -8 -18
-15 -24 -15 -22 0 -136 -131 -136 -156 0 -33 18 -30 26 3 7 28 95 123 114 123
6 0 13 7 16 15 4 8 14 15 24 15 10 0 23 7 30 15 7 8 21 15 30 15 25 0 50 10
50 21 0 15 -57 10 -70 -6z"/>
<path d="M11110 56803 c-11 -8 -20 -20 -20 -27 0 -8 -7 -16 -15 -20 -8 -3 -15
-12 -15 -21 0 -8 -5 -15 -10 -15 -6 0 -15 -10 -20 -22 -35 -82 -59 -98 -144
-98 -83 0 -136 -8 -136 -21 0 -5 52 -9 115 -9 l114 0 16 30 c9 17 19 30 24 30
5 0 11 8 15 18 8 24 29 56 44 65 6 4 12 12 12 17 0 6 10 20 22 32 25 25 92 26
119 2 8 -8 29 -14 46 -14 17 0 36 -7 43 -15 13 -16 80 -21 80 -6 0 12 -25 21
-57 21 -13 0 -31 7 -39 15 -9 8 -30 15 -49 15 -18 0 -35 5 -37 11 -6 19 -85
28 -108 12z"/>
<path d="M11410 56710 c0 -5 9 -14 20 -20 19 -10 20 -21 20 -151 0 -129 1
-140 19 -147 59 -21 247 -213 278 -282 3 -8 12 -19 20 -23 7 -4 13 -16 13 -25
1 -31 34 -59 80 -66 271 -41 250 -32 250 -100 0 -28 7 -64 15 -80 8 -15 15
-45 15 -66 0 -22 5 -51 10 -66 10 -24 8 -30 -17 -50 -15 -13 -33 -23 -39 -24
-6 0 -17 -7 -24 -15 -7 -8 -21 -15 -32 -15 -10 0 -21 -7 -24 -15 -4 -8 -14
-15 -23 -15 -9 -1 -29 -11 -44 -24 -31 -25 -46 -73 -47 -151 0 -27 -7 -61 -15
-75 -8 -14 -15 -36 -15 -50 0 -14 -7 -34 -15 -44 -8 -11 -15 -30 -15 -42 0
-12 -7 -27 -15 -34 -8 -7 -15 -20 -15 -30 0 -10 -7 -23 -15 -30 -8 -7 -15 -18
-15 -25 0 -7 -7 -18 -15 -25 -8 -7 -15 -29 -15 -50 0 -21 7 -43 15 -50 8 -7
15 -20 15 -30 0 -10 7 -23 15 -30 8 -7 15 -21 15 -31 0 -9 7 -24 15 -33 8 -8
15 -29 15 -46 0 -30 -7 -40 -74 -98 -15 -12 -53 -47 -85 -76 -49 -45 -63 -53
-87 -49 -16 3 -35 11 -43 16 -17 14 -50 33 -78 46 -11 5 -24 15 -28 20 -3 6
-14 11 -25 11 -10 0 -20 7 -24 15 -7 19 -40 19 -56 1 -6 -8 -23 -16 -37 -18
-15 -2 -28 -9 -31 -15 -5 -18 43 -16 58 2 7 8 23 15 35 15 12 0 28 -7 35 -15
7 -8 18 -15 25 -15 7 0 18 -7 25 -15 7 -8 21 -15 31 -15 11 0 19 -5 19 -10 0
-6 8 -13 18 -17 9 -3 25 -13 34 -20 9 -8 33 -15 52 -16 28 -1 43 6 69 34 19
18 63 59 98 89 99 86 110 99 103 129 -4 14 -13 33 -20 42 -8 8 -14 23 -14 31
0 9 -7 21 -15 28 -8 7 -15 23 -15 37 0 13 -7 26 -15 29 -17 7 -22 94 -5 94 5
0 12 11 16 25 3 13 12 29 20 36 8 6 14 19 14 29 0 10 7 23 15 30 8 7 15 25 15
40 0 15 7 33 15 40 8 7 15 27 15 44 1 17 7 42 15 56 8 15 14 53 15 92 0 56 4
71 24 92 13 15 31 26 40 26 9 0 19 6 22 14 3 8 16 17 30 20 13 4 24 11 24 16
0 6 9 10 20 10 11 0 23 7 26 15 4 8 14 15 24 15 24 0 56 48 41 63 -6 6 -11 31
-11 57 0 25 -7 58 -15 74 -8 15 -15 47 -15 70 0 22 -7 54 -15 70 -8 15 -15 35
-15 42 0 11 -21 14 -92 15 -146 1 -196 24 -235 109 -24 53 -236 280 -261 280
-5 0 -16 8 -25 18 -14 15 -17 42 -17 150 0 105 -3 134 -16 146 -17 18 -54 22
-54 6z"/>
<path d="M10159 56613 c-16 -18 -95 -88 -184 -163 -57 -49 -59 -52 -51 -85 9
-35 26 -31 26 4 0 18 8 35 19 43 16 12 53 44 179 155 40 35 52 39 69 22 14
-14 52 -36 76 -45 9 -3 17 -10 17 -15 0 -5 10 -14 23 -20 31 -14 62 -32 81
-48 14 -12 19 -11 34 3 10 9 28 16 41 16 12 0 24 7 27 15 4 9 19 15 39 15 18
0 38 7 45 15 7 9 29 15 54 15 23 0 51 7 62 15 17 13 15 14 -33 15 -33 0 -57
-5 -67 -15 -8 -8 -28 -15 -44 -15 -16 0 -35 -7 -42 -15 -7 -8 -22 -15 -33 -15
-11 0 -28 -7 -38 -16 -19 -17 -26 -16 -74 16 -16 11 -40 24 -52 30 -13 5 -23
14 -23 19 0 5 -8 12 -17 15 -24 9 -62 31 -76 45 -16 16 -40 14 -58 -6z"/>
<path d="M6280 56464 c-133 -36 -177 -51 -240 -85 -78 -42 -101 -56 -149 -93
-102 -79 -216 -215 -260 -312 -12 -27 -38 -34 -134 -34 -141 0 -318 -57 -403
-130 -70 -60 -113 -143 -91 -174 11 -15 165 -16 1607 -14 l1595 3 3 20 c4 26
-87 128 -167 188 -156 119 -373 174 -583 148 -57 -7 -117 -17 -134 -22 -44
-13 -56 -6 -83 53 -22 49 -101 162 -153 219 -61 68 -202 158 -303 195 -140 52
-384 70 -505 38z"/>
<path d="M9950 56306 c0 -14 6 -29 14 -33 8 -4 16 -21 18 -37 1 -16 9 -31 16
-34 17 -5 16 43 -2 58 -8 6 -16 23 -18 37 -4 35 -28 43 -28 9z"/>
<path d="M10013 56134 c0 -42 -4 -59 -17 -66 -9 -5 -16 -17 -16 -27 0 -10 -7
-24 -15 -31 -8 -7 -15 -23 -15 -35 0 -12 -7 -28 -15 -35 -8 -7 -15 -25 -15
-40 0 -15 -7 -33 -15 -40 -10 -8 -15 -30 -15 -64 1 -47 2 -49 15 -32 8 11 15
36 15 57 0 20 7 42 15 49 8 7 15 25 15 40 0 15 7 33 15 40 8 7 15 23 15 36 0
13 4 24 9 24 5 0 13 10 17 23 3 12 13 29 21 38 9 11 13 34 11 65 -4 69 -25 68
-25 -2z"/>
<path d="M10843 56143 c-52 -10 -17 -23 62 -23 88 0 113 13 48 24 -40 6 -74 6
-110 -1z"/>
<path d="M10700 56105 c-7 -8 -23 -15 -35 -15 -12 0 -28 -7 -35 -15 -7 -8 -20
-15 -30 -15 -10 0 -20 -7 -24 -15 -3 -8 -11 -15 -18 -15 -17 0 -128 -111 -128
-128 0 -7 -7 -15 -15 -18 -8 -4 -15 -12 -15 -19 0 -7 -7 -18 -15 -25 -8 -7
-15 -23 -15 -35 0 -12 -7 -28 -15 -35 -16 -13 -21 -80 -6 -80 12 0 21 26 21
60 0 16 7 30 15 34 8 3 15 14 15 24 0 11 7 25 15 32 8 7 15 17 15 22 0 17 153
165 178 172 12 4 22 12 22 17 0 5 9 9 19 9 11 0 26 7 35 15 8 8 28 15 44 15
36 0 62 9 62 21 0 15 -77 10 -90 -6z"/>
<path d="M11000 56111 c0 -11 35 -21 73 -21 29 0 36 14 11 24 -24 9 -84 7 -84
-3z"/>
<path d="M11110 56080 c0 -6 8 -13 18 -16 9 -3 24 -10 32 -15 8 -5 22 -12 30
-16 39 -18 170 -147 170 -167 0 -8 7 -16 15 -20 8 -3 15 -14 15 -24 0 -11 7
-25 15 -32 8 -7 15 -22 15 -34 0 -12 7 -31 15 -42 21 -28 22 -296 0 -314 -8
-7 -15 -24 -15 -39 0 -15 -5 -32 -11 -38 -12 -12 -32 -45 -48 -78 -22 -47
-165 -175 -195 -175 -9 0 -19 -7 -22 -15 -4 -8 -16 -15 -28 -15 -12 0 -32 -8
-45 -17 -36 -25 -321 -25 -349 0 -10 9 -28 17 -40 17 -11 0 -24 5 -27 11 -4 5
-17 15 -28 20 -50 23 -101 62 -141 108 -12 14 -29 33 -38 43 -10 10 -18 22
-18 27 0 5 -7 14 -15 21 -8 7 -15 20 -15 30 0 10 -7 23 -15 30 -8 7 -15 23
-15 35 0 30 -10 55 -21 55 -15 0 -10 -67 6 -80 8 -7 15 -23 15 -35 0 -13 7
-25 15 -29 8 -3 15 -15 15 -26 0 -11 7 -23 15 -26 8 -4 15 -11 15 -16 0 -16
130 -138 146 -138 8 0 14 -4 14 -10 0 -5 11 -12 25 -16 13 -3 29 -12 36 -20 6
-8 23 -14 38 -14 14 0 35 -7 45 -15 29 -22 308 -22 330 0 8 8 26 15 40 15 13
0 31 7 40 15 8 8 21 15 29 15 8 0 20 7 27 15 7 8 16 15 20 15 23 0 170 147
170 170 0 4 7 13 15 20 8 7 15 20 15 30 0 10 7 23 15 30 8 7 15 27 15 44 0 17
7 40 15 50 11 15 15 50 15 141 0 91 -4 126 -15 141 -8 10 -15 33 -15 50 0 17
-7 37 -15 44 -8 7 -15 18 -15 26 0 19 -58 103 -99 144 -46 46 -116 100 -129
100 -5 0 -15 7 -22 15 -14 17 -60 21 -60 5z"/>
<path d="M1670 55919 c-104 -37 -100 -32 -100 -123 l0 -81 -75 -68 c-40 -37
-91 -94 -111 -127 -39 -64 -41 -65 -138 -75 -67 -6 -86 -17 -86 -50 0 -12 -7
-42 -15 -65 -8 -23 -15 -57 -15 -74 0 -29 7 -35 68 -70 37 -21 68 -40 70 -41
3 -3 13 -42 38 -155 3 -14 22 -58 41 -98 37 -79 37 -82 -4 -172 l-26 -55 73
-67 c68 -65 109 -84 125 -59 3 5 29 22 58 36 51 26 53 26 97 10 69 -25 200
-54 247 -55 34 0 46 -6 67 -31 15 -17 33 -44 41 -59 23 -44 50 -46 155 -10 88
30 85 27 86 123 0 81 2 89 25 104 53 37 122 110 160 169 l40 62 76 11 c41 6
79 14 84 17 11 7 36 95 43 156 6 52 5 53 -69 93 -27 15 -54 31 -58 35 -5 4
-14 40 -22 81 -16 87 -34 139 -71 205 -25 45 -26 49 -12 78 29 60 48 107 48
119 0 6 -30 40 -67 74 -68 62 -105 77 -130 52 -11 -11 -36 -26 -82 -51 -19
-10 -31 -9 -70 6 -64 24 -112 35 -210 45 -56 6 -88 14 -95 24 -6 8 -26 35 -43
61 -38 53 -54 56 -143 25z m404 -427 c64 -32 128 -99 164 -171 23 -48 27 -68
27 -146 0 -78 -4 -98 -27 -146 -37 -75 -100 -139 -172 -173 -52 -26 -70 -29
-155 -29 -87 0 -101 2 -151 29 -100 53 -157 124 -186 232 -45 170 34 330 206
414 71 35 215 30 294 -10z"/>
<path d="M9873 55723 c-7 -12 -13 -41 -13 -65 0 -44 -23 -78 -54 -78 -7 0 -19
-7 -26 -15 -7 -8 -20 -15 -30 -15 -10 0 -23 -7 -30 -15 -7 -8 -18 -15 -26 -15
-7 0 -19 -6 -26 -13 -7 -7 -21 -16 -30 -20 -18 -6 -24 -49 -12 -81 10 -27 24
-18 24 15 0 40 16 69 39 69 10 0 24 7 31 15 7 8 21 15 32 15 10 0 21 7 24 15
4 8 17 15 30 15 14 0 27 7 30 15 4 8 12 15 19 15 26 0 36 28 33 97 -3 60 -4
65 -15 46z"/>
<path d="M10316 55658 c-12 -47 -6 -194 9 -214 13 -17 14 -6 15 109 0 118 -9
159 -24 105z"/>
<path d="M9650 55321 c0 -54 7 -81 21 -81 10 0 12 73 3 108 -11 39 -24 24 -24
-27z"/>
<path d="M9680 55180 c0 -59 28 -73 154 -78 101 -5 146 -19 146 -47 0 -7 7
-15 15 -19 8 -3 15 -15 15 -26 0 -11 7 -23 15 -26 8 -4 15 -11 15 -16 0 -23
185 -227 206 -228 5 -1 23 -12 39 -25 l30 -25 5 -142 c3 -79 9 -149 13 -155 5
-7 19 -13 33 -13 14 0 32 -7 40 -15 9 -8 30 -15 48 -15 19 0 39 -7 46 -15 7
-8 27 -15 45 -15 18 0 38 -7 45 -15 8 -9 29 -15 54 -15 36 1 44 5 64 36 12 20
22 40 22 45 0 5 5 9 10 9 6 0 14 8 18 18 14 36 68 101 87 106 11 3 50 6 88 6
38 0 67 4 67 10 0 13 -166 13 -191 0 -10 -6 -19 -17 -19 -25 0 -8 -6 -18 -12
-22 -15 -9 -33 -37 -48 -70 -5 -13 -14 -23 -20 -23 -5 0 -10 -6 -10 -13 0 -40
-93 -65 -120 -32 -7 8 -27 15 -44 15 -17 0 -40 7 -50 15 -11 8 -35 15 -53 15
-18 0 -33 4 -33 9 0 5 -13 14 -30 20 l-30 10 0 143 0 143 -56 40 c-69 49 -202
190 -217 230 -4 8 -11 15 -17 15 -5 0 -10 9 -10 20 0 10 -6 23 -14 27 -8 4
-15 17 -17 27 -8 40 -65 61 -182 65 -107 3 -107 3 -113 30 -11 51 -15 61 -25
61 -5 0 -9 -18 -9 -40z"/>
<path d="M3280 54985 c-150 -33 -265 -152 -303 -311 -16 -66 -17 -204 -17
-1711 0 -1771 -2 -1691 52 -1803 38 -79 179 -200 232 -200 19 0 46 -34 46 -59
0 -12 7 -24 15 -27 8 -4 15 -15 15 -25 0 -23 69 -117 101 -139 12 -8 31 -23
41 -32 10 -10 27 -18 37 -18 10 0 21 -7 25 -15 3 -9 18 -15 35 -15 16 0 42 -7
57 -15 26 -13 356 -15 2749 -15 1496 0 2730 3 2743 6 12 4 22 10 22 15 0 5
-1170 9 -2761 9 -2440 0 -2762 2 -2775 15 -9 8 -29 15 -45 15 -16 0 -29 4 -29
9 0 5 -10 13 -22 17 -29 9 -148 128 -148 147 0 9 -7 23 -16 31 -8 9 -14 27
-12 41 l3 25 2735 3 c2516 2 2739 3 2780 19 55 20 97 42 129 67 l25 19 -94
123 c-52 68 -96 126 -100 129 -3 3 -18 23 -35 45 -16 22 -32 42 -35 45 -31 25
-301 398 -330 457 -8 16 -20 35 -26 43 -7 8 -16 27 -19 43 -6 23 -4 27 13 27
29 0 43 23 49 85 3 30 9 58 13 60 13 8 47 -24 64 -59 9 -19 16 -51 16 -71 0
-32 8 -44 60 -92 33 -31 60 -63 60 -72 1 -34 39 -81 120 -151 47 -40 87 -76
90 -79 3 -3 36 -33 74 -66 l68 -59 19 23 c11 13 19 29 19 37 0 22 33 84 44 84
6 0 68 -49 139 -109 127 -110 180 -151 191 -151 4 0 11 12 16 26 23 58 30 8
30 -202 0 -178 -3 -218 -15 -230 -8 -9 -15 -28 -15 -44 0 -16 -7 -30 -15 -34
-8 -3 -15 -12 -15 -21 0 -20 -115 -135 -135 -135 -9 0 -18 -7 -21 -15 -4 -8
-17 -15 -29 -15 -30 0 -55 -10 -55 -21 0 -13 67 -11 75 2 4 5 17 15 28 20 55
25 137 95 137 116 0 6 7 16 15 23 8 7 15 20 15 30 0 10 7 20 15 24 9 3 15 18
15 35 0 16 7 42 15 57 20 38 22 413 3 444 -11 16 -10 25 5 47 10 16 24 40 30
56 16 38 35 34 43 -10 11 -57 -4 -462 -21 -598 -32 -243 -47 -351 -56 -409
-12 -66 -8 -75 43 -85 27 -6 33 -11 30 -31 -1 -13 -9 -31 -17 -40 -8 -9 -15
-24 -15 -34 0 -10 -7 -24 -15 -32 -8 -9 -15 -24 -15 -33 0 -10 -7 -24 -15 -31
-8 -7 -15 -23 -15 -35 0 -13 -7 -25 -15 -29 -8 -3 -15 -16 -15 -30 0 -13 -7
-26 -15 -30 -8 -3 -15 -16 -15 -29 0 -14 -7 -30 -15 -37 -8 -7 -15 -20 -15
-30 0 -10 -7 -23 -15 -30 -8 -7 -15 -23 -15 -35 0 -13 -7 -25 -15 -29 -8 -3
-15 -15 -15 -26 0 -12 -7 -28 -15 -36 -8 -9 -15 -24 -15 -33 0 -10 -7 -24 -15
-31 -8 -7 -15 -23 -15 -35 0 -13 -7 -25 -15 -29 -16 -6 -22 -66 -6 -66 11 0
21 25 21 50 0 10 7 20 15 24 8 3 15 16 15 29 0 14 7 30 15 37 8 7 15 23 15 35
0 13 7 25 15 29 8 3 15 16 15 30 0 13 7 26 15 30 8 3 15 16 15 29 0 14 7 30
15 37 8 7 15 20 15 30 0 10 7 23 15 30 8 7 15 23 15 35 0 13 7 25 15 29 8 3
15 16 15 29 0 14 7 30 15 37 8 7 15 23 15 35 0 13 7 25 15 29 8 3 15 16 15 30
0 13 7 26 15 30 8 3 15 16 15 29 0 14 7 30 15 37 8 7 15 20 15 30 0 24 20 30
98 30 155 -1 512 49 762 105 65 15 120 19 120 10 0 -5 -14 -34 -32 -65 -4 -8
-12 -25 -17 -37 -6 -11 -15 -24 -20 -28 -6 -3 -11 -14 -11 -25 0 -10 -7 -20
-15 -24 -8 -3 -15 -14 -15 -24 0 -11 -7 -25 -15 -32 -8 -7 -15 -20 -15 -30 0
-10 -7 -20 -15 -24 -8 -3 -15 -14 -15 -25 0 -11 -5 -23 -11 -26 -5 -4 -14 -17
-20 -28 -5 -12 -13 -29 -18 -37 -5 -8 -12 -22 -15 -30 -4 -8 -15 -28 -26 -45
-11 -16 -22 -36 -25 -42 -3 -7 -7 -19 -10 -25 -3 -7 -14 -26 -25 -43 -11 -16
-22 -37 -26 -45 -3 -8 -10 -22 -15 -30 -5 -8 -14 -24 -19 -35 -6 -11 -19 -33
-30 -50 -11 -16 -22 -36 -25 -42 -3 -7 -7 -19 -10 -25 -3 -7 -14 -26 -25 -43
-11 -16 -22 -36 -25 -42 -3 -7 -7 -19 -10 -25 -3 -7 -16 -31 -30 -53 -13 -22
-24 -56 -25 -76 0 -20 -7 -42 -15 -49 -9 -7 -15 -30 -15 -54 0 -22 -7 -50 -15
-60 -8 -11 -15 -38 -15 -60 0 -23 -7 -50 -15 -60 -8 -11 -15 -37 -15 -59 0
-21 -7 -45 -15 -53 -8 -9 -15 -34 -15 -57 0 -23 -7 -51 -15 -61 -8 -11 -15
-39 -15 -62 0 -25 -6 -47 -15 -54 -9 -7 -15 -30 -15 -54 0 -22 -7 -50 -15 -60
-8 -11 -15 -38 -15 -60 0 -23 -7 -50 -15 -60 -8 -11 -15 -37 -15 -59 0 -21 -7
-45 -15 -53 -8 -9 -15 -34 -15 -57 0 -23 -7 -51 -15 -61 -8 -11 -15 -39 -15
-62 0 -25 -6 -47 -15 -54 -9 -7 -15 -30 -15 -54 0 -22 -7 -50 -15 -60 -8 -11
-15 -38 -15 -60 0 -23 -7 -50 -15 -60 -8 -11 -15 -36 -15 -55 0 -20 -7 -45
-15 -55 -8 -11 -15 -38 -15 -60 0 -23 -7 -50 -15 -60 -8 -11 -15 -37 -15 -59
0 -21 -7 -45 -15 -53 -8 -9 -15 -34 -15 -57 0 -23 -7 -51 -15 -61 -8 -11 -15
-38 -15 -60 0 -23 -7 -50 -15 -60 -8 -11 -15 -36 -15 -55 0 -20 -7 -45 -15
-55 -8 -11 -15 -38 -15 -60 0 -23 -7 -50 -15 -60 -8 -11 -15 -37 -15 -59 0
-21 -7 -45 -15 -53 -8 -9 -15 -33 -15 -54 0 -21 -7 -51 -14 -67 -8 -15 -17
-36 -20 -46 -5 -16 -24 -17 -268 -15 l-263 3 -3 60 c-5 119 -30 105 -31 -18
l-1 -67 298 2 297 3 3 39 c2 22 10 49 18 60 8 11 14 36 14 56 0 19 7 44 15 54
8 11 15 38 15 60 0 23 7 50 15 60 8 11 15 36 15 55 0 20 7 45 15 55 8 11 15
38 15 60 0 23 7 50 15 60 8 11 15 38 15 60 0 23 7 50 15 60 8 11 15 36 15 55
0 20 7 45 15 55 8 11 15 38 15 60 0 23 7 50 15 60 8 11 15 37 15 59 0 21 7 45
15 53 8 9 15 34 15 57 0 23 7 51 15 61 8 11 15 38 15 60 0 23 7 50 15 60 8 11
15 37 15 59 0 21 7 45 15 53 8 9 15 34 15 57 0 23 7 51 15 61 8 11 15 39 15
62 0 25 6 47 15 54 9 7 15 30 15 54 0 22 7 50 15 60 8 11 15 38 15 60 0 23 7
50 15 60 8 11 15 37 15 59 0 21 7 45 15 53 8 9 15 34 15 57 0 23 7 51 15 61 8
11 15 38 15 60 0 23 7 50 15 60 8 11 15 37 15 59 0 21 7 45 15 53 8 9 15 34
15 57 0 23 7 51 15 61 8 11 15 39 15 62 0 24 6 47 14 54 8 6 16 24 18 38 6 53
23 26 29 -45 3 -39 10 -77 16 -85 6 -7 13 -52 14 -100 3 -56 9 -92 18 -100 11
-11 12 2 9 80 -2 52 -9 97 -16 104 -7 7 -12 40 -12 76 0 35 -5 84 -12 109 -8
35 -8 50 0 64 7 10 12 25 12 33 0 8 7 16 15 20 8 3 15 14 15 24 0 11 7 25 15
32 8 7 15 20 15 30 0 10 7 20 15 24 8 3 15 14 15 25 0 11 5 23 11 26 5 4 14
17 20 28 5 12 13 29 18 37 5 8 12 22 15 30 4 8 15 29 26 45 11 17 22 36 25 43
3 6 7 18 10 25 3 6 14 26 25 42 11 17 22 37 26 45 3 8 10 22 15 30 5 8 13 25
18 37 6 11 15 24 20 28 6 3 11 14 11 25 0 10 7 20 15 24 8 3 15 14 15 24 0 11
7 25 15 32 8 7 15 20 15 30 0 10 7 20 15 24 8 3 15 14 15 24 0 11 7 25 15 32
8 7 15 18 15 25 0 7 7 18 15 25 8 7 15 19 15 27 0 23 51 83 70 83 10 0 34 7
53 15 20 8 48 15 62 15 25 0 25 -1 25 -75 0 -41 4 -75 9 -75 4 0 11 35 15 77
8 87 17 103 55 103 62 0 85 45 57 112 -7 18 -22 60 -31 93 -36 120 -48 161
-60 195 -7 19 -21 62 -30 95 -10 33 -23 76 -30 95 -7 19 -18 51 -24 70 -7 19
-16 49 -21 65 -4 17 -31 98 -59 180 -29 83 -56 164 -61 180 -14 49 -32 98 -46
127 -8 14 -14 33 -14 42 0 8 -6 30 -14 48 -8 18 -24 58 -36 88 -24 59 -73 162
-93 195 -60 99 -202 249 -262 276 -11 5 -27 13 -35 18 -70 42 -87 45 -129 28
-23 -9 -58 -23 -78 -31 -21 -8 -57 -21 -80 -30 -24 -9 -62 -23 -85 -32 -98
-37 -125 -48 -173 -70 -27 -12 -53 -20 -57 -18 -5 3 -8 48 -8 99 l0 95 40 20
c49 25 80 81 80 144 0 54 10 62 102 75 86 13 132 34 164 77 36 46 43 127 20
207 -9 30 -16 66 -16 79 -1 78 -57 180 -125 223 -40 26 -175 27 -221 2 -17 -9
-34 -13 -38 -10 -3 4 -6 227 -6 497 0 416 -2 495 -15 520 -8 15 -15 41 -15 57
0 17 -6 32 -15 35 -8 4 -15 14 -15 24 0 20 -116 150 -135 150 -7 0 -18 7 -25
15 -7 8 -23 15 -36 15 -13 0 -24 4 -24 10 0 5 -14 13 -32 18 -17 4 -34 14 -38
22 -77 161 -107 196 -220 258 -77 43 -15 42 -2860 41 -2095 -1 -2717 -4 -2760
-14z m5914 -350 c3 -8 16 -15 30 -15 13 0 26 -7 30 -15 3 -8 10 -15 16 -15 14
0 110 -101 110 -116 0 -6 7 -17 15 -24 8 -7 15 -23 15 -36 0 -12 7 -29 15 -38
13 -13 15 -82 13 -533 l-3 -518 -51 -11 c-41 -9 -60 -8 -90 2 -22 8 -65 14
-96 14 -40 0 -58 4 -58 13 0 6 0 300 0 652 0 352 0 643 0 648 0 14 48 7 54 -8z
m-2224 -365 c37 -26 70 -80 70 -114 0 -40 -34 -99 -68 -118 -17 -10 -50 -18
-76 -18 -39 0 -51 5 -86 38 -37 36 -40 43 -40 91 0 57 19 90 68 123 36 24 97
23 132 -2z m570 -6 c79 -67 78 -173 -3 -223 -54 -33 -113 -28 -162 13 -37 32
-39 36 -40 92 0 44 5 66 20 86 48 64 130 78 185 32z m548 10 c49 -29 67 -63
67 -128 -1 -56 -3 -60 -40 -92 -32 -27 -49 -34 -84 -34 -77 0 -141 61 -141
136 0 95 119 166 198 118z m-2510 -292 c9 -6 12 -34 10 -103 -3 -89 -4 -94
-25 -97 -21 -3 -23 1 -23 42 0 25 -5 48 -11 52 -7 4 -45 -27 -93 -77 -45 -46
-197 -203 -339 -348 l-258 -264 -72 71 c-40 40 -80 72 -88 72 -9 0 -143 -128
-298 -285 -155 -157 -289 -285 -297 -285 -46 0 3 61 285 349 162 166 301 301
309 301 8 0 45 -31 83 -70 38 -38 73 -70 77 -70 3 0 51 46 105 103 54 56 197
202 317 323 121 122 216 224 213 228 -4 3 -20 6 -38 6 -40 0 -70 22 -62 44 5
13 22 16 99 16 51 0 99 -4 106 -8z m1692 -582 c85 -16 139 -34 225 -76 77 -38
102 -53 123 -71 7 -7 17 -13 21 -13 4 0 39 -31 78 -70 178 -173 273 -393 273
-635 0 -265 -111 -501 -320 -680 -30 -26 -64 -51 -75 -56 -11 -5 -33 -18 -50
-29 -16 -11 -37 -23 -45 -26 -8 -3 -28 -12 -45 -19 -103 -45 -241 -75 -345
-75 -211 0 -447 96 -603 247 -60 58 -127 135 -127 146 0 3 -13 25 -28 49 -42
64 -82 168 -106 274 -36 159 -13 353 59 519 7 17 16 37 19 45 24 55 91 148
155 213 208 215 503 311 791 257z m-1702 -72 c16 -16 17 -1479 2 -1509 -10
-17 -23 -19 -151 -19 -78 0 -149 5 -160 10 -19 10 -19 29 -19 758 0 569 3 751
12 760 8 8 58 12 158 12 100 0 150 -4 158 -12z m3745 -317 c50 -33 67 -73 67
-157 0 -74 -1 -77 -45 -134 -25 -32 -45 -66 -45 -75 0 -21 78 -95 101 -95 40
0 49 -26 49 -142 l0 -110 -51 -51 c-28 -29 -58 -65 -66 -82 -7 -16 -35 -70
-61 -120 -44 -84 -49 -90 -79 -90 -26 0 -30 -3 -22 -17 5 -9 14 -18 21 -21 10
-3 7 -14 -9 -43 -11 -21 -40 -76 -63 -121 -22 -46 -46 -83 -53 -83 -42 1 -171
30 -192 44 -36 24 -34 64 4 77 18 6 36 24 45 44 21 43 21 143 1 172 -17 25
-11 50 15 58 10 3 51 -6 91 -20 128 -46 114 -102 117 450 l2 481 53 26 c63 32
84 33 120 9z m221 -74 c10 -8 19 -24 19 -38 0 -35 -35 -103 -56 -107 -19 -4
-19 -3 -38 81 -11 50 -10 60 2 68 20 13 52 11 73 -4z m-4536 -594 l-3 -538
-161 -3 c-124 -2 -163 0 -165 10 -2 7 -3 250 -1 541 l2 527 165 0 165 0 -2
-537z m-503 -228 l0 -310 -165 0 -165 0 -3 300 c-1 165 0 306 3 313 3 10 42
12 167 10 l163 -3 0 -310z"/>
<path d="M6850 52949 c-14 -27 -33 -46 -58 -57 -21 -9 -52 -28 -70 -41 -29
-20 -37 -22 -60 -11 -24 11 -29 9 -54 -19 -33 -37 -36 -71 -8 -96 17 -15 20
-31 20 -102 0 -71 -3 -88 -22 -114 l-23 -30 20 -37 c19 -34 24 -37 65 -38 32
0 56 -8 85 -28 22 -16 50 -32 62 -37 12 -4 31 -26 43 -49 18 -36 24 -40 59
-40 42 0 58 13 70 57 4 16 16 30 27 32 10 2 38 16 62 32 32 22 55 29 90 29 44
0 48 3 69 39 l23 40 -23 28 c-21 24 -24 39 -24 115 -1 73 2 89 18 104 24 21
24 44 2 83 -20 35 -38 42 -71 27 -18 -7 -28 -5 -50 12 -15 12 -48 31 -74 43
-27 12 -48 27 -48 34 0 7 -9 24 -21 39 -15 19 -30 26 -55 26 -29 0 -36 -5 -54
-41z m118 -176 c72 -34 102 -80 102 -156 0 -56 -1 -59 -50 -107 -48 -48 -51
-50 -107 -50 -74 0 -124 31 -153 95 -25 55 -25 86 -1 133 45 87 130 122 209
85z"/>
<path d="M7405 52850 c-17 -16 -43 -31 -59 -34 -16 -3 -31 -7 -34 -10 -10 -10
-7 -168 3 -176 5 -4 24 -11 42 -14 17 -4 39 -18 47 -32 20 -29 47 -31 63 -5
11 18 49 39 96 55 19 6 23 31 7 41 -14 9 -13 61 2 84 16 26 0 44 -52 60 -22 6
-47 23 -56 36 -21 31 -23 31 -59 -5z m71 -83 c34 -29 36 -73 4 -99 -30 -24
-59 -23 -87 4 -36 34 -31 69 17 101 31 22 34 22 66 -6z"/>
<path d="M7406 52489 c-18 -27 -71 -59 -95 -59 -10 0 -29 -8 -42 -18 -21 -18
-22 -20 -6 -43 21 -30 22 -97 1 -120 -23 -25 -3 -59 35 -59 16 0 34 -7 41 -15
7 -8 18 -15 26 -15 7 0 22 -13 34 -30 25 -36 40 -37 66 -9 30 34 91 69 119 69
l26 0 -6 78 c-5 47 -3 87 3 98 17 33 -2 64 -41 64 -19 0 -40 7 -47 15 -7 8
-18 15 -25 15 -7 0 -20 11 -29 25 -20 31 -40 32 -60 4z m83 -115 c25 -21 31
-33 31 -67 0 -57 -30 -87 -85 -87 -48 0 -81 28 -91 77 -5 26 0 36 30 67 44 43
73 46 115 10z"/>
<path d="M11193 54583 c-27 -10 -11 -24 24 -21 44 4 59 28 16 27 -15 0 -34 -3
-40 -6z"/>
<path d="M11050 54547 c-23 -11 -22 -12 24 -15 56 -4 96 4 96 18 0 14 -89 11
-120 -3z"/>
<path d="M12582 54331 c-26 -15 -40 -17 -70 -10 -20 5 -49 12 -65 15 -47 11
-114 -14 -137 -51 -25 -41 -28 -146 -5 -165 9 -7 15 -29 15 -52 0 -25 -5 -41
-15 -44 -8 -4 -15 -14 -15 -24 0 -10 -7 -23 -15 -30 -8 -7 -15 -20 -15 -30 0
-10 -7 -23 -15 -30 -8 -7 -15 -23 -15 -35 0 -13 -7 -25 -15 -29 -9 -3 -15 -18
-15 -34 0 -16 -7 -35 -15 -42 -16 -13 -21 -80 -6 -80 12 0 21 26 21 60 0 16 7
30 15 34 8 3 15 16 15 29 0 14 7 30 15 37 8 7 15 23 15 36 0 13 4 24 10 24 5
0 12 11 16 25 3 13 12 29 20 36 8 6 14 19 14 29 0 10 7 20 15 24 8 3 15 15 15
26 0 33 27 34 67 3 54 -41 108 -63 153 -63 60 0 104 -43 121 -120 l13 -60 42
0 c38 0 45 -4 64 -35 30 -48 22 -73 -45 -142 -54 -57 -61 -78 -34 -108 5 -5 9
-23 9 -41 0 -38 9 -64 21 -64 12 0 11 67 -1 90 -8 15 -4 20 23 31 84 33 155
70 184 96 35 31 72 104 73 140 0 24 -22 87 -48 139 -12 26 -13 39 -3 78 15 61
-1 130 -42 173 -32 34 -101 63 -149 63 -24 0 -32 7 -47 40 -35 79 -97 101
-169 61z"/>
<path d="M12140 53655 c-6 -8 -21 -17 -32 -21 -26 -8 -58 -35 -58 -50 0 -6 -7
-17 -15 -24 -8 -7 -15 -22 -15 -34 0 -11 -7 -30 -15 -40 -8 -11 -15 -39 -15
-61 0 -23 -7 -56 -16 -73 -17 -36 -15 -103 4 -110 9 -3 12 14 12 60 1 39 6 70
15 82 8 11 15 39 15 62 0 25 6 47 15 54 8 7 15 23 15 35 0 13 7 25 15 29 8 3
15 12 15 20 0 7 11 17 25 20 26 7 65 -8 65 -23 0 -5 8 -12 18 -15 20 -7 54
-27 73 -43 8 -6 29 -13 46 -15 31 -4 32 -4 16 14 -9 10 -24 18 -33 18 -10 0
-23 7 -30 15 -7 8 -17 15 -22 15 -5 0 -22 10 -38 22 -21 15 -30 30 -30 50 0
31 -11 36 -30 13z"/>
<path d="M12430 53501 c0 -5 18 -12 40 -16 49 -8 59 -22 27 -34 -14 -6 -28
-15 -32 -20 -3 -6 -17 -11 -29 -11 -13 0 -29 -7 -36 -15 -7 -8 -20 -15 -30
-15 -10 0 -23 -7 -30 -15 -7 -8 -18 -15 -24 -15 -16 0 -51 -48 -59 -81 -7 -29
9 -99 23 -99 6 0 10 -11 10 -24 0 -13 7 -29 15 -36 8 -7 15 -20 15 -30 0 -10
7 -23 15 -30 8 -7 15 -23 15 -37 0 -13 7 -26 15 -29 8 -4 15 -16 15 -29 0 -12
7 -28 15 -35 8 -7 15 -23 15 -37 0 -13 7 -26 15 -29 8 -4 15 -16 15 -29 0 -12
7 -28 15 -35 8 -7 15 -23 15 -37 0 -13 7 -26 15 -29 8 -4 15 -16 15 -29 0 -12
7 -28 15 -35 8 -7 15 -23 15 -37 0 -13 7 -26 15 -29 8 -4 15 -16 15 -29 0 -12
7 -28 15 -35 8 -7 15 -21 15 -31 0 -9 7 -24 15 -33 8 -8 15 -23 15 -34 0 -11
7 -25 15 -32 8 -7 15 -21 15 -31 0 -9 7 -24 15 -33 8 -8 15 -23 15 -34 0 -11
7 -25 15 -32 8 -7 15 -20 15 -30 0 -10 7 -23 15 -30 8 -7 15 -19 15 -28 0 -24
34 -91 46 -92 14 0 44 64 44 94 0 13 7 29 15 36 8 7 15 26 15 42 0 16 7 36 15
44 8 9 15 28 15 44 0 16 5 30 11 32 6 2 14 19 18 38 7 32 10 35 41 32 19 -1
41 -9 50 -17 9 -8 26 -15 37 -15 12 0 23 -7 27 -15 3 -8 16 -15 30 -15 13 0
26 -7 30 -15 3 -8 16 -15 29 -15 14 0 30 -7 37 -15 7 -8 20 -15 29 -15 9 -1
29 -12 46 -25 23 -19 27 -27 17 -37 -6 -6 -12 -20 -12 -29 0 -9 -7 -22 -15
-29 -8 -7 -15 -20 -15 -30 0 -10 -7 -23 -15 -30 -8 -7 -15 -23 -15 -35 0 -13
-7 -25 -15 -29 -8 -3 -15 -15 -15 -27 0 -13 -6 -30 -13 -38 -7 -9 -22 -35 -32
-59 -17 -39 -17 -43 -2 -60 14 -16 17 -43 17 -167 0 -111 3 -146 11 -138 8 8
13 84 17 217 4 156 8 209 18 217 8 6 14 19 14 29 0 10 7 23 15 30 8 7 15 23
15 35 0 13 7 25 15 29 8 3 15 16 15 29 0 14 7 30 15 37 8 7 15 20 15 30 0 10
7 23 15 30 8 7 15 26 15 42 0 16 7 36 15 44 8 9 15 30 15 48 0 19 7 39 15 46
8 7 15 27 15 44 0 17 7 40 15 50 22 29 21 248 0 270 -8 8 -15 20 -15 26 0 38
-119 144 -225 200 -11 6 -33 19 -50 30 -16 11 -39 24 -50 30 -11 6 -33 19 -50
30 -16 11 -39 24 -50 30 -11 6 -33 19 -50 30 -16 11 -36 23 -44 27 -8 3 -29
21 -48 39 -26 26 -33 40 -33 72 0 23 -6 45 -15 52 -13 11 -15 7 -15 -23 0 -20
5 -48 10 -63 12 -29 -5 -57 -45 -75 -11 -5 -40 -21 -64 -34 -36 -20 -58 -25
-118 -25 -67 0 -79 3 -124 32 -48 32 -49 33 -49 85 0 59 21 93 56 93 12 0 27
7 34 15 7 8 20 15 29 15 23 0 61 28 61 46 0 8 -6 14 -14 14 -7 0 -19 7 -26 15
-13 16 -90 21 -90 6z m-80 -191 c0 -21 -34 -45 -50 -35 -7 4 -6 14 1 28 22 40
49 44 49 7z m24 -95 c24 -19 50 -35 58 -35 9 0 21 -7 28 -15 9 -11 34 -15 95
-15 61 0 86 4 95 15 7 8 23 15 35 15 13 0 25 7 29 15 3 8 12 15 19 15 8 0 20
7 27 15 15 18 71 20 87 4 11 -11 36 -26 78 -49 11 -6 34 -19 50 -30 17 -11 39
-24 50 -30 11 -6 34 -19 50 -30 17 -11 39 -24 50 -30 11 -6 34 -19 50 -30 17
-11 40 -24 53 -30 12 -5 22 -14 22 -20 0 -5 6 -10 13 -10 23 0 111 -98 130
-145 15 -37 25 -128 16 -157 -5 -18 -9 -48 -9 -66 0 -18 -7 -40 -15 -48 -8 -9
-15 -30 -15 -47 0 -18 -7 -41 -15 -51 -8 -11 -15 -33 -15 -50 0 -16 -7 -38
-17 -48 -20 -22 -59 -24 -67 -3 -3 8 -16 15 -29 15 -14 0 -30 7 -37 15 -7 8
-23 15 -35 15 -13 0 -25 7 -29 15 -3 8 -16 15 -30 15 -13 0 -26 7 -30 15 -3 8
-16 15 -30 15 -13 0 -26 7 -30 15 -3 8 -14 15 -25 15 -11 0 -23 5 -26 10 -9
15 -35 12 -35 -4 0 -7 -7 -19 -15 -26 -8 -7 -15 -26 -15 -42 0 -16 -7 -36 -15
-44 -8 -9 -15 -28 -15 -43 0 -16 -7 -34 -15 -41 -8 -7 -15 -22 -15 -33 0 -26
-39 -107 -51 -107 -5 0 -9 8 -9 19 0 10 -7 24 -15 31 -8 7 -15 23 -15 37 0 13
-7 26 -15 29 -8 4 -15 16 -15 29 0 12 -7 28 -15 35 -8 7 -15 23 -15 37 0 13
-7 26 -15 29 -8 4 -15 16 -15 29 0 12 -7 28 -15 35 -8 7 -15 21 -15 31 0 9 -7
24 -15 33 -8 8 -15 23 -15 34 0 11 -7 25 -15 32 -8 7 -15 21 -15 31 0 9 -7 24
-15 33 -8 8 -15 23 -15 34 0 11 -7 25 -15 32 -8 7 -15 20 -15 30 0 10 -7 23
-15 30 -8 7 -15 23 -15 37 0 13 -7 26 -15 29 -8 4 -15 16 -15 29 0 12 -7 28
-15 35 -8 7 -15 23 -15 35 0 12 -7 28 -15 35 -8 7 -15 20 -15 30 0 10 -7 23
-15 30 -8 7 -15 23 -15 37 0 13 -7 26 -15 29 -8 4 -15 16 -15 29 0 12 -7 28
-15 35 -8 7 -15 22 -15 35 0 47 27 47 84 0z"/>
<path d="M11970 53205 c-13 -14 -32 -25 -42 -25 -10 0 -21 -7 -24 -15 -4 -8
-10 -15 -15 -15 -22 0 -109 -112 -109 -140 0 -10 -7 -23 -15 -30 -8 -7 -15
-25 -15 -40 0 -15 -7 -33 -15 -40 -8 -7 -15 -25 -15 -40 0 -15 -7 -33 -15 -40
-8 -7 -15 -25 -15 -40 0 -15 -7 -33 -15 -40 -8 -7 -15 -25 -15 -40 0 -15 -7
-33 -15 -40 -8 -7 -15 -25 -15 -40 0 -15 -7 -33 -15 -40 -8 -7 -15 -25 -15
-40 0 -15 -7 -33 -15 -40 -19 -15 -21 -84 -2 -78 6 3 14 22 17 44 4 32 10 40
35 48 41 14 41 13 14 35 -23 18 -23 20 -6 38 9 11 17 30 17 42 0 12 7 29 15
37 8 9 15 27 15 40 0 14 7 32 15 40 8 9 15 27 15 40 0 14 7 32 15 40 8 9 15
29 15 45 0 16 4 29 10 29 5 0 12 12 16 28 6 25 29 77 58 128 17 32 84 94 101
94 8 0 18 7 23 16 9 16 12 15 35 -2 19 -13 26 -28 27 -51 0 -17 7 -38 15 -47
8 -8 15 -28 15 -44 0 -16 7 -35 15 -42 8 -7 15 -27 15 -45 0 -18 7 -38 15 -45
8 -7 15 -27 15 -45 0 -18 7 -38 15 -45 8 -7 15 -25 15 -41 0 -15 7 -34 15 -43
8 -8 15 -28 15 -45 0 -16 7 -36 15 -45 8 -8 15 -28 15 -44 0 -16 7 -35 15 -42
8 -7 15 -27 15 -45 0 -18 7 -38 15 -45 8 -7 15 -28 15 -47 0 -21 6 -36 15 -39
9 -4 15 -19 15 -39 0 -19 7 -40 15 -49 8 -8 15 -28 15 -45 0 -16 7 -36 15 -45
8 -8 15 -28 15 -44 0 -16 7 -35 15 -42 8 -7 15 -27 15 -45 0 -18 7 -38 15 -45
8 -7 15 -25 15 -41 0 -15 7 -34 15 -43 8 -8 15 -28 15 -45 0 -16 7 -36 15 -45
8 -8 15 -27 15 -42 0 -15 7 -35 16 -45 23 -25 12 -48 -20 -42 -14 3 -31 11
-37 19 -6 8 -17 14 -24 14 -7 0 -18 7 -25 15 -7 8 -20 15 -30 15 -10 0 -20 7
-24 15 -3 8 -14 15 -24 15 -11 0 -25 7 -32 15 -7 8 -18 15 -25 15 -7 0 -18 7
-25 15 -7 8 -20 15 -30 15 -10 0 -20 7 -24 15 -3 8 -14 15 -24 15 -11 0 -25 7
-32 15 -7 8 -18 15 -25 15 -7 0 -18 7 -25 15 -7 8 -21 15 -31 15 -11 0 -19 4
-19 10 0 5 -11 12 -25 16 -13 3 -29 12 -36 20 -6 8 -20 14 -30 14 -11 0 -19 3
-19 8 -1 4 -10 18 -21 31 -16 20 -22 22 -29 11 -11 -17 5 -50 24 -50 8 0 19
-7 26 -15 7 -8 20 -15 30 -15 10 0 20 -7 24 -15 3 -8 15 -15 26 -15 11 0 20
-4 20 -9 0 -5 12 -14 28 -20 35 -15 71 -36 85 -50 6 -6 19 -11 28 -11 9 0 19
-7 23 -15 3 -8 14 -15 24 -15 11 0 25 -7 32 -15 7 -8 18 -15 25 -15 7 0 18 -7
25 -15 7 -8 20 -15 30 -15 10 0 20 -7 24 -15 3 -8 14 -15 25 -15 11 0 23 -5
26 -11 4 -5 17 -14 28 -20 12 -5 30 -13 40 -19 9 -5 25 -15 35 -20 9 -6 27
-14 39 -19 11 -6 24 -15 28 -20 3 -6 14 -11 24 -11 10 0 24 -7 31 -15 14 -16
110 -22 110 -6 0 11 -36 21 -78 21 -20 0 -35 6 -38 15 -4 8 -12 15 -19 15 -17
0 -41 30 -49 63 -3 15 -11 27 -16 27 -6 0 -10 15 -10 34 0 19 -7 41 -15 50 -8
8 -15 28 -15 44 0 16 -7 35 -15 42 -8 7 -15 27 -15 45 0 18 -7 38 -15 45 -8 7
-15 25 -15 39 0 15 -7 36 -15 47 -8 10 -15 31 -15 46 0 15 -7 33 -15 42 -8 8
-15 28 -15 45 0 16 -7 36 -15 45 -8 8 -15 28 -15 44 0 16 -7 35 -15 42 -8 7
-15 27 -15 45 0 18 -7 38 -15 45 -8 7 -15 28 -15 47 0 21 -6 36 -15 39 -9 4
-15 19 -15 39 0 19 -7 40 -15 49 -8 8 -15 28 -15 44 0 16 -7 35 -15 42 -8 7
-15 27 -15 45 0 18 -7 38 -15 45 -8 7 -15 27 -15 45 0 18 -7 38 -15 45 -8 7
-15 25 -15 41 0 15 -7 34 -15 43 -8 8 -15 28 -15 45 0 16 -7 36 -15 45 -8 8
-15 28 -15 44 0 16 -6 35 -14 42 -8 6 -16 28 -18 47 -4 45 -17 51 -48 18z"/>
<path d="M11680 52511 c0 -13 27 -21 71 -21 40 0 52 13 23 24 -24 9 -94 7 -94
-3z"/>
<path d="M11800 52481 c0 -13 27 -21 73 -21 39 1 41 2 23 15 -21 16 -96 21
-96 6z"/>
<path d="M11920 52451 c0 -5 9 -13 20 -16 14 -4 20 -15 20 -37 0 -19 4 -28 13
-25 7 2 12 20 12 43 0 37 -2 39 -32 42 -18 2 -33 -1 -33 -7z"/>
<path d="M11547 52403 c-4 -3 -7 -22 -7 -40 0 -19 -7 -41 -15 -49 -8 -9 -15
-29 -15 -45 0 -17 -7 -37 -15 -45 -8 -9 -15 -29 -15 -45 0 -17 -7 -37 -15 -45
-8 -9 -15 -30 -15 -48 0 -19 -7 -39 -15 -46 -9 -7 -15 -29 -15 -54 1 -38 2
-40 15 -22 8 11 15 33 15 49 0 15 7 35 15 43 8 9 15 30 15 48 0 19 7 39 15 46
8 7 15 27 15 45 0 18 7 38 15 45 8 7 15 27 15 45 0 18 7 38 15 45 8 7 15 28
15 46 0 32 -9 42 -23 27z"/>
<path d="M11936 52344 c-9 -24 -7 -74 3 -74 12 0 21 26 21 61 0 31 -14 39 -24
13z"/>
<path d="M11907 52253 c-4 -3 -7 -22 -7 -40 0 -19 -7 -41 -15 -49 -16 -16 -21
-84 -6 -84 12 0 21 26 21 60 0 15 7 33 15 40 8 7 15 28 15 46 0 32 -9 42 -23
27z"/>
<path d="M2005 52162 c-11 -4 -32 -15 -47 -26 -19 -12 -36 -16 -53 -12 -14 4
-34 2 -45 -4 -13 -7 -32 -8 -54 -2 -36 11 -95 -4 -125 -32 -10 -9 -35 -16 -59
-16 -38 0 -47 -6 -114 -72 -40 -40 -78 -82 -83 -93 -6 -11 -25 -27 -43 -36
-18 -9 -42 -29 -54 -45 -21 -26 -22 -37 -20 -168 1 -78 2 -152 2 -166 1 -14 0
-51 -2 -82 -2 -47 1 -61 20 -81 14 -15 22 -36 22 -58 0 -80 78 -136 149 -106
23 10 54 13 97 9 59 -4 65 -3 102 27 38 30 85 41 96 22 3 -4 3 -32 -1 -61 -6
-53 -43 -110 -72 -110 -7 0 -33 -23 -59 -51 -26 -28 -63 -67 -82 -87 -19 -21
-51 -59 -69 -85 -19 -26 -38 -47 -43 -47 -4 0 -8 -7 -8 -15 0 -8 -5 -15 -10
-15 -6 0 -14 -8 -17 -17 -4 -10 -26 -44 -50 -75 -24 -31 -43 -61 -43 -67 0 -6
-5 -11 -10 -11 -6 0 -15 -10 -20 -22 -6 -13 -19 -36 -30 -53 -11 -16 -24 -40
-29 -52 -5 -11 -15 -24 -20 -28 -6 -3 -11 -14 -11 -25 0 -10 -7 -20 -15 -24
-8 -3 -15 -14 -15 -25 0 -10 -7 -21 -15 -25 -8 -3 -15 -16 -15 -30 0 -13 -7
-26 -15 -30 -8 -3 -15 -16 -15 -30 0 -13 -7 -26 -15 -30 -8 -3 -15 -16 -15
-29 0 -14 -7 -30 -15 -37 -8 -7 -15 -21 -15 -32 0 -11 -7 -26 -15 -34 -8 -9
-15 -24 -15 -35 0 -11 -7 -27 -15 -35 -8 -9 -15 -27 -15 -41 0 -36 24 -24 28
15 2 17 10 36 18 42 8 7 14 23 14 35 0 13 7 25 15 29 9 3 15 18 15 35 0 16 6
31 15 35 8 3 15 16 15 30 0 13 7 26 15 30 8 3 15 16 15 30 0 13 7 26 15 30 8
3 15 14 15 24 0 11 7 25 15 32 8 7 15 20 15 30 0 10 7 20 15 24 8 3 15 15 15
26 0 11 4 20 10 20 5 0 12 11 16 24 3 14 12 27 20 30 8 3 14 15 14 26 0 11 5
20 10 20 6 0 15 10 20 23 15 33 33 61 48 70 6 4 12 14 12 21 0 8 7 16 15 20 8
3 15 11 15 18 0 8 14 28 30 46 17 18 30 37 30 43 0 5 4 9 8 9 5 0 22 19 39 43
17 23 61 73 97 111 36 38 66 72 66 77 0 5 5 9 11 9 7 0 17 6 23 14 9 12 25 13
105 2 78 -9 95 -15 101 -31 13 -36 29 -187 45 -430 8 -132 22 -307 30 -390 9
-82 15 -168 15 -190 0 -22 7 -101 15 -175 8 -74 22 -207 30 -295 8 -88 20
-200 26 -250 6 -49 14 -143 19 -208 4 -65 13 -124 19 -130 6 -6 11 -24 11 -39
0 -21 -6 -31 -26 -38 -15 -6 -184 -10 -408 -10 -324 0 -385 -2 -396 -15 -8 -9
-11 -42 -8 -97 l3 -83 -287 -3 -288 -2 0 75 c0 41 -4 75 -9 75 -11 0 -21 -50
-21 -106 l0 -43 -247 -3 c-186 -2 -247 -6 -251 -15 -2 -7 -16 -13 -31 -13 -27
0 -131 -81 -131 -101 0 -6 -7 -17 -15 -25 -16 -17 -21 -74 -6 -74 11 0 21 25
21 51 0 11 7 22 15 25 8 4 15 10 15 16 0 15 73 78 91 78 9 0 22 7 29 15 19 23
566 18 563 -5 -1 -8 -7 -40 -14 -70 -12 -48 -23 -65 -89 -130 -41 -42 -121
-111 -178 -154 -89 -67 -103 -81 -100 -103 5 -46 49 -68 131 -67 60 0 80 5
122 28 126 71 176 96 195 96 11 0 43 -20 69 -45 36 -34 56 -45 80 -45 34 0 38
9 17 48 -38 73 -65 158 -66 207 0 32 44 184 65 225 l14 25 204 3 204 2 48 -45
c27 -25 54 -45 61 -45 6 0 14 -7 18 -15 3 -8 13 -15 21 -15 9 0 23 -7 31 -15
9 -8 26 -15 39 -15 12 0 25 -7 29 -15 3 -10 19 -15 42 -15 31 0 35 2 24 15 -7
8 -25 15 -40 15 -15 0 -33 7 -40 15 -7 8 -23 15 -35 15 -13 0 -25 7 -29 15 -3
8 -10 15 -16 15 -22 0 -109 74 -130 111 -11 22 -25 39 -30 39 -4 0 -11 11 -14
25 -4 14 -11 25 -16 25 -6 0 -10 23 -10 50 l0 50 400 0 c327 0 402 2 406 13 3
8 -2 34 -10 58 -16 46 -23 269 -8 269 18 1 358 1 370 0 17 0 72 -60 72 -78 0
-7 7 -15 15 -18 8 -4 15 -10 15 -15 0 -5 8 -18 18 -28 29 -33 42 -50 42 -56 0
-4 11 -19 24 -33 24 -27 75 -87 131 -155 16 -21 34 -37 39 -37 11 0 45 37 87
94 18 25 36 46 41 46 4 0 8 4 8 9 0 14 42 56 62 64 10 3 20 2 23 -3 4 -6 17
-10 29 -10 13 0 29 -7 36 -15 7 -8 23 -15 35 -15 12 0 28 -7 35 -15 7 -8 23
-15 35 -15 12 0 28 -7 35 -15 7 -8 23 -15 35 -15 12 0 28 -7 35 -15 7 -8 25
-15 41 -15 16 0 29 -4 29 -10 0 -5 11 -12 25 -16 61 -15 175 -93 175 -120 0
-6 7 -17 15 -24 8 -7 15 -23 15 -35 0 -30 10 -55 21 -55 16 0 10 80 -6 86 -8
4 -15 14 -15 24 0 9 -16 32 -36 51 -81 76 -84 80 -84 126 0 44 0 45 29 38 68
-15 150 -74 151 -108 0 -10 7 -20 15 -23 8 -4 15 -16 15 -29 0 -12 7 -28 15
-35 8 -7 15 -27 15 -45 0 -18 7 -38 15 -45 8 -7 15 -27 15 -45 0 -39 8 -65 21
-65 15 0 10 78 -6 94 -8 8 -15 28 -15 45 0 16 -7 36 -15 45 -8 8 -15 26 -15
39 0 14 -7 30 -15 37 -8 7 -15 19 -15 27 0 20 -41 73 -58 73 -7 0 -12 8 -10
17 2 14 14 16 66 14 47 -2 62 1 62 11 0 33 -124 120 -282 197 -41 20 -95 59
-138 100 -64 62 -70 70 -64 98 5 24 1 36 -15 52 -12 12 -25 21 -30 21 -5 0
-11 4 -13 9 -1 4 -41 41 -88 81 -92 79 -353 337 -416 411 -21 25 -57 68 -79
94 -22 27 -47 55 -56 64 -27 28 -169 220 -169 229 0 6 -7 12 -15 16 -8 3 -15
10 -15 17 0 6 -13 28 -28 48 -16 20 -32 43 -35 51 -4 8 -16 29 -27 45 -11 17
-24 39 -30 50 -6 11 -19 34 -30 50 -11 17 -24 40 -29 52 -5 11 -15 24 -20 28
-6 3 -11 15 -11 26 0 11 -7 22 -15 25 -8 4 -15 17 -15 30 0 14 -7 27 -15 30
-8 4 -15 16 -15 29 0 12 -7 28 -15 35 -8 7 -15 20 -15 29 0 9 -5 22 -12 29 -6
6 -14 42 -17 79 -5 56 -9 68 -26 73 -49 13 -58 26 -63 87 l-4 60 73 -4 c60 -4
83 -1 120 16 121 54 176 167 166 342 l-5 97 40 16 40 15 -6 54 c-5 35 -3 63 5
80 10 22 10 32 -1 52 -11 21 -10 30 15 78 27 51 28 58 17 96 -10 32 -20 44
-47 55 -19 8 -43 29 -54 46 -37 61 -114 87 -175 59 -20 -9 -29 -9 -41 1 -17
14 -139 23 -170 12z m175 -1456 c0 -13 7 -29 15 -36 8 -7 15 -21 15 -31 0 -10
5 -21 11 -24 5 -4 15 -17 20 -28 5 -12 18 -35 29 -52 11 -16 25 -42 31 -57 6
-16 14 -28 19 -28 4 0 10 -8 14 -17 7 -22 22 -46 59 -94 15 -20 27 -40 27 -44
0 -4 14 -24 30 -45 17 -21 30 -43 30 -49 0 -7 7 -14 15 -17 8 -4 15 -12 15
-20 0 -8 4 -14 8 -14 5 0 30 -29 56 -65 26 -36 55 -73 65 -82 9 -9 25 -28 36
-43 42 -56 135 -157 261 -284 164 -164 210 -206 342 -315 23 -19 42 -39 42
-45 0 -6 -32 -49 -71 -96 -39 -47 -85 -103 -103 -124 -17 -21 -38 -46 -47 -55
-8 -9 -30 -36 -49 -61 -39 -52 -77 -95 -102 -118 -10 -9 -18 -20 -18 -25 0 -4
-9 -17 -19 -28 -24 -26 -47 -16 -86 40 -15 23 -32 41 -36 41 -5 0 -9 7 -9 15
0 8 -4 15 -8 15 -5 0 -35 36 -67 80 -32 44 -62 80 -67 80 -4 0 -8 6 -8 13 0 7
-12 26 -27 43 -32 34 -61 93 -107 212 -62 162 -80 213 -117 332 -12 36 -27 81
-34 100 -28 79 -67 217 -119 428 -46 185 -94 500 -79 516 14 14 33 4 33 -18z
m1065 -1617 c4 -5 18 -14 31 -19 35 -14 29 -30 -10 -30 -39 0 -96 28 -96 48 0
15 66 17 75 1z m-19 -64 c17 -17 84 -21 84 -5 0 6 7 10 16 10 14 0 14 -3 3
-16 -10 -13 -10 -17 2 -25 8 -5 20 -9 26 -9 17 0 95 -99 87 -111 -8 -14 -50
-10 -64 6 -7 8 -23 15 -35 15 -12 0 -28 7 -35 15 -7 8 -23 15 -35 15 -12 0
-28 7 -35 15 -7 8 -23 15 -35 15 -12 0 -28 7 -35 15 -7 8 -23 15 -36 15 -26 0
-33 27 -12 48 17 17 86 15 104 -3z m-1856 -326 c0 -11 7 -19 16 -19 9 0 14 -6
12 -12 -3 -7 -16 -13 -29 -13 -25 0 -37 30 -25 61 8 20 26 8 26 -17z"/>
<path d="M11408 51934 c-11 -11 -10 -52 2 -59 6 -3 10 -21 10 -39 0 -19 7 -39
15 -46 8 -7 15 -17 15 -22 0 -15 43 -58 58 -58 6 0 12 -4 12 -10 0 -5 12 -13
28 -16 15 -4 36 -13 47 -20 11 -8 32 -14 48 -14 16 0 35 -7 43 -15 9 -8 26
-15 40 -15 24 0 24 0 24 -112 0 -90 3 -110 13 -100 7 8 13 48 16 97 l3 85 38
0 c21 0 43 -7 50 -15 7 -8 27 -15 44 -15 17 0 40 -7 50 -15 11 -8 32 -15 47
-15 14 0 32 -7 39 -15 7 -8 28 -15 47 -15 19 0 41 -7 49 -15 9 -8 29 -15 45
-15 17 0 37 -7 45 -15 9 -8 30 -15 48 -15 19 0 39 -7 46 -15 7 -8 27 -15 45
-15 18 0 38 -7 45 -15 7 -8 25 -15 40 -15 15 0 33 -7 40 -15 7 -8 25 -15 40
-15 15 0 33 -7 40 -15 14 -16 110 -22 110 -6 0 11 -36 21 -78 21 -18 0 -40 7
-48 15 -9 8 -24 15 -35 15 -11 0 -27 7 -35 15 -9 8 -29 15 -45 15 -17 0 -37 7
-45 15 -9 8 -29 15 -45 15 -17 0 -37 7 -45 15 -9 8 -29 15 -45 15 -17 0 -37 7
-45 15 -9 8 -30 15 -48 15 -19 0 -39 7 -46 15 -7 8 -27 15 -45 15 -18 0 -38 7
-45 15 -7 8 -27 15 -45 15 -18 0 -38 7 -45 15 -7 8 -27 15 -45 15 -18 0 -38 7
-45 15 -7 8 -24 15 -39 15 -14 1 -37 7 -51 15 -14 8 -36 15 -50 15 -14 0 -34
7 -44 15 -11 8 -31 15 -45 15 -14 0 -35 7 -45 15 -11 8 -26 15 -34 15 -19 0
-102 89 -102 109 0 9 -6 26 -14 37 -8 11 -16 35 -18 53 -2 18 -6 29 -10 25z"/>
<path d="M13107 51903 c-4 -3 -7 -16 -7 -28 0 -13 -7 -28 -15 -35 -8 -7 -15
-23 -15 -35 0 -13 -7 -25 -15 -29 -8 -3 -15 -16 -15 -30 0 -13 -7 -26 -15 -30
-8 -3 -15 -17 -15 -31 0 -14 -4 -25 -8 -25 -5 0 -13 -10 -19 -22 -8 -19 -16
-22 -54 -19 -24 1 -58 -4 -74 -11 -30 -12 -29 -12 30 -18 60 -5 60 -5 63 -39
2 -19 -1 -44 -6 -55 -6 -12 -15 -36 -22 -53 -7 -18 -18 -33 -26 -33 -7 0 -22
-13 -34 -29 -11 -17 -29 -33 -40 -36 -26 -8 -26 -25 1 -25 12 0 44 23 75 54
45 45 54 60 54 89 0 19 5 37 11 39 5 2 13 22 16 46 3 23 12 47 19 53 8 6 14
22 14 34 0 13 7 25 15 29 8 3 15 15 15 26 0 12 7 28 15 36 8 9 15 24 15 33 0
10 7 24 15 31 8 7 15 23 15 35 0 13 7 25 15 29 8 3 15 17 15 31 0 24 -10 32
-23 18z"/>
<path d="M12720 51580 c0 -15 43 -22 73 -11 40 15 33 21 -23 21 -27 0 -50 -4
-50 -10z"/>
<path d="M13136 51433 c-9 -111 -7 -473 3 -473 12 0 21 142 21 358 0 195 -12
254 -24 115z"/>
<path d="M11725 51338 c-4 -24 -5 -68 -3 -98 3 -53 4 -54 16 -27 14 33 16 167
3 167 -6 0 -13 -19 -16 -42z"/>
<path d="M12740 51310 c0 -5 11 -10 25 -10 14 0 25 5 25 10 0 6 -11 10 -25 10
-14 0 -25 -4 -25 -10z"/>
<path d="M11701 51157 c-5 -13 -10 -59 -12 -103 -3 -71 -1 -82 19 -102 16 -16
20 -29 16 -54 -6 -39 -30 -153 -46 -218 -6 -25 -14 -65 -18 -90 -4 -25 -12
-65 -18 -90 -6 -25 -19 -81 -28 -125 -9 -44 -22 -107 -29 -140 -8 -33 -21 -96
-30 -140 -38 -179 -45 -213 -60 -277 -8 -39 -15 -115 -15 -180 0 -62 -7 -241
-15 -398 -8 -157 -15 -357 -15 -445 0 -88 -7 -288 -15 -445 -8 -157 -15 -351
-15 -433 0 -81 -7 -288 -16 -460 -8 -171 -14 -343 -12 -382 l3 -70 85 -5 85
-5 -3 -55 c-4 -90 -16 -112 -75 -141 -56 -28 -306 -157 -372 -193 -22 -11 -41
-29 -43 -39 -3 -16 22 -17 455 -15 l458 3 3 25 c2 13 -4 51 -13 85 -30 109
-33 125 -29 142 3 10 8 56 12 102 l7 83 35 12 c39 12 47 32 49 126 0 30 7 116
16 190 23 213 36 346 45 465 4 61 12 155 18 210 22 195 34 322 43 448 8 116
19 183 36 227 8 22 21 -24 22 -80 0 -25 7 -90 16 -145 8 -55 22 -154 30 -220
9 -66 21 -151 27 -190 6 -38 14 -104 18 -145 4 -41 13 -106 19 -145 5 -38 17
-124 26 -190 8 -66 20 -151 26 -190 6 -38 15 -104 19 -145 4 -41 13 -105 20
-142 l12 -67 41 -3 c47 -3 53 -15 59 -119 l3 -61 -85 -45 c-47 -25 -145 -77
-219 -115 -148 -75 -161 -84 -161 -104 0 -12 72 -14 451 -12 508 3 483 -1 462
75 -6 21 -16 56 -23 78 -17 62 -39 279 -29 290 5 5 30 12 57 15 l47 5 -3 175
c-2 96 -10 249 -18 340 -7 91 -14 206 -14 255 0 50 -7 167 -15 260 -8 94 -15
211 -15 260 0 50 -7 164 -15 255 -8 91 -15 204 -15 252 0 48 -7 167 -15 265
-23 273 -24 556 -2 678 10 55 24 141 32 190 7 50 19 122 25 160 6 39 15 106
20 150 5 44 14 96 20 115 5 19 10 53 10 75 0 22 5 57 11 78 6 21 13 66 17 100
7 58 9 62 35 65 l27 3 0 95 c0 61 -4 93 -10 89 -5 -3 -10 -23 -10 -43 0 -20
-3 -54 -6 -74 -8 -45 -19 -47 -129 -24 -66 14 -109 22 -317 61 -76 15 -111 21
-283 55 -33 7 -87 16 -120 20 -33 5 -73 13 -88 19 -16 6 -40 11 -55 11 -15 0
-57 7 -94 15 -38 8 -98 22 -135 30 -38 8 -84 15 -104 15 -55 0 -63 17 -60 126
2 95 -2 113 -18 71z"/>
<path d="M10737 50263 c-10 -100 -8 -443 2 -443 12 0 21 132 21 332 0 180 -12
235 -23 111z"/>
<path d="M5930 50195 c-19 -7 -62 -21 -95 -30 -33 -10 -78 -24 -100 -30 -22
-7 -67 -21 -100 -30 -33 -10 -67 -21 -75 -25 -12 -6 -16 -43 -20 -207 l-5
-201 -85 -62 c-158 -117 -324 -300 -409 -451 l-31 -56 -67 -7 c-38 -3 -125 -9
-196 -12 -70 -4 -134 -12 -142 -18 -13 -10 -29 -68 -54 -191 -4 -22 -13 -60
-20 -85 -7 -25 -19 -70 -28 -100 -22 -83 -17 -98 52 -147 33 -23 63 -42 67
-42 7 -1 120 -73 180 -115 36 -26 36 -27 43 -114 12 -169 63 -347 147 -517 27
-55 54 -104 59 -109 17 -18 9 -51 -30 -126 -73 -138 -121 -238 -121 -248 0 -6
13 -23 28 -39 73 -72 305 -289 318 -296 14 -8 63 13 179 78 33 19 88 48 121
66 l61 32 74 -36 c106 -51 217 -89 310 -107 26 -5 64 -13 85 -19 22 -6 89 -11
149 -12 61 0 118 -4 127 -7 10 -4 40 -39 68 -77 195 -273 180 -256 214 -250
32 7 105 29 166 50 19 7 62 20 95 30 109 32 160 49 173 59 10 7 13 54 11 204
-1 111 3 197 8 201 5 3 43 28 84 56 110 74 281 249 364 376 39 59 75 114 80
123 11 19 198 46 313 46 75 0 102 12 102 45 0 13 5 36 11 52 6 15 14 48 19 73
7 44 18 91 46 200 8 30 15 72 17 94 2 37 0 40 -48 67 -27 16 -59 33 -70 39
-11 6 -36 20 -55 31 -19 12 -53 30 -75 42 -76 40 -85 53 -85 123 0 86 -42 294
-76 372 -8 18 -14 37 -14 43 0 15 -98 217 -109 223 -21 13 -21 59 0 104 12 26
34 75 50 110 16 34 43 90 59 125 17 34 30 67 30 74 0 6 -55 63 -122 126 -255
239 -245 231 -277 204 -27 -23 -294 -180 -306 -180 -6 0 -46 16 -89 36 -42 21
-81 37 -86 37 -5 0 -24 6 -42 14 -104 45 -251 74 -411 82 l-139 7 -71 97 c-40
54 -92 126 -115 159 -38 53 -48 61 -75 60 -18 -1 -48 -7 -67 -14z m492 -966
c185 -29 352 -113 469 -236 95 -99 142 -170 186 -283 72 -183 72 -400 1 -590
-74 -197 -232 -364 -427 -452 -90 -42 -151 -58 -254 -67 -246 -24 -464 47
-638 208 -90 84 -136 144 -186 246 -44 88 -53 118 -75 245 -17 98 -18 126 -8
185 25 160 38 203 92 310 151 302 508 485 840 434z"/>
<path d="M987 49923 c-10 -10 -8 -63 2 -63 11 0 21 25 21 51 0 19 -11 25 -23
12z"/>
<path d="M957 49843 c-4 -3 -7 -19 -7 -35 0 -16 -7 -36 -15 -44 -8 -9 -15 -31
-15 -51 0 -30 2 -34 15 -23 8 7 15 27 15 45 0 18 7 38 15 45 8 7 15 25 15 41
0 28 -9 37 -23 22z"/>
<path d="M10707 49637 c-13 -161 -6 -294 14 -281 12 7 12 351 0 358 -4 3 -11
-32 -14 -77z"/>
<path d="M897 49663 c-4 -3 -7 -24 -7 -46 0 -34 2 -38 15 -27 8 7 15 28 15 46
0 32 -9 42 -23 27z"/>
<path d="M9176 49594 c-9 -24 -7 -84 3 -84 13 0 21 26 21 66 0 35 -13 46 -24
18z"/>
<path d="M867 49563 c-10 -10 -8 -83 2 -83 12 0 21 26 21 61 0 28 -9 37 -23
22z"/>
<path d="M9146 49458 c-9 -35 -7 -128 3 -128 13 0 21 37 21 98 0 53 -13 70
-24 30z"/>
<path d="M836 49444 c-9 -24 -7 -84 3 -84 13 0 21 26 21 66 0 35 -13 46 -24
18z"/>
<path d="M806 49318 c-3 -13 -6 -43 -6 -68 1 -42 2 -44 15 -26 9 11 15 41 15
68 0 50 -13 64 -24 26z"/>
<path d="M9116 49268 c-9 -35 -7 -128 3 -128 13 0 21 37 21 98 0 53 -13 70
-24 30z"/>
<path d="M10738 49284 c-10 -9 -10 -149 -2 -193 11 -56 24 -21 23 62 -1 91
-10 143 -21 131z"/>
<path d="M776 49174 c-9 -24 -7 -124 3 -124 12 0 21 37 21 93 0 46 -12 62 -24
31z"/>
<path d="M10102 49028 c2 -56 8 -92 16 -100 12 -11 13 1 10 74 -2 56 -8 92
-16 100 -12 11 -13 -1 -10 -74z"/>
<path d="M9086 49084 c-9 -24 -7 -134 3 -134 13 0 21 37 21 98 0 50 -12 68
-24 36z"/>
<path d="M746 48998 c-9 -35 -7 -158 3 -158 12 0 21 52 21 121 0 59 -12 78
-24 37z"/>
<path d="M10768 48994 c-10 -9 -10 -134 -2 -186 11 -64 24 -31 23 55 -1 91
-10 143 -21 131z"/>
<path d="M9056 48898 c-9 -35 -7 -126 3 -132 12 -8 21 30 21 97 0 57 -13 76
-24 35z"/>
<path d="M10132 48828 c2 -56 8 -92 16 -100 12 -11 13 1 10 74 -2 56 -8 92
-16 100 -12 11 -13 -1 -10 -74z"/>
<path d="M9026 48708 c-9 -35 -7 -128 3 -128 13 0 21 37 21 98 0 53 -13 70
-24 30z"/>
<path d="M10162 48628 c2 -56 8 -92 16 -100 12 -11 13 1 10 74 -2 56 -8 92
-16 100 -12 11 -13 -1 -10 -74z"/>
<path d="M10797 48694 c-9 -9 -9 -134 -1 -186 11 -65 24 -30 23 60 -1 92 -9
139 -22 126z"/>
<path d="M8996 48518 c-9 -35 -7 -128 3 -128 13 0 21 37 21 98 0 53 -13 70
-24 30z"/>
<path d="M10190 48448 c0 -78 9 -128 22 -128 15 0 6 166 -9 182 -10 10 -13 -1
-13 -54z"/>
<path d="M3860 48453 c0 -47 9 -83 21 -83 10 0 12 80 3 104 -11 29 -24 17 -24
-21z"/>
<path d="M1750 48431 c0 -13 26 -21 65 -21 40 0 54 15 22 24 -33 9 -87 7 -87
-3z"/>
<path d="M3686 48418 c-9 -34 -7 -88 3 -88 13 0 21 27 21 71 0 43 -14 52 -24
17z"/>
<path d="M1886 48401 c-7 -11 28 -21 81 -21 46 0 65 14 30 24 -34 9 -105 7
-111 -3z"/>
<path d="M10827 48394 c-9 -9 -9 -149 -1 -193 12 -57 24 -21 23 67 -1 92 -9
139 -22 126z"/>
<path d="M1 47605 c0 -450 4 -781 9 -770 12 28 12 1526 0 1545 -6 10 -10 -262
-9 -775z"/>
<path d="M2054 48372 c-7 -4 -13 -16 -15 -27 -3 -15 -13 -21 -41 -23 -20 -2
-42 -10 -48 -18 -7 -8 -23 -14 -36 -14 -27 0 -94 -30 -94 -42 0 -10 -57 -39
-95 -49 -16 -4 -55 -17 -85 -28 -33 -13 -67 -20 -85 -16 -60 10 -206 -49 -222
-91 -5 -15 10 -48 258 -549 125 -252 136 -270 163 -273 19 -2 36 4 53 19 21
20 23 29 17 64 -3 22 -12 51 -19 65 -15 30 -41 528 -29 540 5 5 34 13 64 19
46 8 57 7 67 -6 10 -13 24 -15 72 -10 33 4 146 4 250 0 l191 -6 0 -584 c0
-354 -4 -583 -9 -583 -5 0 -13 -10 -17 -22 -7 -24 -75 -98 -90 -98 -4 0 -15
-7 -24 -15 -15 -14 -141 -15 -1055 -16 -928 0 -1040 2 -1047 15 -5 9 -16 16
-24 16 -21 0 -104 88 -104 110 0 25 -10 50 -21 50 -16 0 -10 -70 6 -76 8 -4
15 -12 15 -19 0 -19 80 -95 100 -95 10 0 23 -7 30 -15 11 -13 139 -15 1045
-15 906 0 1034 2 1045 15 7 8 21 15 31 15 27 0 119 96 119 125 0 13 6 25 13
27 9 4 13 133 17 584 l5 579 145 6 c179 8 170 7 170 19 0 6 -151 11 -417 12
l-417 3 -12 25 c-7 14 -20 52 -30 85 -9 33 -24 77 -32 98 -20 50 -5 87 37 87
16 0 34 7 41 15 7 8 27 15 45 15 18 0 38 7 45 15 7 8 25 15 40 15 30 0 83 36
75 51 -7 11 -75 12 -91 1z"/>
<path d="M3890 48307 c0 -31 6 -61 15 -73 13 -17 14 -15 15 31 0 28 -3 60 -6
73 -11 40 -24 23 -24 -31z"/>
<path d="M8966 48329 c-9 -46 -7 -117 3 -123 12 -8 21 29 21 91 0 59 -14 78
-24 32z"/>
<path d="M3657 48313 c-4 -3 -7 -17 -7 -30 0 -12 -5 -23 -10 -23 -6 0 -14 -8
-17 -17 -7 -17 -22 -33 -77 -80 -14 -13 -37 -23 -50 -23 -13 0 -29 -7 -36 -15
-7 -8 -27 -15 -45 -15 -18 0 -38 -7 -45 -15 -7 -8 -27 -15 -44 -15 -18 0 -41
-7 -52 -15 -10 -8 -35 -15 -55 -15 -19 0 -44 -7 -55 -15 -10 -8 -40 -15 -66
-15 -51 0 -78 -7 -78 -21 0 -15 95 -10 116 6 10 8 34 15 52 15 28 0 35 -5 43
-30 6 -16 15 -30 20 -30 5 0 9 -11 9 -25 0 -14 7 -28 15 -31 8 -4 15 -17 15
-30 0 -14 7 -27 15 -30 8 -4 15 -14 15 -24 0 -10 6 -23 14 -29 8 -7 17 -23 20
-36 4 -14 11 -25 16 -25 6 0 10 -8 10 -19 0 -10 7 -24 15 -31 8 -7 15 -18 15
-25 0 -7 7 -18 15 -25 8 -7 15 -21 15 -32 0 -10 7 -21 15 -24 8 -4 15 -15 15
-25 0 -11 7 -22 15 -25 8 -4 15 -14 15 -24 0 -10 7 -23 15 -30 8 -7 15 -21 15
-32 0 -10 7 -21 15 -24 8 -4 15 -17 15 -30 0 -14 7 -27 15 -30 8 -4 15 -16 15
-29 0 -12 7 -28 15 -35 8 -7 15 -23 15 -35 0 -12 7 -28 15 -35 8 -7 15 -26 15
-42 0 -16 6 -31 15 -34 9 -4 15 -19 15 -38 0 -42 25 -76 56 -76 15 0 27 -7 30
-17 3 -10 12 -31 19 -48 37 -85 49 -112 62 -137 17 -33 17 -72 0 -87 -8 -6
-22 -35 -32 -64 -20 -59 -15 -156 9 -176 9 -8 155 -10 472 -9 l459 3 3 40 c4
60 -11 73 -108 90 -47 8 -101 22 -120 31 -19 9 -48 22 -65 29 -16 7 -50 22
-75 33 -25 11 -72 32 -105 47 -33 14 -69 31 -80 38 -11 6 -38 13 -60 16 -40 6
-40 7 -46 56 -4 28 -11 68 -18 90 -16 58 -14 114 4 121 16 6 20 68 9 112 -11
40 -23 23 -26 -35 l-3 -58 -45 -7 c-25 -4 -90 -15 -145 -24 -129 -21 -159 -18
-163 18 -2 14 -10 32 -18 38 -8 7 -14 25 -14 40 0 15 -7 33 -15 40 -8 7 -15
23 -15 36 0 12 -7 29 -15 38 -8 8 -15 23 -15 34 0 11 -7 25 -15 32 -8 7 -15
20 -15 30 0 10 -6 23 -14 29 -8 7 -17 23 -20 36 -4 14 -11 25 -16 25 -6 0 -10
8 -10 19 0 10 -7 24 -15 31 -8 7 -15 20 -15 30 0 10 -7 20 -15 24 -8 3 -15 15
-15 26 0 11 -7 23 -15 26 -8 4 -15 14 -15 24 0 10 -7 23 -15 30 -8 7 -15 19
-15 27 0 7 -7 16 -15 19 -8 4 -15 16 -15 29 0 13 -7 25 -15 29 -8 3 -15 15
-15 26 0 11 -7 23 -15 26 -8 4 -15 17 -15 30 0 14 -7 27 -15 30 -8 4 -15 17
-15 30 0 14 -7 27 -15 30 -8 4 -15 18 -15 34 0 48 9 60 45 60 19 0 40 7 49 15
8 8 31 15 51 15 22 0 38 6 41 15 4 8 18 15 34 15 16 0 35 7 44 15 8 8 22 15
31 15 18 0 95 77 95 96 0 6 7 17 15 24 8 7 15 23 15 36 0 23 -10 31 -23 17z"/>
<path d="M10220 48248 c0 -78 9 -128 22 -128 15 0 6 166 -9 182 -10 10 -13 -1
-13 -54z"/>
<path d="M3920 48158 c0 -61 8 -98 21 -98 10 0 12 93 3 128 -11 40 -24 23 -24
-30z"/>
<path d="M8936 48148 c-9 -35 -7 -128 3 -128 13 0 21 37 21 98 0 53 -13 70
-24 30z"/>
<path d="M10250 48048 c0 -78 9 -128 22 -128 15 0 6 166 -9 182 -10 10 -13 -1
-13 -54z"/>
<path d="M10858 48094 c-10 -9 -10 -134 -2 -186 11 -64 24 -31 23 55 -1 91
-10 143 -21 131z"/>
<path d="M3952 47973 c2 -51 8 -87 17 -95 11 -11 12 1 9 69 -2 51 -8 87 -17
95 -11 11 -12 -1 -9 -69z"/>
<path d="M2833 47983 c-49 -9 -19 -23 51 -23 77 0 106 6 106 21 0 9 -114 10
-157 2z"/>
<path d="M8906 47958 c-9 -35 -7 -128 3 -128 13 0 21 37 21 98 0 53 -13 70
-24 30z"/>
<path d="M10280 47841 c0 -69 9 -121 21 -121 10 0 12 123 3 158 -12 41 -24 22
-24 -37z"/>
<path d="M3980 47791 c0 -69 9 -121 21 -121 10 0 12 123 3 158 -12 41 -24 22
-24 -37z"/>
<path d="M10888 47804 c-10 -9 -10 -154 -2 -206 11 -66 24 -29 23 65 -1 99
-10 153 -21 141z"/>
<path d="M8876 47774 c-9 -24 -7 -134 3 -134 13 0 21 37 21 98 0 50 -12 68
-24 36z"/>
<path d="M10310 47641 c0 -69 9 -121 21 -121 10 0 12 102 3 149 -10 51 -24 35
-24 -28z"/>
<path d="M4010 47580 c0 -83 7 -120 22 -120 15 0 6 166 -9 182 -10 10 -13 -3
-13 -62z"/>
<path d="M8846 47588 c-9 -35 -7 -126 3 -132 12 -8 21 30 21 97 0 57 -13 76
-24 35z"/>
<path d="M10918 47504 c-10 -9 -10 -144 -2 -196 12 -69 24 -39 23 55 -1 99
-10 153 -21 141z"/>
<path d="M10340 47441 c0 -69 9 -121 21 -121 10 0 12 102 3 149 -10 51 -24 35
-24 -28z"/>
<path d="M4040 47371 c0 -69 9 -121 21 -121 10 0 12 123 3 158 -12 41 -24 22
-24 -37z"/>
<path d="M8816 47398 c-9 -35 -7 -128 3 -128 13 0 21 37 21 98 0 53 -13 70
-24 30z"/>
<path d="M10370 47241 c0 -69 9 -121 21 -121 10 0 12 102 3 149 -10 51 -24 35
-24 -28z"/>
<path d="M8786 47208 c-9 -35 -7 -128 3 -128 13 0 21 37 21 98 0 53 -13 70
-24 30z"/>
<path d="M10940 47123 c0 -102 9 -165 21 -157 10 6 12 166 3 213 -12 59 -24
31 -24 -56z"/>
<path d="M10402 47020 c3 -47 10 -97 16 -113 l12 -27 277 2 c263 3 278 4 281
22 3 16 0 18 -19 11 -39 -14 -478 -18 -510 -5 -26 11 -27 15 -31 90 -2 49 -8
84 -16 92 -12 11 -13 -1 -10 -72z"/>
<path d="M8845 46765 c-22 -13 -87 -47 -145 -76 -158 -81 -210 -112 -210 -126
0 -17 775 -19 785 -2 10 15 -38 202 -56 223 -5 5 -18 3 -31 -5 -13 -8 -47 -21
-76 -28 -57 -14 -123 -4 -167 26 -27 18 -53 15 -100 -12z"/>
<path d="M10365 46736 c-55 -29 -143 -76 -195 -103 -159 -84 -163 -83 289 -83
l391 0 0 34 c0 18 -7 53 -15 76 -8 23 -15 53 -15 65 0 13 -8 33 -18 45 -17 21
-20 22 -43 8 -46 -30 -125 -42 -177 -28 -26 7 -54 19 -63 27 -25 21 -47 15
-154 -41z"/>
</g>
</svg>
