<?xml version="1.0" standalone="no"?>
<!DOCTYPE svg PUBLIC "-//W3C//DTD SVG 20010904//EN"
 "http://www.w3.org/TR/2001/REC-SVG-20010904/DTD/svg10.dtd">
<svg version="1.0" xmlns="http://www.w3.org/2000/svg"
 width="900.000000pt" height="900.000000pt" viewBox="0 0 900.000000 900.000000"
 preserveAspectRatio="xMidYMid meet">
<metadata>
Created by potrace 1.10, written by Peter Selinger 2001-2011
</metadata>
<g transform="translate(0.000000,900.000000) scale(0.100000,-0.100000)"
fill="#000000" stroke="none">
<path d="M4143 8988 c2 -14 -61 -26 -143 -27 -50 -1 -114 -10 -285 -43 -33 -6
-80 -14 -105 -18 -101 -16 -419 -103 -498 -136 -18 -8 -39 -14 -47 -14 -8 0
-29 -6 -47 -14 -18 -8 -53 -22 -78 -31 -25 -9 -61 -24 -80 -32 -19 -8 -51 -22
-70 -30 -19 -8 -48 -21 -65 -28 -37 -16 -294 -142 -315 -155 -8 -5 -77 -46
-154 -92 -76 -46 -149 -90 -161 -98 -425 -277 -800 -633 -1128 -1067 -59 -78
-107 -145 -107 -149 0 -3 -12 -23 -27 -43 -16 -20 -33 -45 -40 -56 -130 -213
-182 -306 -245 -435 -102 -208 -138 -287 -138 -304 0 -8 -4 -17 -10 -21 -5 -3
-14 -20 -19 -38 -5 -18 -19 -57 -31 -87 -12 -30 -25 -68 -30 -85 -4 -16 -12
-41 -17 -55 -11 -26 -29 -85 -58 -185 -9 -33 -23 -80 -31 -105 -8 -25 -14 -54
-14 -64 0 -11 -6 -42 -14 -70 -30 -106 -61 -281 -92 -521 -25 -186 -25 -792 0
-985 29 -230 61 -417 92 -526 8 -28 14 -59 14 -70 0 -10 6 -39 14 -64 8 -25
22 -72 31 -105 29 -100 47 -159 58 -185 5 -14 13 -38 17 -55 5 -16 18 -55 30
-85 12 -30 26 -69 31 -87 5 -18 14 -35 19 -38 6 -4 10 -13 10 -21 0 -20 189
-417 230 -484 5 -8 40 -66 77 -128 37 -62 73 -121 78 -130 61 -100 254 -359
369 -492 262 -304 655 -650 924 -815 9 -6 44 -28 77 -50 70 -46 92 -60 120
-74 11 -6 47 -26 80 -45 33 -19 121 -65 195 -101 131 -65 151 -74 235 -110 22
-10 53 -24 68 -31 16 -8 36 -14 46 -14 9 0 22 -5 28 -11 6 -6 26 -14 44 -19
19 -5 88 -27 154 -49 294 -100 582 -162 885 -194 131 -13 777 -16 915 -4 236
21 687 114 825 170 14 5 41 13 60 17 19 5 60 18 90 30 30 12 64 24 75 27 11 3
34 11 50 18 17 8 71 30 120 50 134 55 299 133 400 190 33 19 67 37 75 41 147
72 556 359 705 495 22 20 87 79 145 131 58 52 145 140 194 194 50 54 95 104
101 109 41 37 244 295 311 395 17 25 51 76 77 113 26 38 47 70 47 72 0 2 12
21 26 42 14 21 30 47 35 58 5 11 18 34 28 50 83 129 238 456 318 670 8 22 21
55 29 73 8 18 14 39 14 47 0 8 6 29 14 47 20 49 37 99 46 138 5 19 18 67 30
105 11 39 24 90 29 115 5 25 14 63 19 85 28 111 65 335 88 530 12 102 16 227
16 465 0 238 -4 363 -16 465 -25 215 -64 443 -92 541 -8 28 -14 60 -14 71 0
11 -6 39 -14 64 -7 24 -21 71 -30 104 -10 33 -22 74 -28 90 -5 17 -13 44 -18
60 -10 36 -33 104 -74 213 -77 207 -234 538 -317 667 -10 17 -23 39 -28 50 -5
11 -21 37 -35 58 -14 21 -26 40 -26 42 0 2 -21 34 -47 72 -26 37 -60 88 -77
113 -34 51 -147 202 -156 210 -4 3 -24 28 -46 55 -21 28 -55 68 -75 90 -194
215 -245 268 -333 347 -56 50 -119 107 -141 127 -21 20 -65 56 -96 81 -32 25
-84 66 -116 91 -102 81 -415 286 -493 323 -8 4 -42 22 -75 41 -118 66 -323
162 -445 209 -25 10 -58 24 -73 32 -16 8 -35 14 -42 14 -8 0 -29 6 -47 14 -53
22 -109 42 -173 61 -33 10 -80 23 -105 31 -25 7 -72 19 -105 27 -33 8 -82 21
-110 27 -27 7 -70 16 -95 20 -25 4 -70 13 -100 19 -110 21 -247 40 -330 46
-58 4 -89 10 -96 20 -9 13 -64 15 -353 15 -261 0 -340 -3 -338 -12z m867 -584
c63 -9 143 -22 177 -30 34 -8 72 -14 85 -14 13 0 49 -8 81 -18 56 -18 59 -21
86 -78 35 -74 86 -185 112 -244 11 -25 27 -61 36 -80 8 -19 21 -48 27 -65 7
-16 20 -46 28 -65 9 -19 23 -55 33 -80 9 -25 22 -56 28 -70 15 -34 36 -90 47
-120 5 -14 17 -48 28 -77 11 -28 17 -54 14 -57 -3 -3 -65 -6 -138 -6 -73 0
-135 -4 -139 -9 -3 -5 236 -252 531 -548 295 -296 545 -551 555 -568 18 -28
19 -53 19 -357 l0 -327 28 -15 c15 -8 36 -23 47 -33 11 -10 38 -31 60 -48 22
-16 45 -34 51 -40 94 -87 89 -85 290 -85 137 0 183 -3 187 -12 4 -15 -4 -51
-34 -153 -11 -38 -23 -80 -26 -92 -3 -13 6 -39 24 -70 33 -56 46 -91 73 -188
18 -66 20 -109 20 -757 l0 -688 70 0 c59 0 79 5 131 32 58 30 109 81 140 138
32 60 38 116 39 370 0 140 4 261 8 268 7 9 77 12 318 10 l309 -3 3 -30 c5 -43
-44 -398 -70 -505 -6 -25 -14 -63 -18 -85 -10 -56 -30 -133 -46 -180 -8 -23
-14 -48 -14 -57 0 -10 -6 -32 -14 -50 -8 -18 -23 -62 -35 -98 -11 -36 -30 -90
-41 -120 -12 -30 -25 -66 -30 -80 -27 -81 -156 -352 -226 -475 -19 -33 -39
-69 -45 -80 -5 -11 -16 -31 -24 -45 l-14 -25 -218 -5 -218 -5 -6 -120 c-6
-128 -39 -267 -75 -316 -5 -8 -20 -34 -33 -58 -28 -52 -19 -63 46 -59 82 4 76
-11 -63 -150 -268 -268 -506 -450 -846 -647 -58 -33 -209 -107 -213 -104 -2 3
27 68 64 144 76 156 103 213 175 380 7 17 21 47 30 68 9 21 14 43 11 48 -4 5
-121 9 -278 9 -231 0 -276 -2 -295 -16 -12 -8 -22 -20 -22 -27 0 -10 -77 -176
-100 -217 -5 -8 -27 -51 -50 -95 -23 -44 -56 -107 -75 -140 -19 -33 -39 -69
-45 -80 -6 -11 -19 -33 -30 -50 -11 -16 -24 -39 -30 -50 -6 -11 -18 -32 -28
-47 -9 -15 -37 -60 -61 -100 -24 -40 -50 -83 -58 -95 -14 -24 -40 -33 -168
-57 -202 -38 -412 -60 -436 -46 -9 6 -12 115 -13 504 -1 430 -3 498 -16 506
-18 12 -490 13 -507 2 -10 -6 -13 -123 -15 -508 l-3 -499 -65 -3 c-84 -5 -316
30 -480 70 -25 6 -62 13 -83 16 -39 4 -84 40 -109 86 -7 13 -40 67 -73 121
-33 53 -72 118 -86 143 -15 26 -36 63 -47 82 -11 19 -39 71 -62 115 -23 44
-45 87 -50 95 -5 8 -11 22 -14 30 -3 8 -10 22 -15 30 -5 8 -31 60 -57 115 -27
55 -53 103 -59 107 -5 4 -137 8 -293 8 -315 0 -311 1 -279 -66 9 -19 23 -50
31 -69 49 -114 96 -215 153 -329 26 -52 40 -93 35 -98 -5 -5 -14 -2 -22 7 -7
8 -17 15 -22 15 -13 0 -102 53 -228 136 -97 63 -228 161 -361 269 -98 78 -379
355 -379 372 0 14 5 15 65 14 58 -2 71 9 52 45 -89 165 -106 224 -115 389 l-7
120 -218 5 -219 5 -29 50 c-16 28 -33 59 -39 70 -6 11 -26 47 -44 80 -65 114
-155 309 -210 453 -35 92 -65 178 -76 217 -5 17 -13 44 -18 60 -6 17 -17 55
-26 85 -8 30 -22 80 -30 111 -9 31 -16 64 -16 74 0 10 -6 41 -14 69 -27 97
-76 435 -76 524 l0 62 277 -2 278 -3 5 -305 c5 -300 6 -306 30 -350 34 -63
108 -134 165 -159 39 -17 67 -21 156 -21 l109 0 0 683 c0 416 4 698 10 722 6
22 14 58 19 80 5 22 18 65 30 95 16 41 19 61 12 85 -5 16 -17 57 -26 90 -9 33
-23 81 -31 107 -9 26 -14 57 -12 70 l3 23 194 3 195 2 155 117 c86 64 159 121
163 127 11 16 9 1148 -1 1165 -8 12 -11 8 -16 -15 -4 -16 -13 -47 -20 -69 -7
-22 -20 -67 -29 -100 -9 -33 -24 -81 -32 -106 -7 -26 -14 -54 -14 -64 0 -10
-7 -38 -15 -64 -8 -25 -21 -73 -29 -106 -8 -33 -20 -82 -26 -110 -7 -27 -16
-70 -20 -95 -4 -25 -12 -65 -18 -90 -6 -25 -16 -70 -23 -100 -21 -99 11 -90
-337 -90 -313 -1 -359 -5 -428 -42 -45 -24 -102 -86 -132 -143 l-27 -50 -3
-355 c-2 -229 -7 -359 -14 -367 -8 -10 -72 -13 -268 -13 -220 0 -259 2 -270
15 -31 37 73 611 152 840 5 17 13 44 18 60 14 49 70 207 105 290 36 87 99 225
128 280 12 22 34 65 50 95 16 30 37 69 48 85 10 17 23 39 28 50 5 11 21 37 35
58 14 21 26 40 26 42 0 2 33 52 74 112 l73 108 484 3 c441 2 485 4 497 19 9
12 12 78 12 246 0 215 1 230 20 255 16 20 18 27 8 34 -7 4 -122 8 -256 7 -134
0 -246 2 -250 5 -16 17 373 327 530 421 9 5 65 40 125 76 59 36 115 69 123 72
8 4 35 18 59 32 47 27 71 32 71 14 0 -9 -61 -159 -115 -284 -7 -16 -21 -50
-30 -75 -10 -25 -23 -58 -30 -75 -7 -16 -19 -46 -28 -65 -25 -60 -31 -101 -16
-111 8 -5 136 -9 286 -9 l272 0 20 26 c12 15 21 33 21 41 0 8 6 27 14 41 8 15
29 63 46 107 91 223 312 688 334 703 19 12 120 42 144 42 13 0 51 6 85 14 116
26 282 48 347 44 l65 -3 3 -499 c2 -385 5 -502 15 -508 17 -11 489 -10 507 2
13 8 15 76 16 505 0 400 3 498 14 505 16 10 100 5 250 -16z m1170 -359 c7 -8
21 -15 31 -15 10 0 21 -4 24 -10 3 -5 30 -22 58 -36 60 -30 65 -32 176 -99
127 -77 224 -142 337 -227 119 -90 293 -243 285 -251 -4 -4 -164 -7 -356 -8
-384 0 -368 -3 -381 61 -3 14 -12 42 -20 63 -27 71 -46 122 -61 162 -9 22 -22
58 -30 80 -48 128 -64 166 -89 218 -28 57 -8 103 26 62z m1468 -1266 c26 -34
49 -66 52 -72 3 -7 23 -39 45 -72 46 -69 60 -92 74 -120 6 -11 26 -47 45 -80
70 -123 199 -394 226 -475 5 -14 18 -50 30 -80 11 -30 30 -84 41 -120 12 -36
27 -80 35 -98 8 -18 14 -40 14 -50 0 -9 6 -34 14 -57 16 -47 36 -124 46 -180
4 -22 12 -60 18 -85 27 -109 77 -473 68 -495 -5 -13 -47 -15 -309 -15 -222 0
-306 3 -315 12 -9 9 -12 100 -12 347 -1 337 -5 389 -39 451 -27 49 -75 102
-115 127 -75 48 -117 53 -448 53 -350 0 -317 -9 -337 95 -12 63 -31 155 -57
283 -9 42 -22 100 -30 128 -8 28 -14 59 -14 69 0 10 -6 41 -14 69 -8 28 -22
80 -31 116 -22 89 -43 166 -61 221 -16 55 -18 86 -4 91 5 2 240 2 520 0 l510
-2 48 -61z"/>
<path d="M2594 7142 c-56 -47 -54 -13 -54 -871 l0 -791 -157 -119 c-254 -194
-326 -255 -380 -326 -35 -47 -93 -167 -93 -194 0 -10 -7 -38 -15 -61 -13 -37
-15 -207 -15 -1289 0 -1196 1 -1249 19 -1313 47 -164 139 -288 281 -379 69
-44 98 -56 185 -80 67 -18 149 -19 2180 -19 2041 0 2112 1 2181 19 40 11 80
24 90 29 70 35 95 50 146 89 124 95 195 208 236 378 15 64 17 177 17 1265 0
1307 1 1282 -58 1409 -58 124 -101 169 -362 381 -37 30 -73 60 -79 65 -6 6
-29 24 -51 40 -22 17 -51 40 -65 53 -14 12 -32 25 -41 27 -9 3 -20 16 -23 28
-3 12 -6 157 -6 322 l0 300 -528 528 -527 527 -1430 0 c-1355 -1 -1431 -2
-1451 -18z m2734 -666 c2 -435 3 -449 23 -477 41 -58 51 -59 514 -59 376 0
424 -2 429 -16 3 -9 6 -259 6 -557 0 -513 1 -544 19 -573 17 -28 73 -64 101
-64 20 0 75 33 90 54 11 16 16 63 20 200 3 112 9 181 15 183 6 2 21 -6 33 -18
13 -11 51 -43 85 -72 34 -28 69 -58 78 -66 9 -9 28 -26 43 -38 44 -39 44 -40
-99 -151 -44 -34 -114 -89 -155 -122 -41 -33 -111 -88 -155 -122 -44 -35 -89
-70 -100 -79 -40 -34 -232 -185 -295 -233 -36 -27 -69 -54 -75 -60 -5 -7 -47
-41 -93 -76 -46 -36 -111 -87 -145 -113 -34 -26 -73 -58 -87 -70 -14 -13 -54
-45 -90 -72 -64 -49 -255 -200 -295 -233 -82 -69 -94 -73 -123 -44 -62 60
-218 174 -277 202 -68 32 -74 33 -200 34 -101 1 -140 -3 -170 -16 -22 -9 -47
-19 -55 -22 -25 -10 -164 -107 -180 -126 -11 -13 -178 -140 -185 -140 -6 0
-96 69 -235 180 -41 33 -111 88 -155 122 -44 34 -86 68 -93 75 -7 7 -41 34
-75 60 -34 26 -64 50 -67 53 -3 3 -57 46 -120 95 -63 49 -117 92 -120 95 -3 3
-41 34 -85 68 -44 34 -114 89 -155 122 -41 33 -111 88 -155 122 -44 34 -82 65
-85 69 -3 4 -51 42 -107 86 -249 193 -313 245 -313 258 0 20 265 245 289 245
7 0 11 -36 11 -110 0 -135 16 -176 79 -204 49 -23 79 -16 125 28 l36 33 0 995
c0 547 3 998 7 1001 3 4 576 6 1272 5 l1266 -3 3 -449z m770 -286 c-2 -8 -73
-11 -257 -10 -140 0 -258 3 -262 6 -11 6 -12 518 -2 528 10 10 526 -509 521
-524z m876 -1492 c3 -13 6 -557 6 -1209 0 -1268 1 -1231 -48 -1326 -19 -38
-30 -40 -58 -15 -19 18 -113 94 -230 187 -34 28 -99 79 -144 115 -45 36 -109
87 -143 113 -34 27 -64 52 -67 56 -3 4 -33 28 -67 54 -34 26 -68 53 -75 60 -7
6 -92 75 -188 152 -96 77 -181 146 -188 152 -7 7 -41 34 -75 60 -34 26 -64 50
-67 54 -3 4 -33 29 -67 56 -34 26 -97 76 -140 109 -43 34 -88 72 -100 86 l-23
24 68 52 c37 28 101 79 142 112 41 33 110 87 152 120 94 73 285 225 313 249
11 9 56 44 100 79 44 34 114 89 155 122 41 33 111 88 155 122 44 34 85 67 90
74 6 6 39 33 75 60 58 44 210 163 314 247 64 52 70 56 87 57 9 0 19 -10 23
-22z m-4772 -45 c33 -27 92 -74 131 -106 40 -31 108 -85 152 -119 44 -34 85
-67 90 -74 6 -6 39 -33 75 -59 36 -27 67 -52 70 -55 3 -3 57 -46 120 -95 63
-49 117 -92 120 -95 3 -3 41 -34 85 -68 44 -34 114 -89 155 -122 41 -33 111
-88 155 -122 44 -35 89 -70 100 -80 11 -9 81 -64 155 -123 168 -132 190 -151
190 -162 0 -5 -29 -31 -65 -57 -36 -26 -71 -53 -78 -60 -7 -6 -30 -25 -52 -41
-22 -17 -42 -32 -45 -36 -3 -3 -68 -53 -145 -112 -77 -59 -201 -154 -275 -212
-74 -58 -196 -152 -270 -210 -74 -58 -194 -151 -267 -207 -72 -57 -187 -145
-255 -197 -68 -51 -128 -100 -135 -109 -18 -22 -37 -9 -64 45 l-24 48 -3 1238
c-1 886 1 1237 9 1237 6 0 38 -21 71 -47z m2450 -1055 c38 -9 76 -29 133 -71
44 -33 85 -65 90 -71 6 -6 89 -74 185 -151 96 -77 181 -146 188 -152 7 -7 41
-34 75 -60 34 -26 67 -52 72 -59 6 -6 38 -33 73 -60 35 -27 96 -75 135 -107
74 -59 182 -145 291 -232 120 -95 211 -169 216 -175 3 -3 84 -68 180 -145 96
-77 181 -146 188 -152 7 -7 41 -34 75 -60 34 -27 70 -56 79 -65 9 -9 28 -24
42 -33 33 -22 33 -43 0 -55 -28 -11 -4231 -15 -4258 -4 -38 15 -12 40 202 205
68 52 183 140 255 197 73 56 195 150 272 209 77 59 142 110 145 113 3 4 64 51
135 105 72 55 132 102 135 105 3 4 64 51 135 105 72 55 132 102 135 105 3 3
23 19 45 35 22 17 42 32 45 36 3 3 43 34 90 69 47 35 87 67 90 70 3 3 23 19
45 35 22 17 42 32 45 36 3 3 68 53 145 111 167 125 208 140 317 116z"/>
<path d="M4530 6001 c-239 -49 -435 -151 -595 -309 -125 -123 -166 -177 -237
-311 -65 -124 -92 -209 -114 -366 -43 -315 81 -621 327 -811 32 -24 60 -44 63
-44 3 0 27 -13 53 -28 26 -16 57 -31 68 -34 11 -4 52 -17 90 -31 195 -67 485
-59 690 21 147 57 185 88 185 151 0 77 -94 126 -168 87 -80 -42 -193 -73 -312
-87 -207 -23 -396 27 -551 147 -173 133 -249 319 -235 573 12 204 97 385 264
557 54 56 182 156 222 173 14 6 32 15 40 19 45 25 83 42 95 42 8 0 29 6 47 14
55 23 198 46 289 46 86 0 225 -25 307 -54 170 -63 242 -190 242 -429 0 -117
-8 -167 -46 -292 -41 -133 -131 -266 -216 -318 -42 -26 -110 -22 -137 7 -21
23 -22 25 -7 54 9 17 16 40 16 51 0 11 6 35 14 53 14 34 31 92 46 163 5 22 14
60 20 85 7 25 18 70 25 100 7 30 19 78 26 105 7 28 14 73 17 100 7 90 -36 117
-239 150 -121 19 -165 19 -264 -4 -135 -31 -208 -71 -305 -170 -47 -48 -94
-104 -105 -126 -10 -22 -24 -47 -30 -55 -16 -21 -69 -154 -89 -221 -22 -75
-22 -226 0 -276 38 -86 51 -108 95 -153 43 -44 69 -59 172 -104 49 -21 167
-21 232 0 28 9 85 34 128 55 43 22 82 39 88 39 5 0 20 -9 31 -20 48 -44 103
-62 195 -62 75 0 96 4 140 26 122 62 221 168 291 311 80 166 112 308 112 502
0 148 -11 215 -52 323 -71 185 -222 291 -504 354 -97 22 -311 20 -424 -3z
m264 -631 c31 -11 33 -37 12 -114 -8 -28 -22 -80 -31 -116 -36 -144 -70 -260
-92 -310 -26 -61 -172 -149 -264 -158 -46 -4 -113 20 -148 55 -72 73 -66 200
19 375 40 83 47 94 100 151 50 55 115 96 175 113 51 14 196 17 229 4z"/>
</g>
</svg>
