<?xml version="1.0" standalone="no"?>
<!DOCTYPE svg PUBLIC "-//W3C//DTD SVG 20010904//EN"
 "http://www.w3.org/TR/2001/REC-SVG-20010904/DTD/svg10.dtd">
<svg version="1.0" xmlns="http://www.w3.org/2000/svg"
 width="2000.000000pt" height="2000.000000pt" viewBox="0 0 2000.000000 2000.000000"
 preserveAspectRatio="xMidYMid meet">
<metadata>
Created by potrace 1.10, written by Peter Selinger 2001-2011
</metadata>
<g transform="translate(0.000000,2000.000000) scale(0.050000,-0.050000)"
fill="#000000" stroke="none">
<path d="M4723 38419 c-455 -285 -843 -519 -863 -519 -27 0 -35 -13 -31 -51 4
-40 -6 -56 -43 -71 -70 -26 -96 -2 -52 49 l36 43 -50 -42 c-35 -30 -162 -68
-420 -126 -203 -47 -390 -89 -415 -95 -54 -13 -61 40 -14 102 16 21 29 48 29
60 0 11 -18 -8 -40 -44 -22 -36 -40 -79 -40 -95 0 -37 -68 -73 -109 -58 -37
15 -41 70 -7 104 20 20 20 33 0 64 -33 54 -31 58 27 80 30 12 63 50 82 93 23
57 35 67 49 45 13 -19 15 -9 6 32 -33 152 -285 189 -288 42 -1 -12 -18 -44
-40 -72 -79 -100 -32 -294 79 -330 57 -18 62 -58 19 -145 -93 -188 -82 -433
29 -650 l69 -134 -633 -6 -633 -5 -10 -830 c-9 -713 -13 -815 -34 -726 -55
234 -144 421 -232 490 -46 36 -73 51 -59 34 21 -27 17 -35 -24 -54 -92 -42
-161 -196 -161 -358 0 -80 -6 -129 -14 -110 -24 62 -16 -4 14 -106 29 -97 29
-97 21 -20 -9 78 9 35 81 -195 6 -19 2 -35 -9 -35 -11 0 -24 16 -29 35 -8 31
-10 31 -12 1 -1 -18 -18 -37 -37 -42 -19 -5 -1 -10 40 -12 85 -2 105 -50 30
-73 -166 -50 -276 -355 -206 -567 26 -78 -28 -28 -71 65 -20 46 -37 70 -37 53
1 -52 48 -119 174 -247 153 -155 169 -196 153 -394 -12 -136 -8 -167 29 -238
47 -91 48 -90 -93 -110 -69 -9 -107 -1 -187 39 -99 49 -184 70 -108 26 70 -41
-118 -75 -213 -39 -41 16 -70 36 -64 46 6 9 -4 17 -22 17 -18 0 -27 -8 -21
-18 6 -10 -19 -23 -54 -30 -36 -7 -86 -29 -112 -49 -29 -22 -68 -32 -105 -27
-69 10 -73 31 -14 73 25 17 35 31 22 31 -125 0 -125 -260 -1 -321 l45 -22 -43
37 c-101 86 -119 204 -29 191 46 -7 55 -17 47 -48 -23 -89 34 -191 122 -217
46 -13 97 -32 113 -42 195 -121 388 -157 489 -91 50 33 60 33 193 1 133 -32
146 -32 254 2 63 20 200 40 304 44 l190 8 -197 -189 -197 -189 37 -64 c20 -35
62 -92 93 -127 l57 -63 -10 70 c-5 39 -15 84 -21 100 -8 21 43 69 170 160 99
71 192 143 205 158 12 16 -66 -36 -174 -116 -193 -142 -240 -158 -266 -90 -9
23 41 84 177 215 104 101 180 176 169 168 -12 -8 -96 -15 -187 -15 l-166 0 0
723 0 724 49 -46 c46 -43 47 -50 20 -103 -63 -122 -27 -200 142 -308 128 -82
137 -123 49 -223 -70 -80 -75 -127 -20 -177 22 -20 41 -55 42 -78 2 -31 5 -33
11 -9 8 27 21 30 71 16 34 -10 69 -13 79 -7 9 6 17 -10 17 -36 0 -25 14 -82
31 -126 23 -59 28 -65 19 -20 -7 33 -17 85 -24 116 -7 34 0 69 19 90 16 19 39
64 51 100 33 96 104 188 136 176 16 -6 28 0 28 14 0 13 41 41 90 61 71 29 90
47 90 85 0 57 7 58 250 18 223 -37 231 -37 217 0 -8 21 2 30 32 30 24 0 38 -9
31 -20 -7 -11 -3 -20 9 -20 11 0 21 14 21 30 0 21 -21 30 -65 30 -84 0 -353
95 -404 143 -39 36 -24 37 575 37 l614 0 0 60 0 60 -687 0 c-663 0 -688 1
-723 40 -83 92 -30 99 805 99 l765 1 0 160 0 160 -815 5 c-797 5 -815 6 -822
45 -4 22 -18 47 -30 55 -13 8 6 15 41 15 93 0 126 44 126 170 0 166 -13 184
-88 116 -55 -50 -57 -50 -17 -5 65 74 59 79 -91 79 -172 0 -184 -12 -184 -195
0 -133 4 -148 45 -163 l44 -16 -49 -15 c-112 -35 -140 -85 -140 -254 0 -181
-10 -188 -161 -112 -103 52 -174 149 -192 260 -8 51 -18 69 -29 52 -26 -43
-41 24 -20 93 10 33 19 45 20 26 1 -18 9 -38 17 -43 8 -5 12 287 9 649 l-6
659 983 -6 982 -5 -66 49 c-37 28 -173 153 -302 279 l-235 230 105 27 c120 30
239 106 298 189 22 32 87 84 144 116 57 33 95 60 86 60 -10 0 -54 -20 -97 -45
l-80 -45 -89 100 c-142 161 -144 170 -37 170 150 0 255 77 321 235 39 94 222
280 301 306 45 14 68 35 68 59 0 45 1659 1092 1752 1105 l58 9 -60 2 c-46 2
-251 -117 -887 -517z m-1052 -718 c-27 -44 -131 -104 -131 -76 0 15 29 42 65
60 79 39 80 40 66 16z m-155 -135 c-3 -26 -15 -45 -26 -42 -11 3 -18 24 -15
46 4 28 -6 21 -34 -24 -49 -80 -116 -124 -209 -140 -109 -17 -87 14 78 116
171 104 215 114 206 44z m-630 -986 l104 -99 -755 -1 -755 0 0 100 0 100 651
0 652 0 103 -100z m284 -280 l119 -121 -539 6 -540 5 -6 86 c-11 144 -11 144
444 144 l403 0 119 -120z m-1023 -1310 c7 5 8 4 3 -4 -6 -7 14 -41 45 -75 l55
-61 -61 55 -61 54 -58 -54 -59 -55 54 61 c52 58 53 62 20 99 -34 38 -34 38 7
4 23 -19 47 -30 55 -24z m53 -436 c0 -50 -4 -53 -41 -33 -60 31 -72 80 -28
112 45 33 68 6 69 -79z"/>
<path d="M2264 36316 c4 -32 24 -48 71 -58 52 -10 61 -8 45 12 -12 14 -41 21
-64 15 -35 -10 -41 -4 -31 32 6 24 2 43 -8 43 -11 0 -17 -20 -13 -44z"/>
<path d="M5763 38769 c-3 -68 -32 -113 -93 -146 -22 -12 -29 -22 -16 -22 61
-2 129 89 121 159 -8 68 -9 68 -12 9z"/>
<path d="M5728 37354 c-98 -53 -89 -204 13 -238 24 -8 -15 -116 -41 -116 -33
0 -60 -103 -38 -143 17 -33 13 -51 -25 -94 l-47 -53 53 47 c57 50 94 43 187
-36 74 -62 164 -113 133 -74 -26 31 23 33 715 33 l742 0 0 -100 0 -100 -616 0
c-465 0 -623 6 -643 25 -21 20 -24 20 -13 0 11 -20 -76 -25 -409 -25 l-424 0
134 110 134 110 -666 0 c-783 1 -817 6 -991 155 -124 105 -234 185 -255 185
-8 0 59 -55 147 -121 209 -158 234 -219 76 -190 -53 10 -55 9 -22 -24 33 -32
97 -34 847 -28 545 4 804 0 791 -13 -11 -11 -65 -57 -120 -102 l-99 -82 -945
0 -945 0 -53 79 c-28 43 -46 88 -38 100 7 12 4 20 -7 16 -11 -3 -35 13 -53 35
-111 135 179 -320 336 -526 128 -170 138 -189 109 -217 -29 -29 -37 -28 -93
12 -34 24 -62 39 -62 34 0 -5 45 -42 100 -81 l100 -72 90 93 c125 131 123 155
-9 88 -78 -41 -88 -38 -129 34 -11 20 106 25 561 25 l574 0 -58 -64 -59 -64
76 64 75 64 922 0 922 0 126 -90 c69 -49 133 -90 141 -90 8 0 -36 36 -99 81
-62 45 -113 85 -113 90 0 5 149 9 330 9 l330 0 0 -473 c0 -454 -14 -599 -30
-320 -4 73 -12 139 -17 148 -5 8 -24 119 -44 245 -19 127 -36 232 -38 235 -3
3 -683 -94 -1513 -216 -829 -122 -1539 -225 -1578 -230 -256 -33 -260 -34
-260 -71 0 -36 -40 -38 -985 -43 l-985 -5 984 -5 984 -5 12 -65 c7 -36 69
-455 140 -932 70 -477 130 -870 134 -873 3 -3 362 48 796 113 566 84 821 114
900 106 83 -8 103 -5 80 11 -23 18 -16 20 31 10 34 -6 146 2 250 19 255 41
275 40 283 -14 4 -31 33 -57 91 -83 59 -27 85 -51 86 -80 2 -37 3 -38 16 -6
20 51 111 -46 152 -162 31 -90 91 -188 91 -151 0 45 158 42 166 -3 7 -31 9
-28 11 12 2 28 21 68 43 88 52 47 51 114 -2 162 -108 98 -96 161 48 250 57 35
115 78 128 96 20 26 25 -70 25 -473 l1 -505 -149 0 -149 0 -7 95 c-6 70 -9 55
-11 -55 l-4 -150 192 -178 191 -178 -41 -41 -41 -41 -66 48 c-36 26 -94 69
-130 96 -36 27 -65 44 -65 38 0 -6 59 -54 131 -107 91 -67 126 -105 118 -126
-70 -177 -19 -190 96 -24 76 110 74 114 -180 345 -242 221 -247 258 -36 258
81 0 172 9 201 20 39 15 67 12 110 -10 120 -62 247 -75 387 -40 123 31 134 31
184 -2 87 -57 429 -6 429 64 0 6 -10 4 -22 -3 -15 -10 -15 -1 1 29 13 24 32
38 42 31 11 -6 14 -21 7 -32 -8 -13 0 -13 25 0 20 10 74 30 120 43 88 26 145
128 122 217 -8 31 1 41 46 47 49 8 58 1 65 -43 7 -44 8 -43 11 12 3 69 -87
167 -154 167 -18 0 -2 -16 36 -35 38 -19 72 -46 76 -60 13 -39 -96 -30 -185
15 -43 22 -95 40 -115 40 -70 0 -13 40 61 43 66 3 67 4 14 11 -33 4 -100 -7
-150 -23 -59 -20 -70 -27 -30 -22 l60 9 -66 -29 c-89 -40 -292 -19 -233 24 50
37 -7 37 -62 0 -49 -34 -296 -21 -275 14 8 13 -3 10 -23 -7 -35 -28 -27 -31
91 -40 84 -7 115 -15 91 -25 -32 -13 -162 -4 -228 16 -19 6 -15 27 15 83 22
42 40 109 40 150 0 53 11 81 39 95 53 29 57 27 67 -24 5 -26 10 -10 11 35 1
44 -4 70 -12 58 -37 -54 -102 -70 -115 -27 -32 101 11 202 147 343 73 76 140
153 150 172 9 19 -7 7 -36 -26 -41 -47 -51 -51 -43 -20 66 265 -27 535 -200
579 -28 7 -47 23 -43 37 14 42 132 39 207 -5 39 -22 65 -32 58 -21 -22 35
-131 83 -193 84 -42 2 -56 10 -48 30 6 16 30 95 54 177 23 81 49 144 56 140 7
-4 7 53 0 128 -14 147 -86 302 -160 341 -48 26 -50 51 -6 68 43 17 120 -35
168 -114 21 -35 39 -53 39 -40 0 35 -116 162 -161 176 -127 41 -283 -219 -380
-630 -24 -104 -53 -226 -65 -270 l-21 -80 -17 90 c-9 50 -19 491 -22 980 l-4
890 -784 10 c-863 11 -908 18 -808 118 42 42 55 82 26 82 -8 0 -31 -18 -49
-40 -42 -48 -62 -50 -104 -9 -42 42 -40 56 19 125 28 33 50 70 50 82 0 12 27
46 60 75 116 103 19 293 -112 221z m-579 -998 l-59 -64 76 64 75 64 511 0 511
0 73 -52 74 -52 -60 52 -60 52 196 0 c239 0 274 -15 274 -117 0 -113 -102
-169 -179 -98 -21 20 -24 20 -13 0 11 -20 -152 -25 -791 -25 l-804 0 58 64 59
64 -76 -64 -75 -64 -668 0 -668 0 -68 95 c-38 52 -75 106 -83 120 -11 20 168
25 871 25 l884 0 -58 -64z m2031 4 c0 -11 -60 -20 -140 -20 -80 0 -140 9 -140
20 0 11 60 20 140 20 80 0 140 -9 140 -20z m0 -80 c0 -11 -60 -20 -140 -20
-80 0 -140 9 -140 20 0 11 60 20 140 20 80 0 140 -9 140 -20z m0 -80 c0 -11
-60 -20 -140 -20 -80 0 -140 9 -140 20 0 11 60 20 140 20 80 0 140 -9 140 -20z
m10 -441 c8 -34 10 -66 5 -70 -16 -17 -99 88 -86 110 26 41 68 20 81 -40z
m-74 -22 c30 -35 66 -80 80 -100 22 -30 232 -1096 219 -1108 -3 -3 -198 134
-434 303 -339 243 -435 302 -454 283 -13 -14 -200 -263 -416 -555 -216 -291
-401 -533 -410 -536 -9 -3 -180 112 -379 257 -199 144 -370 259 -380 256 -10
-4 -160 -194 -333 -423 -173 -229 -321 -409 -329 -400 -24 28 -222 1417 -207
1456 9 25 7 32 -10 22 -16 -10 -23 8 -23 57 0 39 -2 78 -5 86 -3 8 11 17 30
21 22 5 36 -6 37 -30 2 -33 3 -33 12 -1 5 19 11 36 12 36 12 5 2870 435 2900
437 20 1 61 -26 90 -61z m404 -1088 c0 -27 -8 -49 -18 -49 -21 0 -39 61 -27
95 13 40 45 8 45 -46z m-704 -133 c37 -37 28 -92 -18 -106 -54 -18 -61 -8 -46
67 14 68 27 76 64 39z"/>
<path d="M5447 35358 c-321 -93 -176 -590 151 -516 298 67 222 587 -78 536 -5
-1 -39 -10 -73 -20z"/>
<path d="M2106 35951 c-216 -94 -137 -431 102 -431 244 0 320 325 100 430 -78
37 -119 37 -202 1z"/>
<path d="M4550 35858 c-77 -66 -158 -139 -180 -162 -22 -23 43 27 145 112 158
132 205 176 180 171 -3 -1 -68 -55 -145 -121z"/>
<path d="M2603 35837 c-4 -74 15 -76 602 -77 497 0 515 1 515 39 0 62 -16 64
-535 62 -413 -1 -499 -7 -517 -31 -31 -41 -44 -38 -54 15 -8 40 -9 39 -11 -8z"/>
<path d="M2600 35681 c0 -78 38 -84 460 -77 325 6 330 7 336 51 5 30 -3 45
-25 45 -17 0 -31 9 -31 20 0 13 -137 20 -370 20 l-370 0 0 -59z m395 24 c-279
-5 -335 -11 -335 -35 0 -17 -9 -30 -20 -30 -11 0 -20 18 -20 40 0 39 12 40
355 36 l355 -5 -335 -6z"/>
<path d="M975 35625 c-89 -93 -125 -293 -76 -415 9 -23 12 16 6 92 -12 161 17
259 98 327 33 28 52 51 42 51 -10 0 -41 -25 -70 -55z"/>
<path d="M2464 35136 c-25 -25 -33 -248 -12 -305 12 -30 17 -30 55 3 24 19 32
22 18 6 -44 -50 -27 -60 102 -60 163 0 193 29 193 188 0 177 -15 192 -187 192
-86 0 -155 -10 -169 -24z m221 -120 l-45 -45 75 -80 75 -81 -81 75 c-66 62
-86 71 -109 50 -23 -21 -24 -20 -5 6 19 25 18 38 0 60 -21 22 -20 23 7 3 26
-19 39 -16 68 16 20 22 41 40 48 40 6 0 -9 -20 -33 -44z"/>
<path d="M2964 35136 c-14 -14 -24 -81 -24 -159 0 -163 16 -177 205 -177 160
0 175 16 175 180 0 167 -14 180 -190 180 -84 0 -152 -10 -166 -24z m215 -106
c23 20 41 32 41 27 0 -5 -33 -40 -74 -78 -41 -38 -62 -53 -47 -33 24 32 19 45
-51 120 l-78 84 84 -79 c83 -76 86 -77 125 -41z"/>
<path d="M2930 33840 c-56 -14 -55 -15 25 -18 47 -1 85 7 85 18 0 22 -22 22
-110 0z"/>
<path d="M920 33593 c0 -38 26 -119 58 -180 l59 -111 -94 -7 c-91 -8 -90 -8
21 -11 l114 -4 -59 96 c-85 136 -103 254 -37 234 55 -17 48 -6 -17 28 -42 22
-45 20 -45 -45z"/>
<path d="M2228 33470 c6 -22 16 -76 23 -120 l12 -80 262 6 c235 6 259 3 236
-25 -21 -25 -72 -31 -253 -31 -224 0 -228 -1 -226 -45 2 -34 5 -36 12 -10 8
31 36 35 224 35 l215 0 74 82 c153 171 96 214 -293 222 -287 6 -296 5 -286
-34z"/>
<path d="M2996 33435 c-37 -36 -58 -58 -47 -50 32 26 51 17 51 -24 0 -68 65
-81 401 -81 286 0 321 -4 299 -30 -20 -24 -92 -31 -377 -34 l-353 -5 349 -6
348 -6 77 75 c178 174 102 226 -334 226 l-348 0 -66 -65z"/>
<path d="M1791 33300 c8 -27 20 -99 28 -160 l15 -110 3 93 c2 51 -11 123 -28
160 -19 41 -26 48 -18 17z"/>
<path d="M2940 33012 c0 -15 -18 -32 -40 -38 -24 -6 -40 -27 -40 -53 0 -42 -5
-43 -290 -37 -184 4 -290 -1 -290 -14 0 -13 109 -18 300 -14 l300 6 0 49 c0
30 11 49 30 49 23 0 30 -25 30 -108 l0 -107 -204 -4 c-113 -1 -209 -7 -214
-12 -5 -5 87 -9 205 -9 129 0 213 -8 213 -20 0 -12 -77 -20 -190 -20 l-190 0
0 -290 0 -290 1100 0 1100 0 0 130 0 130 150 0 c143 0 152 3 170 50 10 28 28
50 40 50 12 0 20 77 20 200 l0 201 750 -6 750 -5 -3 60 c-2 47 -4 50 -11 15
l-9 -45 -738 0 -739 0 0 80 0 80 -1100 0 c-923 0 -1100 -4 -1100 -28z m2120
-592 c0 -36 -13 -40 -150 -40 -137 0 -150 4 -150 40 0 36 13 40 150 40 137 0
150 -4 150 -40z"/>
<path d="M6927 32650 c1 -273 2 -291 12 -120 11 193 12 198 39 135 15 -36 36
-71 46 -78 10 -6 -2 28 -28 76 -25 48 -51 137 -58 197 -6 61 -11 -34 -11 -210z"/>
<path d="M2005 32520 c-6 -356 -15 -340 189 -340 182 0 200 20 57 60 -50 14
-91 31 -91 39 0 7 -31 9 -69 5 l-70 -8 -6 247 -6 247 -4 -250z"/>
<path d="M6782 32188 c-1 -33 -23 -49 -93 -68 -143 -40 -125 -60 58 -60 135 0
171 6 181 32 22 57 13 68 -57 68 -48 0 -71 10 -77 35 -8 28 -10 26 -12 -7z"/>
</g>
</svg>
